G04*
G04 #@! TF.GenerationSoftware,Altium Limited,Altium Designer,23.6.0 (18)*
G04*
G04 Layer_Color=16711935*
%FSLAX25Y25*%
%MOIN*%
G70*
G04*
G04 #@! TF.SameCoordinates,D5263B71-C0EA-4B60-9871-AA0EAEE7EF9D*
G04*
G04*
G04 #@! TF.FilePolarity,Negative*
G04*
G01*
G75*
%ADD18C,0.07087*%
%ADD19C,0.07001*%
%ADD20R,0.07001X0.07001*%
%ADD21C,0.08800*%
%ADD22C,0.06737*%
%ADD23R,0.06737X0.06737*%
%ADD24R,0.06737X0.06737*%
%ADD25C,0.14580*%
%ADD26C,0.13398*%
%ADD27C,0.08661*%
%ADD28R,0.07800X0.10800*%
%ADD29O,0.07800X0.10800*%
%ADD30C,0.08300*%
%ADD31O,0.10800X0.07800*%
%ADD32R,0.10800X0.07800*%
%ADD33O,0.07300X0.10800*%
%ADD34R,0.07300X0.10800*%
%ADD35C,0.00800*%
%ADD36C,0.05906*%
%ADD37O,0.08674X0.08674*%
%ADD38C,0.05800*%
G04:AMPARAMS|DCode=63|XSize=57.09mil|YSize=76.77mil|CornerRadius=6.4mil|HoleSize=0mil|Usage=FLASHONLY|Rotation=0.000|XOffset=0mil|YOffset=0mil|HoleType=Round|Shape=RoundedRectangle|*
%AMROUNDEDRECTD63*
21,1,0.05709,0.06398,0,0,0.0*
21,1,0.04429,0.07677,0,0,0.0*
1,1,0.01280,0.02215,-0.03199*
1,1,0.01280,-0.02215,-0.03199*
1,1,0.01280,-0.02215,0.03199*
1,1,0.01280,0.02215,0.03199*
%
%ADD63ROUNDEDRECTD63*%
D18*
X152563Y362799D02*
D03*
X142563D02*
D03*
X152382Y271280D02*
D03*
X142382D02*
D03*
X335000Y384500D02*
D03*
Y404500D02*
D03*
Y394500D02*
D03*
X464051Y286638D02*
D03*
X454051D02*
D03*
X110500Y290189D02*
D03*
X419287Y286638D02*
D03*
X409287D02*
D03*
X110500Y302000D02*
D03*
X247501Y323673D02*
D03*
X257501D02*
D03*
X267501D02*
D03*
X277501D02*
D03*
X287501D02*
D03*
X297501D02*
D03*
X307501D02*
D03*
X317501D02*
D03*
X317500Y384500D02*
D03*
X307500D02*
D03*
X297500D02*
D03*
X287500D02*
D03*
X277500D02*
D03*
X267500D02*
D03*
X257500D02*
D03*
X247500D02*
D03*
Y396000D02*
D03*
X257500D02*
D03*
X267500D02*
D03*
X277500D02*
D03*
X287500D02*
D03*
X297500D02*
D03*
X307500D02*
D03*
X317500D02*
D03*
X453382Y389000D02*
D03*
X463382D02*
D03*
X408500D02*
D03*
X418500D02*
D03*
X110500Y313811D02*
D03*
D19*
X428921Y334067D02*
D03*
X143421Y336067D02*
D03*
D20*
X438921Y334067D02*
D03*
X153421Y336067D02*
D03*
D21*
X102000Y345500D02*
D03*
X142000D02*
D03*
D22*
X178567Y406000D02*
D03*
Y396000D02*
D03*
X284000Y449433D02*
D03*
X294000D02*
D03*
X379433Y386000D02*
D03*
Y396000D02*
D03*
X152000Y305067D02*
D03*
X142000D02*
D03*
X132000D02*
D03*
X421000Y308067D02*
D03*
X431000D02*
D03*
X441000D02*
D03*
D23*
X178567Y386000D02*
D03*
X379433Y406000D02*
D03*
D24*
X274000Y449433D02*
D03*
X162000Y305067D02*
D03*
X451000Y308067D02*
D03*
D25*
X428913Y216992D02*
D03*
Y141008D02*
D03*
X141905D02*
D03*
Y216992D02*
D03*
D26*
X176512Y141008D02*
D03*
Y216992D02*
D03*
X395488Y141008D02*
D03*
Y216992D02*
D03*
D27*
X110500Y278535D02*
D03*
Y325465D02*
D03*
D28*
X361500Y409500D02*
D03*
X194500Y386000D02*
D03*
Y407500D02*
D03*
X361500Y388000D02*
D03*
D29*
X351500Y409500D02*
D03*
X204500Y386000D02*
D03*
Y407500D02*
D03*
X351500Y388000D02*
D03*
D30*
X339900Y441900D02*
D03*
X365300Y460700D02*
D03*
X365000Y441500D02*
D03*
X340500Y461000D02*
D03*
X205500D02*
D03*
X230000Y441500D02*
D03*
X230300Y460700D02*
D03*
X204900Y441900D02*
D03*
D31*
X314500Y469000D02*
D03*
X253000D02*
D03*
D32*
X314500Y459000D02*
D03*
X253000D02*
D03*
D33*
X294606Y465000D02*
D03*
X284606D02*
D03*
X153000Y423000D02*
D03*
X163000D02*
D03*
X419500D02*
D03*
X429500D02*
D03*
D34*
X274606Y465000D02*
D03*
X143000Y423000D02*
D03*
X409500D02*
D03*
D35*
X110748Y256248D02*
D03*
Y366984D02*
D03*
X457205D02*
D03*
Y256248D02*
D03*
D36*
X336500Y433000D02*
D03*
X376500D02*
D03*
X222000D02*
D03*
X182000D02*
D03*
X327000Y410500D02*
D03*
X287000D02*
D03*
X240500D02*
D03*
X280500D02*
D03*
D37*
X328650Y344320D02*
D03*
X318650D02*
D03*
X308650D02*
D03*
X298650D02*
D03*
X278650D02*
D03*
X268650D02*
D03*
X258650D02*
D03*
X288650D02*
D03*
X338650D02*
D03*
X378650D02*
D03*
X368650D02*
D03*
X358650D02*
D03*
X388750D02*
D03*
X348650D02*
D03*
X248693Y284420D02*
D03*
X238693D02*
D03*
X268693D02*
D03*
X228693D02*
D03*
X218693D02*
D03*
X208693D02*
D03*
X198693D02*
D03*
X258693D02*
D03*
X278693D02*
D03*
X318693D02*
D03*
X288693D02*
D03*
X298693D02*
D03*
X308693D02*
D03*
X328693D02*
D03*
X338693D02*
D03*
X378693D02*
D03*
X368693D02*
D03*
X358693D02*
D03*
X388693D02*
D03*
X348693D02*
D03*
X248650Y344320D02*
D03*
X208650D02*
D03*
X238650D02*
D03*
X198650D02*
D03*
X218650D02*
D03*
X228650D02*
D03*
D38*
X231000Y326500D02*
D03*
X418409Y357000D02*
D03*
X149328Y313672D02*
D03*
X425975Y250025D02*
D03*
X390500Y250000D02*
D03*
X127000Y352880D02*
D03*
X340000Y332500D02*
D03*
X248500Y335000D02*
D03*
X288000Y305000D02*
D03*
X238338Y426838D02*
D03*
X277294D02*
D03*
X262000Y404650D02*
D03*
X394500Y315000D02*
D03*
Y337000D02*
D03*
X398108Y356591D02*
D03*
X409000Y365000D02*
D03*
X344277Y383323D02*
D03*
X374741Y379759D02*
D03*
X331358Y415357D02*
D03*
X174500Y360500D02*
D03*
X251500Y362784D02*
D03*
X281671Y432329D02*
D03*
X330968Y425000D02*
D03*
X343500Y409000D02*
D03*
X264500Y457000D02*
D03*
X180367Y351817D02*
D03*
X175000Y354500D02*
D03*
X258000Y355500D02*
D03*
X194500Y335000D02*
D03*
X188500Y349969D02*
D03*
X431000Y348000D02*
D03*
X399500Y267000D02*
D03*
X324500Y329500D02*
D03*
X182000Y302000D02*
D03*
X175000Y302500D02*
D03*
D63*
X314087Y440500D02*
D03*
X324914D02*
D03*
X361913Y424500D02*
D03*
X351086D02*
D03*
X215087Y418000D02*
D03*
X225914D02*
D03*
M02*
