G04*
G04 #@! TF.GenerationSoftware,Altium Limited,Altium Designer,23.6.0 (18)*
G04*
G04 Layer_Color=32896*
%FSLAX25Y25*%
%MOIN*%
G70*
G04*
G04 #@! TF.SameCoordinates,D5263B71-C0EA-4B60-9871-AA0EAEE7EF9D*
G04*
G04*
G04 #@! TF.FilePolarity,Positive*
G04*
G01*
G75*
%ADD10C,0.01181*%
%ADD13C,0.01968*%
%ADD14C,0.01000*%
%ADD16C,0.00500*%
%ADD17C,0.00394*%
D10*
X243446Y328712D02*
G03*
X242501Y327610I79J-1024D01*
G01*
X242501Y319736D02*
G03*
X243446Y318633I1024J-79D01*
G01*
X321556D02*
G03*
X322501Y319736I-79J1024D01*
G01*
X322501Y327610D02*
G03*
X321556Y328712I-1024J79D01*
G01*
X242500Y380563D02*
G03*
X243445Y379461I1024J-79D01*
G01*
Y389539D02*
G03*
X242500Y388437I79J-1024D01*
G01*
X322500D02*
G03*
X321555Y389539I-1024J79D01*
G01*
Y379461D02*
G03*
X322500Y380563I-79J1024D01*
G01*
X261501Y328673D02*
X262501Y327673D01*
X263501Y328673D01*
X271501D02*
X272501Y327673D01*
X251501Y328673D02*
X252501Y327673D01*
X253501Y328673D01*
X303501Y318633D02*
Y318673D01*
X313540Y318633D02*
X321556D01*
X313501D02*
Y318673D01*
X313540Y318633D01*
X303501D02*
X311501D01*
X301501Y328673D02*
X302501Y327673D01*
X303501Y328673D01*
X262501Y319673D02*
X263501Y318673D01*
X242501Y319736D02*
Y327610D01*
X281501Y328673D02*
X282501Y327673D01*
X283501Y328673D01*
X291501D02*
X292501Y327673D01*
X293501Y328673D01*
X272501Y327673D02*
X273501Y328673D01*
X261501Y318673D02*
X262501Y319673D01*
X263501Y318633D02*
Y318673D01*
Y318633D02*
X271501D01*
X273501Y318673D02*
X273540Y318633D01*
X271501D02*
X272501Y319633D01*
Y319673D01*
X273501Y318673D01*
Y318633D02*
Y318673D01*
X243501Y318633D02*
X251501D01*
X253501Y318673D02*
X253540Y318633D01*
X261556D01*
X251501D02*
X252501Y319633D01*
Y319673D01*
X253501Y318673D01*
Y318633D02*
Y318673D01*
X302501Y319673D02*
X303501Y318673D01*
X283501Y318633D02*
X291501D01*
X301501Y318673D02*
X302501Y319673D01*
X281501Y318673D02*
X282501Y319673D01*
X283501Y318673D01*
Y318633D02*
Y318673D01*
X293501D02*
X293540Y318633D01*
X301556D01*
X291501D02*
X292501Y319633D01*
Y319673D01*
X293501Y318673D01*
Y318633D02*
Y318673D01*
X273540Y318633D02*
X281556D01*
X322501Y319736D02*
Y327610D01*
X312501Y319633D02*
Y327673D01*
X313501Y328673D01*
X311501D02*
X312501Y327673D01*
Y319673D02*
X313501Y318673D01*
X312501Y319633D02*
Y319673D01*
X311501Y318633D02*
X312501Y319633D01*
X253501Y328712D02*
X261556D01*
X243501D02*
X251501D01*
X273501D02*
X281556D01*
X263501D02*
X271501D01*
X263501Y328673D02*
Y328712D01*
X293501D02*
X301556D01*
X283501D02*
X291501D01*
X283501Y328673D02*
Y328712D01*
X303501Y328673D02*
Y328712D01*
X311501D01*
X313501D02*
X321556D01*
X242500Y380563D02*
Y388437D01*
X253500Y379461D02*
Y379500D01*
X252500Y380500D02*
X253500Y379500D01*
X252500Y380461D02*
Y380500D01*
X251500Y379461D02*
X252500Y380461D01*
X253539Y379461D02*
X261555D01*
X253500Y379500D02*
X253539Y379461D01*
X243500D02*
X251500D01*
X273500D02*
Y379500D01*
X272500Y380500D02*
X273500Y379500D01*
X272500Y380461D02*
Y380500D01*
X271500Y379461D02*
X272500Y380461D01*
X273539Y379461D02*
X281555D01*
X273500Y379500D02*
X273539Y379461D01*
X263500D02*
X271500D01*
X263500D02*
Y379500D01*
X262500Y380500D02*
X263500Y379500D01*
X261500D02*
X262500Y380500D01*
X293500Y379461D02*
Y379500D01*
X292500Y380500D02*
X293500Y379500D01*
X292500Y380461D02*
Y380500D01*
X291500Y379461D02*
X292500Y380461D01*
X293539Y379461D02*
X301555D01*
X293500Y379500D02*
X293539Y379461D01*
X283500D02*
X291500D01*
X283500D02*
Y379500D01*
X282500Y380500D02*
X283500Y379500D01*
X281500D02*
X282500Y380500D01*
X252500Y388500D02*
X253500Y389500D01*
X251500D02*
X252500Y388500D01*
X253500Y389539D02*
X261555D01*
X243500D02*
X251500D01*
X272500Y388500D02*
X273500Y389500D01*
X271500D02*
X272500Y388500D01*
X273500Y389539D02*
X281555D01*
X262500Y388500D02*
X263500Y389500D01*
X261500D02*
X262500Y388500D01*
X263500Y389539D02*
X271500D01*
X263500Y389500D02*
Y389539D01*
X292500Y388500D02*
X293500Y389500D01*
X291500D02*
X292500Y388500D01*
X293500Y389539D02*
X301555D01*
X282500Y388500D02*
X283500Y389500D01*
X281500D02*
X282500Y388500D01*
X283500Y389539D02*
X291500D01*
X283500Y389500D02*
Y389539D01*
X301500Y379500D02*
X302500Y380500D01*
X303500Y379500D01*
Y379461D02*
Y379500D01*
Y379461D02*
X311500D01*
X313500Y379500D02*
X313539Y379461D01*
X321555D01*
X303500Y389500D02*
Y389539D01*
X311500D01*
X301500Y389500D02*
X302500Y388500D01*
X303500Y389500D01*
X313500Y389539D02*
X321555D01*
X311500Y379461D02*
X312500Y380461D01*
Y380500D01*
X313500Y379500D01*
Y379461D02*
Y379500D01*
X311500Y389500D02*
X312500Y388500D01*
X313500Y389500D01*
X322500Y380563D02*
Y388437D01*
X312500Y380461D02*
Y388500D01*
X328476Y436012D02*
Y445028D01*
X310563Y436012D02*
X328476D01*
X310563Y445028D02*
X328476D01*
X310563Y436012D02*
Y445028D01*
X347524Y419972D02*
Y428988D01*
X365437D01*
X347524Y419972D02*
X365437D01*
Y428988D01*
X229476Y413512D02*
Y422528D01*
X211563Y413512D02*
X229476D01*
X211563Y422528D02*
X229476D01*
X211563Y413512D02*
Y422528D01*
D13*
X240518Y392544D02*
X325808Y392109D01*
X239982Y315190D02*
X325156Y314756D01*
X325413Y314815D02*
X325808Y392109D01*
X240124Y315307D02*
X240518Y392544D01*
D14*
X425301Y353398D02*
X427301D01*
X426301D01*
Y348400D01*
X427301Y347400D01*
X428300D01*
X429300Y348400D01*
X419303Y347400D02*
X423302D01*
X419303Y351399D01*
Y352398D01*
X420303Y353398D01*
X422302D01*
X423302Y352398D01*
X325800Y403898D02*
X321801D01*
X323801D01*
Y397900D01*
X319802Y403898D02*
Y397900D01*
X316803D01*
X315803Y398900D01*
Y399899D01*
X316803Y400899D01*
X319802D01*
X316803D01*
X315803Y401899D01*
Y402898D01*
X316803Y403898D01*
X319802D01*
X313804Y397900D02*
X311805D01*
X312804D01*
Y403898D01*
X313804Y402898D01*
X388901Y428398D02*
X390901D01*
X389901D01*
Y423400D01*
X390901Y422400D01*
X391900D01*
X392900Y423400D01*
X382903Y428398D02*
X384903Y427398D01*
X386902Y425399D01*
Y423400D01*
X385902Y422400D01*
X383903D01*
X382903Y423400D01*
Y424399D01*
X383903Y425399D01*
X386902D01*
X456501Y327398D02*
X458501D01*
X457501D01*
Y322400D01*
X458501Y321400D01*
X459500D01*
X460500Y322400D01*
X451503Y321400D02*
Y327398D01*
X454502Y324399D01*
X450503D01*
X299601Y472898D02*
X301601D01*
X300601D01*
Y467900D01*
X301601Y466900D01*
X302600D01*
X303600Y467900D01*
X293603Y472898D02*
X297602D01*
Y469899D01*
X295603Y470899D01*
X294603D01*
X293603Y469899D01*
Y467900D01*
X294603Y466900D01*
X296602D01*
X297602Y467900D01*
X159101Y355398D02*
X161101D01*
X160101D01*
Y350400D01*
X161101Y349400D01*
X162100D01*
X163100Y350400D01*
X157102Y354398D02*
X156102Y355398D01*
X154103D01*
X153103Y354398D01*
Y353399D01*
X154103Y352399D01*
X155103D01*
X154103D01*
X153103Y351399D01*
Y350400D01*
X154103Y349400D01*
X156102D01*
X157102Y350400D01*
X167501Y324398D02*
X169501D01*
X168501D01*
Y319400D01*
X169501Y318400D01*
X170500D01*
X171500Y319400D01*
X165502Y318400D02*
X163503D01*
X164502D01*
Y324398D01*
X165502Y323398D01*
X183901Y425598D02*
X185901D01*
X184901D01*
Y420600D01*
X185901Y419600D01*
X186900D01*
X187900Y420600D01*
X181902Y425598D02*
X177903D01*
Y424598D01*
X181902Y420600D01*
Y419600D01*
D16*
X448567Y320681D02*
Y343319D01*
X419433D02*
X448567D01*
X419433Y320681D02*
Y343319D01*
Y320681D02*
X448567D01*
X133933Y322681D02*
X163067D01*
X133933D02*
Y345319D01*
X163067D01*
Y322681D02*
Y345319D01*
X165181Y376512D02*
Y415488D01*
Y376512D02*
X187819D01*
Y415488D01*
X165181D02*
X187819D01*
X303488Y440181D02*
Y462819D01*
X264512Y440181D02*
X303488D01*
X264512D02*
Y462819D01*
X303488D01*
X392819Y376512D02*
Y415488D01*
X370181D02*
X392819D01*
X370181Y376512D02*
Y415488D01*
Y376512D02*
X392819D01*
X122591Y291681D02*
Y314319D01*
X171409D01*
Y291681D02*
Y314319D01*
X122591Y291681D02*
X171409D01*
X411590Y294681D02*
X460409D01*
Y317319D01*
X411590D02*
X460409D01*
X411590Y294681D02*
Y317319D01*
D17*
X318327Y375445D02*
X317671D01*
X317999D01*
Y377413D01*
X318327Y377085D01*
X247067D02*
X246739Y377413D01*
X246083D01*
X245755Y377085D01*
Y376757D01*
X246083Y376429D01*
X245755Y376101D01*
Y375773D01*
X246083Y375445D01*
X246739D01*
X247067Y375773D01*
Y376101D01*
X246739Y376429D01*
X247067Y376757D01*
Y377085D01*
X246739Y376429D02*
X246083D01*
X318327Y332466D02*
X317999Y332138D01*
X317343D01*
X317015Y332466D01*
Y333778D01*
X317343Y334106D01*
X317999D01*
X318327Y333778D01*
Y333450D01*
X317999Y333122D01*
X317015D01*
X248248Y332925D02*
X247592D01*
X247920D01*
Y334893D01*
X248248Y334565D01*
X245296Y334893D02*
X245952Y334565D01*
X246608Y333909D01*
Y333253D01*
X246280Y332925D01*
X245624D01*
X245296Y333253D01*
Y333581D01*
X245624Y333909D01*
X246608D01*
M02*
