G04*
G04 #@! TF.GenerationSoftware,Altium Limited,Altium Designer,23.6.0 (18)*
G04*
G04 Layer_Color=255*
%FSLAX44Y44*%
%MOMM*%
G71*
G04*
G04 #@! TF.SameCoordinates,D83645A9-EAB1-4845-A107-50581717B435*
G04*
G04*
G04 #@! TF.FilePolarity,Positive*
G04*
G01*
G75*
%ADD42R,1.7780X2.5400*%
%ADD43O,1.7780X2.5400*%
%ADD44C,1.6000*%
%ADD45C,1.5080*%
%ADD46R,1.5080X1.5080*%
%ADD47C,1.9050*%
%ADD48O,2.5400X1.7780*%
%ADD49R,2.5400X1.7780*%
%ADD50O,1.6510X2.5400*%
%ADD51R,1.6510X2.5400*%
%ADD52C,2.0000*%
%ADD53C,3.2000*%
%ADD54C,2.4000*%
%ADD55C,1.3000*%
%ADD56R,1.5080X1.5080*%
%ADD57R,1.5750X1.5750*%
%ADD58C,1.5750*%
%ADD59O,2.0000X2.0000*%
G04:AMPARAMS|DCode=61|XSize=1.25mm|YSize=1.75mm|CornerRadius=0.0625mm|HoleSize=0mm|Usage=FLASHONLY|Rotation=90.000|XOffset=0mm|YOffset=0mm|HoleType=Round|Shape=RoundedRectangle|*
%AMROUNDEDRECTD61*
21,1,1.2500,1.6250,0,0,90.0*
21,1,1.1250,1.7500,0,0,90.0*
1,1,0.1250,0.8125,0.5625*
1,1,0.1250,0.8125,-0.5625*
1,1,0.1250,-0.8125,-0.5625*
1,1,0.1250,-0.8125,0.5625*
%
%ADD61ROUNDEDRECTD61*%
G04:AMPARAMS|DCode=62|XSize=1.25mm|YSize=1.75mm|CornerRadius=0.0625mm|HoleSize=0mm|Usage=FLASHONLY|Rotation=180.000|XOffset=0mm|YOffset=0mm|HoleType=Round|Shape=RoundedRectangle|*
%AMROUNDEDRECTD62*
21,1,1.2500,1.6250,0,0,180.0*
21,1,1.1250,1.7500,0,0,180.0*
1,1,0.1250,-0.5625,0.8125*
1,1,0.1250,0.5625,0.8125*
1,1,0.1250,0.5625,-0.8125*
1,1,0.1250,-0.5625,-0.8125*
%
%ADD62ROUNDEDRECTD62*%
D42*
X918210Y1040130D02*
D03*
X494030Y980440D02*
D03*
Y1035050D02*
D03*
X918210Y985520D02*
D03*
D43*
X892810Y1040130D02*
D03*
X519430Y980440D02*
D03*
Y1035050D02*
D03*
X892810Y985520D02*
D03*
D44*
X389890Y901700D02*
D03*
X364490D02*
D03*
X390590Y697700D02*
D03*
X365190D02*
D03*
X628652Y822129D02*
D03*
X654053D02*
D03*
X679453D02*
D03*
X704853D02*
D03*
X730253D02*
D03*
X755652D02*
D03*
X781052D02*
D03*
X806452D02*
D03*
X806450Y976630D02*
D03*
X781050D02*
D03*
X755650D02*
D03*
X730250D02*
D03*
X704850D02*
D03*
X679450D02*
D03*
X654050D02*
D03*
X628650D02*
D03*
X850900Y1014730D02*
D03*
Y989330D02*
D03*
X628650Y1005840D02*
D03*
X654050D02*
D03*
X679450D02*
D03*
X704850D02*
D03*
X730250D02*
D03*
X755650D02*
D03*
X781050D02*
D03*
X806450D02*
D03*
X1153290Y728060D02*
D03*
X1178690D02*
D03*
X1039590Y728060D02*
D03*
X1064990D02*
D03*
X1151590Y988060D02*
D03*
X1176990D02*
D03*
X1037590D02*
D03*
X1062990D02*
D03*
X275590Y737080D02*
D03*
Y767080D02*
D03*
Y797080D02*
D03*
D45*
X963760Y1005840D02*
D03*
Y980440D02*
D03*
X373580Y765640D02*
D03*
X423580D02*
D03*
X398580D02*
D03*
X721360Y1141560D02*
D03*
X746760D02*
D03*
X1119940Y778680D02*
D03*
X1069940D02*
D03*
X1094940D02*
D03*
X453560Y1031240D02*
D03*
Y1005840D02*
D03*
D46*
X963760Y1031240D02*
D03*
X453560Y980440D02*
D03*
D47*
X863346Y1122426D02*
D03*
X927862Y1170178D02*
D03*
X927100Y1121410D02*
D03*
X864870Y1170940D02*
D03*
X521970D02*
D03*
X584200Y1121410D02*
D03*
X584962Y1170178D02*
D03*
X520446Y1122426D02*
D03*
D48*
X798830Y1191260D02*
D03*
X642620D02*
D03*
D49*
X798830Y1165860D02*
D03*
X642620D02*
D03*
D50*
X748300Y1181100D02*
D03*
X722900D02*
D03*
X388620Y1074420D02*
D03*
X414020D02*
D03*
X1065530D02*
D03*
X1090930D02*
D03*
D51*
X697500Y1181100D02*
D03*
X363220Y1074420D02*
D03*
X1040130D02*
D03*
D52*
X275590Y707480D02*
D03*
Y826680D02*
D03*
D53*
X1004540Y551160D02*
D03*
Y358160D02*
D03*
X448340Y551160D02*
D03*
Y358160D02*
D03*
D54*
X360440D02*
D03*
X1089440D02*
D03*
Y551160D02*
D03*
X360440D02*
D03*
D55*
X854710Y1099820D02*
D03*
X956310D02*
D03*
X563880D02*
D03*
X462280D02*
D03*
X830580Y1042670D02*
D03*
X728980D02*
D03*
X610870D02*
D03*
X712470D02*
D03*
D56*
X348580Y765640D02*
D03*
X695960Y1141560D02*
D03*
X1144940Y778680D02*
D03*
D57*
X1109780Y839640D02*
D03*
X387150Y845990D02*
D03*
D58*
X1084780Y839640D02*
D03*
X362150Y845990D02*
D03*
D59*
X834771Y874573D02*
D03*
X809371D02*
D03*
X783971D02*
D03*
X758571D02*
D03*
X707771D02*
D03*
X682371D02*
D03*
X656971D02*
D03*
X733171D02*
D03*
X860171D02*
D03*
X961771D02*
D03*
X936371D02*
D03*
X910971D02*
D03*
X987425D02*
D03*
X885571D02*
D03*
X631679Y722427D02*
D03*
X606279D02*
D03*
X682479D02*
D03*
X580880D02*
D03*
X555480D02*
D03*
X530079D02*
D03*
X504679D02*
D03*
X657079D02*
D03*
X707879D02*
D03*
X809480D02*
D03*
X733279D02*
D03*
X758680D02*
D03*
X784080D02*
D03*
X834880D02*
D03*
X860279D02*
D03*
X961880D02*
D03*
X936479D02*
D03*
X911079D02*
D03*
X987280D02*
D03*
X885679D02*
D03*
X631571Y874573D02*
D03*
X529971D02*
D03*
X606171D02*
D03*
X504571D02*
D03*
X555371D02*
D03*
X580771D02*
D03*
D61*
X430530Y837980D02*
D03*
Y810480D02*
D03*
X458470Y836710D02*
D03*
Y809210D02*
D03*
X860848Y773210D02*
D03*
Y745710D02*
D03*
X760730Y694470D02*
D03*
Y666970D02*
D03*
X726440Y773210D02*
D03*
Y745710D02*
D03*
X887730D02*
D03*
Y773210D02*
D03*
X833966Y745710D02*
D03*
Y773210D02*
D03*
X807085Y745710D02*
D03*
Y773210D02*
D03*
X1033780Y881600D02*
D03*
Y909100D02*
D03*
X786130Y666970D02*
D03*
Y694470D02*
D03*
D62*
X1003520Y778510D02*
D03*
X1031020D02*
D03*
X1023840Y817880D02*
D03*
X1051340D02*
D03*
X752060Y842010D02*
D03*
X779560D02*
D03*
X618270Y850900D02*
D03*
X590770D02*
D03*
X1051340Y848360D02*
D03*
X1023840D02*
D03*
X797780Y1118870D02*
D03*
X825280D02*
D03*
X919260Y1078230D02*
D03*
X891760D02*
D03*
X546320Y1061720D02*
D03*
X573820D02*
D03*
M02*
