G04*
G04 #@! TF.GenerationSoftware,Altium Limited,Altium Designer,23.6.0 (18)*
G04*
G04 Layer_Color=128*
%FSLAX25Y25*%
%MOIN*%
G70*
G04*
G04 #@! TF.SameCoordinates,D5263B71-C0EA-4B60-9871-AA0EAEE7EF9D*
G04*
G04*
G04 #@! TF.FilePolarity,Positive*
G04*
G01*
G75*
%ADD16C,0.00500*%
D16*
X150594Y362799D02*
X154532D01*
X152563Y360831D02*
Y364768D01*
X140594Y362799D02*
X144532D01*
X142563Y360831D02*
Y364768D01*
X150413Y271280D02*
X154350D01*
X152382Y269311D02*
Y273248D01*
X140413Y271280D02*
X144350D01*
X142382Y269311D02*
Y273248D01*
X426854Y334067D02*
X430988D01*
X428921Y332000D02*
Y336134D01*
X436854Y334067D02*
X440988D01*
X438921Y332000D02*
Y336134D01*
X151354Y336067D02*
X155488D01*
X153421Y334000D02*
Y338134D01*
X141354Y336067D02*
X145488D01*
X143421Y334000D02*
Y338134D01*
X99500Y345500D02*
X104500D01*
X102000Y343000D02*
Y348000D01*
X139500Y345500D02*
X144500D01*
X142000Y343000D02*
Y348000D01*
X176598Y406000D02*
X180535D01*
X178567Y404032D02*
Y407969D01*
X176598Y386000D02*
X180535D01*
X178567Y384032D02*
Y387968D01*
X176598Y396000D02*
X180535D01*
X178567Y394032D02*
Y397969D01*
X282031Y449433D02*
X285968D01*
X284000Y447465D02*
Y451402D01*
X272031Y449433D02*
X275969D01*
X274000Y447465D02*
Y451402D01*
X292032Y449433D02*
X295969D01*
X294000Y447465D02*
Y451402D01*
X377465Y386000D02*
X381402D01*
X379433Y384032D02*
Y387968D01*
X377465Y406000D02*
X381402D01*
X379433Y404032D02*
Y407969D01*
X377465Y396000D02*
X381402D01*
X379433Y394032D02*
Y397969D01*
X333032Y384500D02*
X336968D01*
X335000Y382531D02*
Y386469D01*
X333032Y404500D02*
X336968D01*
X335000Y402531D02*
Y406468D01*
X333032Y394500D02*
X336968D01*
X335000Y392531D02*
Y396468D01*
X423992Y216992D02*
X433835D01*
X428913Y212071D02*
Y221913D01*
X423992Y141008D02*
X433835D01*
X428913Y136087D02*
Y145929D01*
X170213Y141008D02*
X182811D01*
X176512Y134709D02*
Y147307D01*
X170213Y216992D02*
X182811D01*
X176512Y210693D02*
Y223291D01*
X389189Y141008D02*
X401787D01*
X395488Y134709D02*
Y147307D01*
X389189Y216992D02*
X401787D01*
X395488Y210693D02*
Y223291D01*
X136984Y141008D02*
X146827D01*
X141905Y136087D02*
Y145929D01*
X136984Y216992D02*
X146827D01*
X141905Y212071D02*
Y221913D01*
X150031Y305067D02*
X153969D01*
X152000Y303098D02*
Y307035D01*
X140032Y305067D02*
X143968D01*
X142000Y303098D02*
Y307035D01*
X160031Y305067D02*
X163969D01*
X162000Y303098D02*
Y307035D01*
X130032Y305067D02*
X133968D01*
X132000Y303098D02*
Y307035D01*
X419031Y308067D02*
X422968D01*
X421000Y306098D02*
Y310035D01*
X449031Y308067D02*
X452969D01*
X451000Y306098D02*
Y310035D01*
X429032Y308067D02*
X432969D01*
X431000Y306098D02*
Y310035D01*
X439032Y308067D02*
X442969D01*
X441000Y306098D02*
Y310035D01*
X106957Y278535D02*
X114043D01*
X110500Y274992D02*
Y282079D01*
X462083Y286638D02*
X466020D01*
X464051Y284669D02*
Y288606D01*
X452083Y286638D02*
X456020D01*
X454051Y284669D02*
Y288606D01*
X108531Y290189D02*
X112469D01*
X110500Y288221D02*
Y292158D01*
X417319Y286638D02*
X421256D01*
X419287Y284669D02*
Y288606D01*
X407319Y286638D02*
X411256D01*
X409287Y284669D02*
Y288606D01*
X108531Y302000D02*
X112469D01*
X110500Y300031D02*
Y303969D01*
X359900Y409500D02*
X363100D01*
X361500Y407900D02*
Y411100D01*
X349900Y409500D02*
X353100D01*
X351500Y407900D02*
Y411100D01*
X245532Y323673D02*
X249469D01*
X247501Y321704D02*
Y325641D01*
X255533Y323673D02*
X259470D01*
X257501Y321704D02*
Y325641D01*
X265532Y323673D02*
X269469D01*
X267501Y321704D02*
Y325641D01*
X275533Y323673D02*
X279469D01*
X277501Y321704D02*
Y325641D01*
X285532Y323673D02*
X289470D01*
X287501Y321704D02*
Y325641D01*
X295532Y323673D02*
X299469D01*
X297501Y321704D02*
Y325641D01*
X305533Y323673D02*
X309470D01*
X307501Y321704D02*
Y325641D01*
X315532Y323673D02*
X319469D01*
X317501Y321704D02*
Y325641D01*
X315531Y384500D02*
X319468D01*
X317500Y382531D02*
Y386469D01*
X305532Y384500D02*
X309469D01*
X307500Y382531D02*
Y386469D01*
X295532Y384500D02*
X299468D01*
X297500Y382531D02*
Y386469D01*
X285531Y384500D02*
X289469D01*
X287500Y382531D02*
Y386469D01*
X275532Y384500D02*
X279468D01*
X277500Y382531D02*
Y386469D01*
X265531Y384500D02*
X269468D01*
X267500Y382531D02*
Y386469D01*
X255532Y384500D02*
X259469D01*
X257500Y382531D02*
Y386469D01*
X245532Y384500D02*
X249468D01*
X247500Y382531D02*
Y386469D01*
X202900Y386000D02*
X206100D01*
X204500Y384400D02*
Y387600D01*
X192900Y386000D02*
X196100D01*
X194500Y384400D02*
Y387600D01*
X202900Y407500D02*
X206100D01*
X204500Y405900D02*
Y409100D01*
X192900Y407500D02*
X196100D01*
X194500Y405900D02*
Y409100D01*
X338350Y441900D02*
X341450D01*
X339900Y440350D02*
Y443450D01*
X363750Y460700D02*
X366850D01*
X365300Y459150D02*
Y462250D01*
X363450Y441500D02*
X366550D01*
X365000Y439950D02*
Y443050D01*
X338950Y461000D02*
X342050D01*
X340500Y459450D02*
Y462550D01*
X203950Y461000D02*
X207050D01*
X205500Y459450D02*
Y462550D01*
X228450Y441500D02*
X231550D01*
X230000Y439950D02*
Y443050D01*
X228750Y460700D02*
X231850D01*
X230300Y459150D02*
Y462250D01*
X203350Y441900D02*
X206450D01*
X204900Y440350D02*
Y443450D01*
X312900Y469000D02*
X316100D01*
X314500Y467400D02*
Y470600D01*
X312900Y459000D02*
X316100D01*
X314500Y457400D02*
Y460600D01*
X359900Y388000D02*
X363100D01*
X361500Y386400D02*
Y389600D01*
X349900Y388000D02*
X353100D01*
X351500Y386400D02*
Y389600D01*
X293006Y465000D02*
X296206D01*
X294606Y463400D02*
Y466600D01*
X273006Y465000D02*
X276206D01*
X274606Y463400D02*
Y466600D01*
X283006Y465000D02*
X286206D01*
X284606Y463400D02*
Y466600D01*
X251400Y469000D02*
X254600D01*
X253000Y467400D02*
Y470600D01*
X251400Y459000D02*
X254600D01*
X253000Y457400D02*
Y460600D01*
X245532Y396000D02*
X249468D01*
X247500Y394032D02*
Y397969D01*
X255532Y396000D02*
X259469D01*
X257500Y394032D02*
Y397969D01*
X265531Y396000D02*
X269468D01*
X267500Y394032D02*
Y397969D01*
X275532Y396000D02*
X279468D01*
X277500Y394032D02*
Y397969D01*
X285531Y396000D02*
X289469D01*
X287500Y394032D02*
Y397969D01*
X295532Y396000D02*
X299468D01*
X297500Y394032D02*
Y397969D01*
X305532Y396000D02*
X309469D01*
X307500Y394032D02*
Y397969D01*
X315531Y396000D02*
X319468D01*
X317500Y394032D02*
Y397969D01*
X451413Y389000D02*
X455350D01*
X453382Y387032D02*
Y390968D01*
X461413Y389000D02*
X465350D01*
X463382Y387032D02*
Y390968D01*
X406531Y389000D02*
X410468D01*
X408500Y387032D02*
Y390968D01*
X416532Y389000D02*
X420469D01*
X418500Y387032D02*
Y390968D01*
X108531Y313811D02*
X112469D01*
X110500Y311842D02*
Y315779D01*
X106957Y325465D02*
X114043D01*
X110500Y321921D02*
Y329008D01*
X151400Y423000D02*
X154600D01*
X153000Y421400D02*
Y424600D01*
X141400Y423000D02*
X144600D01*
X143000Y421400D02*
Y424600D01*
X161400Y423000D02*
X164600D01*
X163000Y421400D02*
Y424600D01*
X417900Y423000D02*
X421100D01*
X419500Y421400D02*
Y424600D01*
X407900Y423000D02*
X411100D01*
X409500Y421400D02*
Y424600D01*
X427900Y423000D02*
X431100D01*
X429500Y421400D02*
Y424600D01*
X104842Y256248D02*
X116654D01*
X110748Y250342D02*
Y262154D01*
X104842Y366984D02*
X116654D01*
X110748Y361079D02*
Y372890D01*
X451299Y366984D02*
X463110D01*
X457205Y361079D02*
Y372890D01*
X451299Y256248D02*
X463110D01*
X457205Y250342D02*
Y262154D01*
X334925Y433000D02*
X338075D01*
X336500Y431425D02*
Y434575D01*
X374925Y433000D02*
X378075D01*
X376500Y431425D02*
Y434575D01*
X220425Y433000D02*
X223575D01*
X222000Y431425D02*
Y434575D01*
X180425Y433000D02*
X183575D01*
X182000Y431425D02*
Y434575D01*
X325425Y410500D02*
X328575D01*
X327000Y408925D02*
Y412075D01*
X285425Y410500D02*
X288575D01*
X287000Y408925D02*
Y412075D01*
X238925Y410500D02*
X242075D01*
X240500Y408925D02*
Y412075D01*
X278925Y410500D02*
X282075D01*
X280500Y408925D02*
Y412075D01*
X326681Y344320D02*
X330619D01*
X328650Y342352D02*
Y346288D01*
X316682Y344320D02*
X320619D01*
X318650Y342352D02*
Y346288D01*
X306681Y344320D02*
X310618D01*
X308650Y342352D02*
Y346288D01*
X296681Y344320D02*
X300619D01*
X298650Y342352D02*
Y346288D01*
X276681Y344320D02*
X280619D01*
X278650Y342352D02*
Y346288D01*
X266682Y344320D02*
X270619D01*
X268650Y342352D02*
Y346288D01*
X256681Y344320D02*
X260618D01*
X258650Y342352D02*
Y346288D01*
X286682Y344320D02*
X290618D01*
X288650Y342352D02*
Y346288D01*
X336682Y344320D02*
X340618D01*
X338650Y342352D02*
Y346288D01*
X376681Y344320D02*
X380619D01*
X378650Y342352D02*
Y346288D01*
X366682Y344320D02*
X370619D01*
X368650Y342352D02*
Y346288D01*
X356681Y344320D02*
X360618D01*
X358650Y342352D02*
Y346288D01*
X386782Y344320D02*
X390719D01*
X388750Y342352D02*
Y346288D01*
X346681Y344320D02*
X350619D01*
X348650Y342352D02*
Y346288D01*
X246724Y284420D02*
X250661D01*
X248693Y282452D02*
Y286388D01*
X236724Y284420D02*
X240661D01*
X238693Y282452D02*
Y286388D01*
X266724Y284420D02*
X270661D01*
X268693Y282452D02*
Y286388D01*
X226724Y284420D02*
X230661D01*
X228693Y282452D02*
Y286388D01*
X216724Y284420D02*
X220661D01*
X218693Y282452D02*
Y286388D01*
X206724Y284420D02*
X210661D01*
X208693Y282452D02*
Y286388D01*
X196724Y284420D02*
X200661D01*
X198693Y282452D02*
Y286388D01*
X256724Y284420D02*
X260661D01*
X258693Y282452D02*
Y286388D01*
X276724Y284420D02*
X280661D01*
X278693Y282452D02*
Y286388D01*
X316724Y284420D02*
X320661D01*
X318693Y282452D02*
Y286388D01*
X286724Y284420D02*
X290661D01*
X288693Y282452D02*
Y286388D01*
X296724Y284420D02*
X300661D01*
X298693Y282452D02*
Y286388D01*
X306724Y284420D02*
X310661D01*
X308693Y282452D02*
Y286388D01*
X326724Y284420D02*
X330661D01*
X328693Y282452D02*
Y286388D01*
X336724Y284420D02*
X340661D01*
X338693Y282452D02*
Y286388D01*
X376724Y284420D02*
X380661D01*
X378693Y282452D02*
Y286388D01*
X366724Y284420D02*
X370661D01*
X368693Y282452D02*
Y286388D01*
X356724Y284420D02*
X360661D01*
X358693Y282452D02*
Y286388D01*
X386724Y284420D02*
X390661D01*
X388693Y282452D02*
Y286388D01*
X346724Y284420D02*
X350661D01*
X348693Y282452D02*
Y286388D01*
X246681Y344320D02*
X250619D01*
X248650Y342352D02*
Y346288D01*
X206681Y344320D02*
X210618D01*
X208650Y342352D02*
Y346288D01*
X236682Y344320D02*
X240618D01*
X238650Y342352D02*
Y346288D01*
X196681Y344320D02*
X200619D01*
X198650Y342352D02*
Y346288D01*
X216682Y344320D02*
X220619D01*
X218650Y342352D02*
Y346288D01*
X226681Y344320D02*
X230619D01*
X228650Y342352D02*
Y346288D01*
X229600Y326500D02*
X232400D01*
X231000Y325100D02*
Y327900D01*
X417009Y357000D02*
X419809D01*
X418409Y355600D02*
Y358400D01*
X147928Y313672D02*
X150728D01*
X149328Y312272D02*
Y315072D01*
X424575Y250025D02*
X427375D01*
X425975Y248625D02*
Y251425D01*
X389100Y250000D02*
X391900D01*
X390500Y248600D02*
Y251400D01*
X125600Y352880D02*
X128400D01*
X127000Y351480D02*
Y354280D01*
X338600Y332500D02*
X341400D01*
X340000Y331100D02*
Y333900D01*
X247100Y335000D02*
X249900D01*
X248500Y333600D02*
Y336400D01*
X286600Y305000D02*
X289400D01*
X288000Y303600D02*
Y306400D01*
X236938Y426838D02*
X239738D01*
X238338Y425438D02*
Y428238D01*
X275894Y426838D02*
X278694D01*
X277294Y425438D02*
Y428238D01*
X260600Y404650D02*
X263400D01*
X262000Y403250D02*
Y406050D01*
X393100Y315000D02*
X395900D01*
X394500Y313600D02*
Y316400D01*
X393100Y337000D02*
X395900D01*
X394500Y335600D02*
Y338400D01*
X396708Y356591D02*
X399508D01*
X398108Y355190D02*
Y357991D01*
X407600Y365000D02*
X410400D01*
X409000Y363600D02*
Y366400D01*
X342877Y383323D02*
X345677D01*
X344277Y381923D02*
Y384723D01*
X373341Y379759D02*
X376141D01*
X374741Y378359D02*
Y381159D01*
X329958Y415357D02*
X332757D01*
X331358Y413958D02*
Y416757D01*
X173100Y360500D02*
X175900D01*
X174500Y359100D02*
Y361900D01*
X250100Y362784D02*
X252900D01*
X251500Y361384D02*
Y364184D01*
X280271Y432329D02*
X283071D01*
X281671Y430929D02*
Y433729D01*
X329569Y425000D02*
X332368D01*
X330968Y423600D02*
Y426400D01*
X342100Y409000D02*
X344900D01*
X343500Y407600D02*
Y410400D01*
X263100Y457000D02*
X265900D01*
X264500Y455600D02*
Y458400D01*
X178967Y351817D02*
X181767D01*
X180367Y350417D02*
Y353217D01*
X173600Y354500D02*
X176400D01*
X175000Y353100D02*
Y355900D01*
X256600Y355500D02*
X259400D01*
X258000Y354100D02*
Y356900D01*
X193100Y335000D02*
X195900D01*
X194500Y333600D02*
Y336400D01*
X187100Y349969D02*
X189900D01*
X188500Y348569D02*
Y351368D01*
X429600Y348000D02*
X432400D01*
X431000Y346600D02*
Y349400D01*
X398100Y267000D02*
X400900D01*
X399500Y265600D02*
Y268400D01*
X323100Y329500D02*
X325900D01*
X324500Y328100D02*
Y330900D01*
X180600Y302000D02*
X183400D01*
X182000Y300600D02*
Y303400D01*
X173600Y302500D02*
X176400D01*
X175000Y301100D02*
Y303900D01*
M02*
