G04*
G04 #@! TF.GenerationSoftware,Altium Limited,Altium Designer,23.6.0 (18)*
G04*
G04 Layer_Color=2752767*
%FSLAX25Y25*%
%MOIN*%
G70*
G04*
G04 #@! TF.SameCoordinates,D5263B71-C0EA-4B60-9871-AA0EAEE7EF9D*
G04*
G04*
G04 #@! TF.FilePolarity,Positive*
G04*
G01*
G75*
%ADD16C,0.00500*%
%ADD65C,0.00667*%
%ADD66C,0.00400*%
D16*
X428921Y332067D02*
X426921Y336067D01*
X430921D01*
X428921Y332067D01*
X438921D02*
X436921Y336067D01*
X440921D01*
X438921Y332067D01*
X153421Y334067D02*
X151421Y338067D01*
X155421D01*
X153421Y334067D01*
X143421D02*
X141421Y338067D01*
X145421D01*
X143421Y334067D01*
X100000Y343500D02*
Y347500D01*
X104000D01*
Y343500D01*
X100000D01*
X140000D02*
Y347500D01*
X144000D01*
Y343500D01*
X140000D01*
X428913Y214992D02*
X429913Y215992D01*
X430913D01*
X429913Y216992D01*
X430913Y217992D01*
X429913D01*
X428913Y218992D01*
X427913Y217992D01*
X426913D01*
X427913Y216992D01*
X426913Y215992D01*
X427913D01*
X428913Y214992D01*
Y215792D02*
X429513Y216392D01*
X430113D01*
X429513Y216992D01*
X430113Y217592D01*
X429513D01*
X428913Y218192D01*
X428313Y217592D01*
X427713D01*
X428313Y216992D01*
X427713Y216392D01*
X428313D01*
X428913Y215792D01*
Y139008D02*
X429913Y140008D01*
X430913D01*
X429913Y141008D01*
X430913Y142008D01*
X429913D01*
X428913Y143008D01*
X427913Y142008D01*
X426913D01*
X427913Y141008D01*
X426913Y140008D01*
X427913D01*
X428913Y139008D01*
Y139808D02*
X429513Y140408D01*
X430113D01*
X429513Y141008D01*
X430113Y141608D01*
X429513D01*
X428913Y142208D01*
X428313Y141608D01*
X427713D01*
X428313Y141008D01*
X427713Y140408D01*
X428313D01*
X428913Y139808D01*
X175512Y140008D02*
Y139008D01*
X177512D01*
Y140008D01*
X178512D01*
Y142008D01*
X177512D01*
Y143008D01*
X175512D01*
Y142008D01*
X174512D01*
Y140008D01*
X175512D01*
Y215992D02*
Y214992D01*
X177512D01*
Y215992D01*
X178512D01*
Y217992D01*
X177512D01*
Y218992D01*
X175512D01*
Y217992D01*
X174512D01*
Y215992D01*
X175512D01*
X394488Y140008D02*
Y139008D01*
X396488D01*
Y140008D01*
X397488D01*
Y142008D01*
X396488D01*
Y143008D01*
X394488D01*
Y142008D01*
X393488D01*
Y140008D01*
X394488D01*
Y215992D02*
Y214992D01*
X396488D01*
Y215992D01*
X397488D01*
Y217992D01*
X396488D01*
Y218992D01*
X394488D01*
Y217992D01*
X393488D01*
Y215992D01*
X394488D01*
X141905Y139008D02*
X142905Y140008D01*
X143905D01*
X142905Y141008D01*
X143905Y142008D01*
X142905D01*
X141905Y143008D01*
X140905Y142008D01*
X139906D01*
X140905Y141008D01*
X139906Y140008D01*
X140905D01*
X141905Y139008D01*
Y139808D02*
X142506Y140408D01*
X143105D01*
X142506Y141008D01*
X143105Y141608D01*
X142506D01*
X141905Y142208D01*
X141305Y141608D01*
X140706D01*
X141305Y141008D01*
X140706Y140408D01*
X141305D01*
X141905Y139808D01*
Y214992D02*
X142905Y215992D01*
X143905D01*
X142905Y216992D01*
X143905Y217992D01*
X142905D01*
X141905Y218992D01*
X140905Y217992D01*
X139906D01*
X140905Y216992D01*
X139906Y215992D01*
X140905D01*
X141905Y214992D01*
Y215792D02*
X142506Y216392D01*
X143105D01*
X142506Y216992D01*
X143105Y217592D01*
X142506D01*
X141905Y218192D01*
X141305Y217592D01*
X140706D01*
X141305Y216992D01*
X140706Y216392D01*
X141305D01*
X141905Y215792D01*
X108500Y276535D02*
X109500D01*
X110500Y277535D01*
X111500Y276535D01*
X112500D01*
Y277535D01*
X111500Y278535D01*
X112500Y279535D01*
Y280535D01*
X111500D01*
X110500Y279535D01*
X109500Y280535D01*
X108500D01*
Y279535D01*
X109500Y278535D01*
X108500Y277535D01*
Y276535D01*
X359500Y409500D02*
X361500Y411500D01*
X363500Y409500D01*
X361500Y407500D01*
X359500Y409500D01*
X349500D02*
X351500Y411500D01*
X353500Y409500D01*
X351500Y407500D01*
X349500Y409500D01*
X202500Y386000D02*
X204500Y388000D01*
X206500Y386000D01*
X204500Y384000D01*
X202500Y386000D01*
X192500D02*
X194500Y388000D01*
X196500Y386000D01*
X194500Y384000D01*
X192500Y386000D01*
X202500Y407500D02*
X204500Y409500D01*
X206500Y407500D01*
X204500Y405500D01*
X202500Y407500D01*
X192500D02*
X194500Y409500D01*
X196500Y407500D01*
X194500Y405500D01*
X192500Y407500D01*
X339900Y439900D02*
X340900Y440900D01*
X341900D01*
X340900Y441900D01*
X341900Y442900D01*
X340900D01*
X339900Y443900D01*
X338900Y442900D01*
X337900D01*
X338900Y441900D01*
X337900Y440900D01*
X338900D01*
X339900Y439900D01*
X365300Y458700D02*
X366300Y459700D01*
X367300D01*
X366300Y460700D01*
X367300Y461700D01*
X366300D01*
X365300Y462700D01*
X364300Y461700D01*
X363300D01*
X364300Y460700D01*
X363300Y459700D01*
X364300D01*
X365300Y458700D01*
X365000Y439500D02*
X366000Y440500D01*
X367000D01*
X366000Y441500D01*
X367000Y442500D01*
X366000D01*
X365000Y443500D01*
X364000Y442500D01*
X363000D01*
X364000Y441500D01*
X363000Y440500D01*
X364000D01*
X365000Y439500D01*
X340500Y459000D02*
X341500Y460000D01*
X342500D01*
X341500Y461000D01*
X342500Y462000D01*
X341500D01*
X340500Y463000D01*
X339500Y462000D01*
X338500D01*
X339500Y461000D01*
X338500Y460000D01*
X339500D01*
X340500Y459000D01*
X205500D02*
X206500Y460000D01*
X207500D01*
X206500Y461000D01*
X207500Y462000D01*
X206500D01*
X205500Y463000D01*
X204500Y462000D01*
X203500D01*
X204500Y461000D01*
X203500Y460000D01*
X204500D01*
X205500Y459000D01*
X230000Y439500D02*
X231000Y440500D01*
X232000D01*
X231000Y441500D01*
X232000Y442500D01*
X231000D01*
X230000Y443500D01*
X229000Y442500D01*
X228000D01*
X229000Y441500D01*
X228000Y440500D01*
X229000D01*
X230000Y439500D01*
X230300Y458700D02*
X231300Y459700D01*
X232300D01*
X231300Y460700D01*
X232300Y461700D01*
X231300D01*
X230300Y462700D01*
X229300Y461700D01*
X228300D01*
X229300Y460700D01*
X228300Y459700D01*
X229300D01*
X230300Y458700D01*
X204900Y439900D02*
X205900Y440900D01*
X206900D01*
X205900Y441900D01*
X206900Y442900D01*
X205900D01*
X204900Y443900D01*
X203900Y442900D01*
X202900D01*
X203900Y441900D01*
X202900Y440900D01*
X203900D01*
X204900Y439900D01*
X312500Y469000D02*
X314500Y471000D01*
X316500Y469000D01*
X314500Y467000D01*
X312500Y469000D01*
Y459000D02*
X314500Y461000D01*
X316500Y459000D01*
X314500Y457000D01*
X312500Y459000D01*
X359500Y388000D02*
X361500Y390000D01*
X363500Y388000D01*
X361500Y386000D01*
X359500Y388000D01*
X349500D02*
X351500Y390000D01*
X353500Y388000D01*
X351500Y386000D01*
X349500Y388000D01*
X292606Y465000D02*
X294606Y467000D01*
X296606Y465000D01*
X294606Y463000D01*
X292606Y465000D01*
X272606D02*
X274606Y467000D01*
X276606Y465000D01*
X274606Y463000D01*
X272606Y465000D01*
X282606D02*
X284606Y467000D01*
X286606Y465000D01*
X284606Y463000D01*
X282606Y465000D01*
X251000Y469000D02*
X253000Y471000D01*
X255000Y469000D01*
X253000Y467000D01*
X251000Y469000D01*
Y459000D02*
X253000Y461000D01*
X255000Y459000D01*
X253000Y457000D01*
X251000Y459000D01*
X108500Y323465D02*
X109500D01*
X110500Y324465D01*
X111500Y323465D01*
X112500D01*
Y324465D01*
X111500Y325465D01*
X112500Y326465D01*
Y327465D01*
X111500D01*
X110500Y326465D01*
X109500Y327465D01*
X108500D01*
Y326465D01*
X109500Y325465D01*
X108500Y324465D01*
Y323465D01*
X151000Y423000D02*
X153000Y425000D01*
X155000Y423000D01*
X153000Y421000D01*
X151000Y423000D01*
X141000D02*
X143000Y425000D01*
X145000Y423000D01*
X143000Y421000D01*
X141000Y423000D01*
X161000D02*
X163000Y425000D01*
X165000Y423000D01*
X163000Y421000D01*
X161000Y423000D01*
X417500D02*
X419500Y425000D01*
X421500Y423000D01*
X419500Y421000D01*
X417500Y423000D01*
X407500D02*
X409500Y425000D01*
X411500Y423000D01*
X409500Y421000D01*
X407500Y423000D01*
X427500D02*
X429500Y425000D01*
X431500Y423000D01*
X429500Y421000D01*
X427500Y423000D01*
X108748Y254248D02*
Y258248D01*
X112748D01*
Y254248D01*
X108748D01*
X109548Y255048D02*
Y257448D01*
X111948D01*
Y255048D01*
X109548D01*
X108748Y364984D02*
Y368984D01*
X112748D01*
Y364984D01*
X108748D01*
X109548Y365784D02*
Y368184D01*
X111948D01*
Y365784D01*
X109548D01*
X455205Y364984D02*
Y368984D01*
X459205D01*
Y364984D01*
X455205D01*
X456005Y365784D02*
Y368184D01*
X458405D01*
Y365784D01*
X456005D01*
X455205Y254248D02*
Y258248D01*
X459205D01*
Y254248D01*
X455205D01*
X456005Y255048D02*
Y257448D01*
X458405D01*
Y255048D01*
X456005D01*
X334500Y431000D02*
X335500Y433000D01*
X334500Y435000D01*
X336500Y434000D01*
X338500Y435000D01*
X337500Y433000D01*
X338500Y431000D01*
X336500Y432000D01*
X334500Y431000D01*
X374500D02*
X375500Y433000D01*
X374500Y435000D01*
X376500Y434000D01*
X378500Y435000D01*
X377500Y433000D01*
X378500Y431000D01*
X376500Y432000D01*
X374500Y431000D01*
X220000D02*
X221000Y433000D01*
X220000Y435000D01*
X222000Y434000D01*
X224000Y435000D01*
X223000Y433000D01*
X224000Y431000D01*
X222000Y432000D01*
X220000Y431000D01*
X180000D02*
X181000Y433000D01*
X180000Y435000D01*
X182000Y434000D01*
X184000Y435000D01*
X183000Y433000D01*
X184000Y431000D01*
X182000Y432000D01*
X180000Y431000D01*
X325000Y408500D02*
X326000Y410500D01*
X325000Y412500D01*
X327000Y411500D01*
X329000Y412500D01*
X328000Y410500D01*
X329000Y408500D01*
X327000Y409500D01*
X325000Y408500D01*
X285000D02*
X286000Y410500D01*
X285000Y412500D01*
X287000Y411500D01*
X289000Y412500D01*
X288000Y410500D01*
X289000Y408500D01*
X287000Y409500D01*
X285000Y408500D01*
X238500D02*
X239500Y410500D01*
X238500Y412500D01*
X240500Y411500D01*
X242500Y412500D01*
X241500Y410500D01*
X242500Y408500D01*
X240500Y409500D01*
X238500Y408500D01*
X278500D02*
X279500Y410500D01*
X278500Y412500D01*
X280500Y411500D01*
X282500Y412500D01*
X281500Y410500D01*
X282500Y408500D01*
X280500Y409500D01*
X278500Y408500D01*
D65*
X154563Y362799D02*
G03*
X154563Y362799I-2000J0D01*
G01*
X144563D02*
G03*
X144563Y362799I-2000J0D01*
G01*
X154382Y271280D02*
G03*
X154382Y271280I-2000J0D01*
G01*
X144382D02*
G03*
X144382Y271280I-2000J0D01*
G01*
X180567Y406000D02*
G03*
X180567Y406000I-2000J0D01*
G01*
Y386000D02*
G03*
X180567Y386000I-2000J0D01*
G01*
Y396000D02*
G03*
X180567Y396000I-2000J0D01*
G01*
X286000Y449433D02*
G03*
X286000Y449433I-2000J0D01*
G01*
X276000D02*
G03*
X276000Y449433I-2000J0D01*
G01*
X296000D02*
G03*
X296000Y449433I-2000J0D01*
G01*
X381433Y386000D02*
G03*
X381433Y386000I-2000J0D01*
G01*
Y406000D02*
G03*
X381433Y406000I-2000J0D01*
G01*
Y396000D02*
G03*
X381433Y396000I-2000J0D01*
G01*
X337000Y384500D02*
G03*
X337000Y384500I-2000J0D01*
G01*
Y404500D02*
G03*
X337000Y404500I-2000J0D01*
G01*
Y394500D02*
G03*
X337000Y394500I-2000J0D01*
G01*
X154000Y305067D02*
G03*
X154000Y305067I-2000J0D01*
G01*
X144000D02*
G03*
X144000Y305067I-2000J0D01*
G01*
X164000D02*
G03*
X164000Y305067I-2000J0D01*
G01*
X134000D02*
G03*
X134000Y305067I-2000J0D01*
G01*
X423000Y308067D02*
G03*
X423000Y308067I-2000J0D01*
G01*
X453000D02*
G03*
X453000Y308067I-2000J0D01*
G01*
X433000D02*
G03*
X433000Y308067I-2000J0D01*
G01*
X443000D02*
G03*
X443000Y308067I-2000J0D01*
G01*
X466051Y286638D02*
G03*
X466051Y286638I-2000J0D01*
G01*
X456051D02*
G03*
X456051Y286638I-2000J0D01*
G01*
X112500Y290189D02*
G03*
X112500Y290189I-2000J0D01*
G01*
X421287Y286638D02*
G03*
X421287Y286638I-2000J0D01*
G01*
X411287D02*
G03*
X411287Y286638I-2000J0D01*
G01*
X112500Y302000D02*
G03*
X112500Y302000I-2000J0D01*
G01*
X249501Y323673D02*
G03*
X249501Y323673I-2000J0D01*
G01*
X259501D02*
G03*
X259501Y323673I-2000J0D01*
G01*
X269501D02*
G03*
X269501Y323673I-2000J0D01*
G01*
X279501D02*
G03*
X279501Y323673I-2000J0D01*
G01*
X289501D02*
G03*
X289501Y323673I-2000J0D01*
G01*
X299501D02*
G03*
X299501Y323673I-2000J0D01*
G01*
X309501D02*
G03*
X309501Y323673I-2000J0D01*
G01*
X319501D02*
G03*
X319501Y323673I-2000J0D01*
G01*
X319500Y384500D02*
G03*
X319500Y384500I-2000J0D01*
G01*
X309500D02*
G03*
X309500Y384500I-2000J0D01*
G01*
X299500D02*
G03*
X299500Y384500I-2000J0D01*
G01*
X289500D02*
G03*
X289500Y384500I-2000J0D01*
G01*
X279500D02*
G03*
X279500Y384500I-2000J0D01*
G01*
X269500D02*
G03*
X269500Y384500I-2000J0D01*
G01*
X259500D02*
G03*
X259500Y384500I-2000J0D01*
G01*
X249500D02*
G03*
X249500Y384500I-2000J0D01*
G01*
Y396000D02*
G03*
X249500Y396000I-2000J0D01*
G01*
X259500D02*
G03*
X259500Y396000I-2000J0D01*
G01*
X269500D02*
G03*
X269500Y396000I-2000J0D01*
G01*
X279500D02*
G03*
X279500Y396000I-2000J0D01*
G01*
X289500D02*
G03*
X289500Y396000I-2000J0D01*
G01*
X299500D02*
G03*
X299500Y396000I-2000J0D01*
G01*
X309500D02*
G03*
X309500Y396000I-2000J0D01*
G01*
X319500D02*
G03*
X319500Y396000I-2000J0D01*
G01*
X455382Y389000D02*
G03*
X455382Y389000I-2000J0D01*
G01*
X465382D02*
G03*
X465382Y389000I-2000J0D01*
G01*
X410500D02*
G03*
X410500Y389000I-2000J0D01*
G01*
X420500D02*
G03*
X420500Y389000I-2000J0D01*
G01*
X112500Y313811D02*
G03*
X112500Y313811I-2000J0D01*
G01*
X330650Y344320D02*
G03*
X330650Y344320I-2000J0D01*
G01*
X320650D02*
G03*
X320650Y344320I-2000J0D01*
G01*
X310650D02*
G03*
X310650Y344320I-2000J0D01*
G01*
X300650D02*
G03*
X300650Y344320I-2000J0D01*
G01*
X280650D02*
G03*
X280650Y344320I-2000J0D01*
G01*
X270650D02*
G03*
X270650Y344320I-2000J0D01*
G01*
X260650D02*
G03*
X260650Y344320I-2000J0D01*
G01*
X290650D02*
G03*
X290650Y344320I-2000J0D01*
G01*
X340650D02*
G03*
X340650Y344320I-2000J0D01*
G01*
X380650D02*
G03*
X380650Y344320I-2000J0D01*
G01*
X370650D02*
G03*
X370650Y344320I-2000J0D01*
G01*
X360650D02*
G03*
X360650Y344320I-2000J0D01*
G01*
X390750D02*
G03*
X390750Y344320I-2000J0D01*
G01*
X350650D02*
G03*
X350650Y344320I-2000J0D01*
G01*
X250693Y284420D02*
G03*
X250693Y284420I-2000J0D01*
G01*
X240693D02*
G03*
X240693Y284420I-2000J0D01*
G01*
X270693D02*
G03*
X270693Y284420I-2000J0D01*
G01*
X230693D02*
G03*
X230693Y284420I-2000J0D01*
G01*
X220693D02*
G03*
X220693Y284420I-2000J0D01*
G01*
X210693D02*
G03*
X210693Y284420I-2000J0D01*
G01*
X200693D02*
G03*
X200693Y284420I-2000J0D01*
G01*
X260693D02*
G03*
X260693Y284420I-2000J0D01*
G01*
X280693D02*
G03*
X280693Y284420I-2000J0D01*
G01*
X320693D02*
G03*
X320693Y284420I-2000J0D01*
G01*
X290693D02*
G03*
X290693Y284420I-2000J0D01*
G01*
X300693D02*
G03*
X300693Y284420I-2000J0D01*
G01*
X310693D02*
G03*
X310693Y284420I-2000J0D01*
G01*
X330693D02*
G03*
X330693Y284420I-2000J0D01*
G01*
X340693D02*
G03*
X340693Y284420I-2000J0D01*
G01*
X380693D02*
G03*
X380693Y284420I-2000J0D01*
G01*
X370693D02*
G03*
X370693Y284420I-2000J0D01*
G01*
X360693D02*
G03*
X360693Y284420I-2000J0D01*
G01*
X390693D02*
G03*
X390693Y284420I-2000J0D01*
G01*
X350693D02*
G03*
X350693Y284420I-2000J0D01*
G01*
X250650Y344320D02*
G03*
X250650Y344320I-2000J0D01*
G01*
X210650D02*
G03*
X210650Y344320I-2000J0D01*
G01*
X240650D02*
G03*
X240650Y344320I-2000J0D01*
G01*
X200650D02*
G03*
X200650Y344320I-2000J0D01*
G01*
X220650D02*
G03*
X220650Y344320I-2000J0D01*
G01*
X230650D02*
G03*
X230650Y344320I-2000J0D01*
G01*
X233000Y326500D02*
G03*
X233000Y326500I-2000J0D01*
G01*
X420409Y357000D02*
G03*
X420409Y357000I-2000J0D01*
G01*
X151328Y313672D02*
G03*
X151328Y313672I-2000J0D01*
G01*
X427975Y250025D02*
G03*
X427975Y250025I-2000J0D01*
G01*
X392500Y250000D02*
G03*
X392500Y250000I-2000J0D01*
G01*
X129000Y352880D02*
G03*
X129000Y352880I-2000J0D01*
G01*
X342000Y332500D02*
G03*
X342000Y332500I-2000J0D01*
G01*
X250500Y335000D02*
G03*
X250500Y335000I-2000J0D01*
G01*
X290000Y305000D02*
G03*
X290000Y305000I-2000J0D01*
G01*
X240338Y426838D02*
G03*
X240338Y426838I-2000J0D01*
G01*
X279294D02*
G03*
X279294Y426838I-2000J0D01*
G01*
X264000Y404650D02*
G03*
X264000Y404650I-2000J0D01*
G01*
X396500Y315000D02*
G03*
X396500Y315000I-2000J0D01*
G01*
Y337000D02*
G03*
X396500Y337000I-2000J0D01*
G01*
X400108Y356591D02*
G03*
X400108Y356591I-2000J0D01*
G01*
X411000Y365000D02*
G03*
X411000Y365000I-2000J0D01*
G01*
X346277Y383323D02*
G03*
X346277Y383323I-2000J0D01*
G01*
X376741Y379759D02*
G03*
X376741Y379759I-2000J0D01*
G01*
X333358Y415357D02*
G03*
X333358Y415357I-2000J0D01*
G01*
X176500Y360500D02*
G03*
X176500Y360500I-2000J0D01*
G01*
X253500Y362784D02*
G03*
X253500Y362784I-2000J0D01*
G01*
X283671Y432329D02*
G03*
X283671Y432329I-2000J0D01*
G01*
X332968Y425000D02*
G03*
X332968Y425000I-2000J0D01*
G01*
X345500Y409000D02*
G03*
X345500Y409000I-2000J0D01*
G01*
X266500Y457000D02*
G03*
X266500Y457000I-2000J0D01*
G01*
X182367Y351817D02*
G03*
X182367Y351817I-2000J0D01*
G01*
X177000Y354500D02*
G03*
X177000Y354500I-2000J0D01*
G01*
X260000Y355500D02*
G03*
X260000Y355500I-2000J0D01*
G01*
X196500Y335000D02*
G03*
X196500Y335000I-2000J0D01*
G01*
X190500Y349969D02*
G03*
X190500Y349969I-2000J0D01*
G01*
X433000Y348000D02*
G03*
X433000Y348000I-2000J0D01*
G01*
X401500Y267000D02*
G03*
X401500Y267000I-2000J0D01*
G01*
X326500Y329500D02*
G03*
X326500Y329500I-2000J0D01*
G01*
X184000Y302000D02*
G03*
X184000Y302000I-2000J0D01*
G01*
X177000Y302500D02*
G03*
X177000Y302500I-2000J0D01*
G01*
D66*
X232200Y326500D02*
G03*
X232200Y326500I-1200J0D01*
G01*
X419609Y357000D02*
G03*
X419609Y357000I-1200J0D01*
G01*
X150528Y313672D02*
G03*
X150528Y313672I-1200J0D01*
G01*
X427175Y250025D02*
G03*
X427175Y250025I-1200J0D01*
G01*
X391700Y250000D02*
G03*
X391700Y250000I-1200J0D01*
G01*
X128200Y352880D02*
G03*
X128200Y352880I-1200J0D01*
G01*
X341200Y332500D02*
G03*
X341200Y332500I-1200J0D01*
G01*
X249700Y335000D02*
G03*
X249700Y335000I-1200J0D01*
G01*
X289200Y305000D02*
G03*
X289200Y305000I-1200J0D01*
G01*
X239538Y426838D02*
G03*
X239538Y426838I-1200J0D01*
G01*
X278494D02*
G03*
X278494Y426838I-1200J0D01*
G01*
X263200Y404650D02*
G03*
X263200Y404650I-1200J0D01*
G01*
X395700Y315000D02*
G03*
X395700Y315000I-1200J0D01*
G01*
Y337000D02*
G03*
X395700Y337000I-1200J0D01*
G01*
X399308Y356591D02*
G03*
X399308Y356591I-1200J0D01*
G01*
X410200Y365000D02*
G03*
X410200Y365000I-1200J0D01*
G01*
X345477Y383323D02*
G03*
X345477Y383323I-1200J0D01*
G01*
X375941Y379759D02*
G03*
X375941Y379759I-1200J0D01*
G01*
X332558Y415357D02*
G03*
X332558Y415357I-1200J0D01*
G01*
X175700Y360500D02*
G03*
X175700Y360500I-1200J0D01*
G01*
X252700Y362784D02*
G03*
X252700Y362784I-1200J0D01*
G01*
X282871Y432329D02*
G03*
X282871Y432329I-1200J0D01*
G01*
X332169Y425000D02*
G03*
X332169Y425000I-1200J0D01*
G01*
X344700Y409000D02*
G03*
X344700Y409000I-1200J0D01*
G01*
X265700Y457000D02*
G03*
X265700Y457000I-1200J0D01*
G01*
X181567Y351817D02*
G03*
X181567Y351817I-1200J0D01*
G01*
X176200Y354500D02*
G03*
X176200Y354500I-1200J0D01*
G01*
X259200Y355500D02*
G03*
X259200Y355500I-1200J0D01*
G01*
X195700Y335000D02*
G03*
X195700Y335000I-1200J0D01*
G01*
X189700Y349969D02*
G03*
X189700Y349969I-1200J0D01*
G01*
X432200Y348000D02*
G03*
X432200Y348000I-1200J0D01*
G01*
X400700Y267000D02*
G03*
X400700Y267000I-1200J0D01*
G01*
X325700Y329500D02*
G03*
X325700Y329500I-1200J0D01*
G01*
X183200Y302000D02*
G03*
X183200Y302000I-1200J0D01*
G01*
X176200Y302500D02*
G03*
X176200Y302500I-1200J0D01*
G01*
M02*
