G04*
G04 #@! TF.GenerationSoftware,Altium Limited,Altium Designer,23.6.0 (18)*
G04*
G04 Layer_Color=32768*
%FSLAX25Y25*%
%MOIN*%
G70*
G04*
G04 #@! TF.SameCoordinates,D5263B71-C0EA-4B60-9871-AA0EAEE7EF9D*
G04*
G04*
G04 #@! TF.FilePolarity,Positive*
G04*
G01*
G75*
%ADD17C,0.00394*%
%ADD64C,0.00197*%
D17*
X109248Y256248D02*
X112248D01*
X110748Y254748D02*
Y257748D01*
X109248Y366984D02*
X112248D01*
X110748Y365484D02*
Y368484D01*
X455705Y366984D02*
X458705D01*
X457205Y365484D02*
Y368484D01*
X455705Y256248D02*
X458705D01*
X457205Y254748D02*
Y257748D01*
D64*
X418449Y319697D02*
Y344303D01*
X449551D01*
Y319697D02*
Y344303D01*
X418449Y319697D02*
X449551D01*
X132949Y321697D02*
X164051D01*
Y346303D01*
X132949D02*
X164051D01*
X132949Y321697D02*
Y346303D01*
X164197Y375528D02*
Y416472D01*
Y375528D02*
X188803D01*
Y416472D01*
X164197D02*
X188803D01*
X304472Y439197D02*
Y463803D01*
X263528Y439197D02*
X304472D01*
X263528D02*
Y463803D01*
X304472D01*
X393803Y375528D02*
Y416472D01*
X369197D02*
X393803D01*
X369197Y375528D02*
Y416472D01*
Y375528D02*
X393803D01*
X132063Y259138D02*
X439937D01*
Y98862D02*
Y259138D01*
X132063Y98862D02*
X439937D01*
X132063D02*
Y259138D01*
X121606Y290697D02*
Y315303D01*
X172394D01*
Y290697D02*
Y315303D01*
X121606Y290697D02*
X172394D01*
X410606Y293697D02*
X461394D01*
Y318303D01*
X410606D02*
X461394D01*
X410606Y293697D02*
Y318303D01*
M02*
