G04*
G04 #@! TF.GenerationSoftware,Altium Limited,Altium Designer,23.6.0 (18)*
G04*
G04 Layer_Color=255*
%FSLAX25Y25*%
%MOIN*%
G70*
G04*
G04 #@! TF.SameCoordinates,D5263B71-C0EA-4B60-9871-AA0EAEE7EF9D*
G04*
G04*
G04 #@! TF.FilePolarity,Positive*
G04*
G01*
G75*
%ADD41C,0.06299*%
%ADD42C,0.06201*%
%ADD43R,0.06201X0.06201*%
%ADD44C,0.08000*%
%ADD45C,0.05937*%
%ADD46R,0.05937X0.05937*%
%ADD47R,0.05937X0.05937*%
%ADD48C,0.13780*%
%ADD49C,0.12598*%
%ADD50C,0.07874*%
%ADD51R,0.07000X0.10000*%
%ADD52O,0.07000X0.10000*%
%ADD53C,0.07500*%
%ADD54O,0.10000X0.07000*%
%ADD55R,0.10000X0.07000*%
%ADD56O,0.06500X0.10000*%
%ADD57R,0.06500X0.10000*%
%ADD58C,0.05118*%
%ADD59O,0.07874X0.07874*%
D41*
X152563Y362799D02*
D03*
X142563D02*
D03*
X152382Y271280D02*
D03*
X142382D02*
D03*
X335000Y384500D02*
D03*
Y404500D02*
D03*
Y394500D02*
D03*
X464051Y286638D02*
D03*
X454051D02*
D03*
X110500Y290189D02*
D03*
X419287Y286638D02*
D03*
X409287D02*
D03*
X110500Y302000D02*
D03*
X247501Y323673D02*
D03*
X257501D02*
D03*
X267501D02*
D03*
X277501D02*
D03*
X287501D02*
D03*
X297501D02*
D03*
X307501D02*
D03*
X317501D02*
D03*
X317500Y384500D02*
D03*
X307500D02*
D03*
X297500D02*
D03*
X287500D02*
D03*
X277500D02*
D03*
X267500D02*
D03*
X257500D02*
D03*
X247500D02*
D03*
Y396000D02*
D03*
X257500D02*
D03*
X267500D02*
D03*
X277500D02*
D03*
X287500D02*
D03*
X297500D02*
D03*
X307500D02*
D03*
X317500D02*
D03*
X453382Y389000D02*
D03*
X463382D02*
D03*
X408500D02*
D03*
X418500D02*
D03*
X110500Y313811D02*
D03*
D42*
X428921Y334067D02*
D03*
X143421Y336067D02*
D03*
D43*
X438921Y334067D02*
D03*
X153421Y336067D02*
D03*
D44*
X102000Y345500D02*
D03*
X142000D02*
D03*
D45*
X178567Y406000D02*
D03*
Y396000D02*
D03*
X284000Y449433D02*
D03*
X294000D02*
D03*
X379433Y386000D02*
D03*
Y396000D02*
D03*
X152000Y305067D02*
D03*
X142000D02*
D03*
X132000D02*
D03*
X421000Y308067D02*
D03*
X431000D02*
D03*
X441000D02*
D03*
D46*
X178567Y386000D02*
D03*
X379433Y406000D02*
D03*
D47*
X274000Y449433D02*
D03*
X162000Y305067D02*
D03*
X451000Y308067D02*
D03*
D48*
X428913Y216992D02*
D03*
Y141008D02*
D03*
X141905D02*
D03*
Y216992D02*
D03*
D49*
X176512Y141008D02*
D03*
Y216992D02*
D03*
X395488Y141008D02*
D03*
Y216992D02*
D03*
D50*
X110500Y278535D02*
D03*
Y325465D02*
D03*
D51*
X361500Y409500D02*
D03*
X194500Y386000D02*
D03*
Y407500D02*
D03*
X361500Y388000D02*
D03*
D52*
X351500Y409500D02*
D03*
X204500Y386000D02*
D03*
Y407500D02*
D03*
X351500Y388000D02*
D03*
D53*
X339900Y441900D02*
D03*
X365300Y460700D02*
D03*
X365000Y441500D02*
D03*
X340500Y461000D02*
D03*
X205500D02*
D03*
X230000Y441500D02*
D03*
X230300Y460700D02*
D03*
X204900Y441900D02*
D03*
D54*
X314500Y469000D02*
D03*
X253000D02*
D03*
D55*
X314500Y459000D02*
D03*
X253000D02*
D03*
D56*
X294606Y465000D02*
D03*
X284606D02*
D03*
X153000Y423000D02*
D03*
X163000D02*
D03*
X419500D02*
D03*
X429500D02*
D03*
D57*
X274606Y465000D02*
D03*
X143000Y423000D02*
D03*
X409500D02*
D03*
D58*
X336500Y433000D02*
D03*
X376500D02*
D03*
X222000D02*
D03*
X182000D02*
D03*
X327000Y410500D02*
D03*
X287000D02*
D03*
X240500D02*
D03*
X280500D02*
D03*
D59*
X328650Y344320D02*
D03*
X318650D02*
D03*
X308650D02*
D03*
X298650D02*
D03*
X278650D02*
D03*
X268650D02*
D03*
X258650D02*
D03*
X288650D02*
D03*
X338650D02*
D03*
X378650D02*
D03*
X368650D02*
D03*
X358650D02*
D03*
X388750D02*
D03*
X348650D02*
D03*
X248693Y284420D02*
D03*
X238693D02*
D03*
X268693D02*
D03*
X228693D02*
D03*
X218693D02*
D03*
X208693D02*
D03*
X198693D02*
D03*
X258693D02*
D03*
X278693D02*
D03*
X318693D02*
D03*
X288693D02*
D03*
X298693D02*
D03*
X308693D02*
D03*
X328693D02*
D03*
X338693D02*
D03*
X378693D02*
D03*
X368693D02*
D03*
X358693D02*
D03*
X388693D02*
D03*
X348693D02*
D03*
X248650Y344320D02*
D03*
X208650D02*
D03*
X238650D02*
D03*
X198650D02*
D03*
X218650D02*
D03*
X228650D02*
D03*
M02*
