G04*
G04 #@! TF.GenerationSoftware,Altium Limited,Altium Designer,23.6.0 (18)*
G04*
G04 Layer_Physical_Order=2*
G04 Layer_Color=255*
%FSLAX25Y25*%
%MOIN*%
G70*
G04*
G04 #@! TF.SameCoordinates,D5263B71-C0EA-4B60-9871-AA0EAEE7EF9D*
G04*
G04*
G04 #@! TF.FilePolarity,Positive*
G04*
G01*
G75*
%ADD10C,0.01181*%
%ADD13C,0.01968*%
%ADD14C,0.01000*%
%ADD15C,0.00787*%
%ADD39C,0.03937*%
%ADD40C,0.07874*%
%ADD41C,0.06299*%
%ADD42C,0.06201*%
%ADD43R,0.06201X0.06201*%
%ADD44C,0.08000*%
%ADD45C,0.05937*%
%ADD46R,0.05937X0.05937*%
%ADD47R,0.05937X0.05937*%
%ADD48C,0.13780*%
%ADD49C,0.12598*%
%ADD50C,0.07874*%
%ADD51R,0.07000X0.10000*%
%ADD52O,0.07000X0.10000*%
%ADD53C,0.07500*%
%ADD54O,0.10000X0.07000*%
%ADD55R,0.10000X0.07000*%
%ADD56O,0.06500X0.10000*%
%ADD57R,0.06500X0.10000*%
%ADD58C,0.05118*%
%ADD59O,0.07874X0.07874*%
%ADD60C,0.05000*%
G04:AMPARAMS|DCode=61|XSize=49.21mil|YSize=68.9mil|CornerRadius=2.46mil|HoleSize=0mil|Usage=FLASHONLY|Rotation=0.000|XOffset=0mil|YOffset=0mil|HoleType=Round|Shape=RoundedRectangle|*
%AMROUNDEDRECTD61*
21,1,0.04921,0.06398,0,0,0.0*
21,1,0.04429,0.06890,0,0,0.0*
1,1,0.00492,0.02215,-0.03199*
1,1,0.00492,-0.02215,-0.03199*
1,1,0.00492,-0.02215,0.03199*
1,1,0.00492,0.02215,0.03199*
%
%ADD61ROUNDEDRECTD61*%
%ADD62C,0.03150*%
G36*
X353000Y469500D02*
X363459Y465591D01*
X363391Y465083D01*
X362383Y464501D01*
X361499Y463617D01*
X360874Y462533D01*
X360550Y461325D01*
Y461200D01*
X370050D01*
Y461325D01*
X369726Y462533D01*
X369569Y462805D01*
X369893Y463187D01*
X402500Y451000D01*
X438500Y427500D01*
X472500Y400500D01*
X472905Y368612D01*
X472405Y368589D01*
X472343Y369382D01*
X471781Y371721D01*
X470861Y373942D01*
X469604Y375993D01*
X468042Y377822D01*
X466214Y379384D01*
X464163Y380641D01*
X461941Y381561D01*
X459602Y382122D01*
X457205Y382311D01*
X454807Y382122D01*
X452468Y381561D01*
X450246Y380641D01*
X448196Y379384D01*
X446367Y377822D01*
X444805Y375993D01*
X443548Y373942D01*
X442628Y371721D01*
X442067Y369382D01*
X441878Y366984D01*
X442067Y364587D01*
X442628Y362248D01*
X443548Y360026D01*
X444805Y357975D01*
X446367Y356147D01*
X448196Y354585D01*
X450246Y353328D01*
X452468Y352408D01*
X454807Y351846D01*
X457205Y351658D01*
X459602Y351846D01*
X461941Y352408D01*
X464163Y353328D01*
X466214Y354585D01*
X468042Y356147D01*
X469604Y357975D01*
X470861Y360026D01*
X471781Y362248D01*
X472343Y364587D01*
X472440Y365825D01*
X472940Y365809D01*
X474500Y243000D01*
X465546Y242874D01*
X465407Y243354D01*
X466214Y243848D01*
X468042Y245410D01*
X469604Y247239D01*
X470861Y249290D01*
X471781Y251512D01*
X472343Y253850D01*
X472532Y256248D01*
X472343Y258646D01*
X471781Y260984D01*
X470861Y263206D01*
X469604Y265257D01*
X468042Y267086D01*
X466214Y268648D01*
X464163Y269904D01*
X461941Y270825D01*
X459602Y271386D01*
X457205Y271575D01*
X454807Y271386D01*
X452468Y270825D01*
X450246Y269904D01*
X448196Y268648D01*
X446470Y267174D01*
X446407Y267180D01*
X446116Y267291D01*
X445980Y267402D01*
Y308067D01*
X445810Y309356D01*
X445312Y310557D01*
X444521Y311588D01*
X443490Y312379D01*
X442289Y312877D01*
X441000Y313047D01*
X439711Y312877D01*
X438510Y312379D01*
X437684Y311746D01*
X437663Y311729D01*
X437332Y312106D01*
X456647Y331420D01*
X456998Y331946D01*
X457122Y332567D01*
Y341500D01*
X456998Y342121D01*
X456647Y342647D01*
X433147Y366147D01*
X432621Y366498D01*
X432000Y366622D01*
X412105D01*
X411801Y367149D01*
X411149Y367801D01*
X410351Y368262D01*
X409461Y368500D01*
X408539D01*
X407649Y368262D01*
X406851Y367801D01*
X406199Y367149D01*
X405738Y366351D01*
X405500Y365461D01*
Y364539D01*
X405738Y363649D01*
X406199Y362851D01*
X406851Y362199D01*
X407649Y361738D01*
X408539Y361500D01*
X409461D01*
X410351Y361738D01*
X411149Y362199D01*
X411801Y362851D01*
X412105Y363378D01*
X431328D01*
X453878Y340828D01*
Y333239D01*
X432432Y311792D01*
X431523Y312035D01*
X431479D01*
X431287Y312497D01*
X447931Y329141D01*
X448369Y329797D01*
X448523Y330571D01*
Y341775D01*
X448369Y342549D01*
X447931Y343205D01*
X441706Y349430D01*
X441706Y349431D01*
X441049Y349869D01*
X440275Y350023D01*
X433873D01*
X433801Y350149D01*
X433149Y350801D01*
X432351Y351261D01*
X431461Y351500D01*
X430539D01*
X430399Y351462D01*
X423523Y358339D01*
X422866Y358777D01*
X422092Y358931D01*
X421336D01*
X421210Y359149D01*
X420559Y359801D01*
X419760Y360262D01*
X418870Y360500D01*
X417949D01*
X417059Y360262D01*
X416260Y359801D01*
X415609Y359149D01*
X415148Y358351D01*
X414910Y357461D01*
Y356539D01*
X415148Y355649D01*
X415609Y354851D01*
X416260Y354199D01*
X417059Y353738D01*
X417949Y353500D01*
X418870D01*
X419760Y353738D01*
X420559Y354199D01*
X421210Y354851D01*
X421584Y354555D01*
X427538Y348601D01*
X427500Y348461D01*
Y347539D01*
X427739Y346649D01*
X428199Y345851D01*
X428851Y345199D01*
X429649Y344739D01*
X430539Y344500D01*
X431461D01*
X432351Y344739D01*
X433149Y345199D01*
X433801Y345851D01*
X433873Y345977D01*
X439437D01*
X444477Y340937D01*
Y331409D01*
X443522Y330454D01*
X443022Y330661D01*
Y338167D01*
X437694D01*
X433931Y341931D01*
X433274Y342369D01*
X432500Y342523D01*
X412381D01*
X411607Y342369D01*
X410950Y341931D01*
X403543Y334523D01*
X397632D01*
X397400Y335023D01*
X397762Y335649D01*
X398000Y336539D01*
Y337461D01*
X397842Y338049D01*
X399255Y339461D01*
X399606Y339987D01*
X399730Y340608D01*
Y353485D01*
X400257Y353790D01*
X400909Y354441D01*
X401369Y355240D01*
X401608Y356130D01*
Y357051D01*
X401369Y357942D01*
X400909Y358740D01*
X400257Y359391D01*
X399459Y359852D01*
X398783Y360033D01*
X398603Y360561D01*
X412021Y373979D01*
X412021Y373979D01*
X412813Y375010D01*
X413310Y376211D01*
X413480Y377500D01*
Y384020D01*
X418000D01*
X419289Y384190D01*
X420490Y384687D01*
X421521Y385479D01*
X422312Y386510D01*
X422810Y387711D01*
X422980Y389000D01*
X422810Y390289D01*
X422312Y391490D01*
X421521Y392521D01*
X420490Y393313D01*
X419289Y393810D01*
X418000Y393980D01*
X409226D01*
X408951Y394480D01*
X408977Y394520D01*
X440937D01*
X449979Y385479D01*
X451010Y384687D01*
X452211Y384190D01*
X453500Y384020D01*
X454789Y384190D01*
X455990Y384687D01*
X457021Y385479D01*
X457812Y386510D01*
X458310Y387711D01*
X458480Y389000D01*
X458310Y390289D01*
X457812Y391490D01*
X457021Y392521D01*
X446521Y403021D01*
X445490Y403813D01*
X444289Y404310D01*
X443000Y404480D01*
X443000Y404480D01*
X406450D01*
X405161Y404310D01*
X403960Y403813D01*
X402929Y403021D01*
X402929Y403021D01*
X378595Y378687D01*
X378147Y378946D01*
X378241Y379298D01*
Y380220D01*
X378003Y381110D01*
X377542Y381908D01*
X377484Y381965D01*
X377792Y382365D01*
X377901Y382302D01*
X378911Y382031D01*
X379956D01*
X380965Y382302D01*
X381870Y382824D01*
X382609Y383563D01*
X383131Y384468D01*
X383402Y385477D01*
Y386523D01*
X383131Y387532D01*
X382609Y388437D01*
X381870Y389176D01*
X380965Y389698D01*
X379956Y389968D01*
X378911D01*
X377901Y389698D01*
X376996Y389176D01*
X376257Y388437D01*
X375735Y387532D01*
X375465Y386523D01*
Y385477D01*
X375735Y384468D01*
X376257Y383563D01*
X376402Y383419D01*
X376095Y383019D01*
X376092Y383020D01*
X375202Y383259D01*
X374281D01*
X373390Y383020D01*
X372592Y382559D01*
X371940Y381908D01*
X371480Y381110D01*
X371349Y380622D01*
X347179D01*
X346988Y381084D01*
X347078Y381174D01*
X347539Y381972D01*
X347777Y382862D01*
Y383138D01*
X348277Y383308D01*
X348291Y383291D01*
X349231Y382569D01*
X350325Y382116D01*
X351000Y382027D01*
Y387500D01*
X346961D01*
Y386500D01*
X346992Y386264D01*
X346519Y386031D01*
X346426Y386123D01*
X345628Y386584D01*
X345622Y386586D01*
Y402715D01*
X345498Y403336D01*
X345147Y403862D01*
X343976Y405032D01*
X344162Y405554D01*
X344851Y405738D01*
X345649Y406199D01*
X346301Y406851D01*
X346551Y407285D01*
X347069Y407182D01*
X347116Y406825D01*
X347569Y405731D01*
X348291Y404791D01*
X349231Y404069D01*
X350325Y403616D01*
X351000Y403527D01*
Y409500D01*
Y415473D01*
X350325Y415384D01*
X349231Y414931D01*
X348291Y414209D01*
X347569Y413269D01*
X347116Y412175D01*
X346961Y411000D01*
X346461Y410871D01*
X346301Y411149D01*
X345649Y411801D01*
X344851Y412261D01*
X343961Y412500D01*
X343039D01*
X342451Y412342D01*
X333057Y421737D01*
X333118Y422199D01*
X333769Y422851D01*
X334230Y423649D01*
X334469Y424539D01*
Y425461D01*
X334230Y426351D01*
X333769Y427149D01*
X333118Y427801D01*
X332319Y428262D01*
X331429Y428500D01*
X330508D01*
X329618Y428262D01*
X328994Y427902D01*
X328494Y428135D01*
Y436064D01*
X328994Y436272D01*
X333017Y432249D01*
X333184Y431626D01*
X333652Y430815D01*
X334315Y430152D01*
X335126Y429683D01*
X336031Y429441D01*
X336969D01*
X337874Y429683D01*
X338432Y430006D01*
X341260D01*
X347407Y423859D01*
X347602Y423710D01*
Y421301D01*
X347698Y420815D01*
X347974Y420403D01*
X348386Y420127D01*
X348872Y420031D01*
X353301D01*
X353787Y420127D01*
X354199Y420403D01*
X354475Y420815D01*
X354572Y421301D01*
Y427699D01*
X354475Y428185D01*
X354199Y428597D01*
X353787Y428872D01*
X353301Y428969D01*
X350765D01*
X344617Y435117D01*
X343997Y435593D01*
X343275Y435892D01*
X342500Y435994D01*
X338432D01*
X337874Y436316D01*
X337251Y436483D01*
X332193Y441541D01*
X331573Y442017D01*
X330851Y442316D01*
X330076Y442418D01*
X328398D01*
Y443699D01*
X328302Y444185D01*
X328026Y444597D01*
X327614Y444873D01*
X327128Y444969D01*
X322699D01*
X322213Y444873D01*
X321801Y444597D01*
X321525Y444185D01*
X321428Y443699D01*
Y437301D01*
X321525Y436815D01*
X321801Y436403D01*
X322213Y436128D01*
X322506Y436069D01*
Y413494D01*
X310240D01*
X300248Y423486D01*
X299628Y423962D01*
X298906Y424261D01*
X298131Y424363D01*
X280429D01*
X280195Y424863D01*
X280555Y425487D01*
X280783Y426338D01*
X273804D01*
X274032Y425487D01*
X274392Y424863D01*
X274158Y424363D01*
X251369D01*
X250594Y424261D01*
X249872Y423962D01*
X249252Y423486D01*
X240750Y414984D01*
X235617Y420117D01*
X234997Y420593D01*
X234275Y420892D01*
X233500Y420994D01*
X229398D01*
Y421199D01*
X229302Y421685D01*
X229026Y422097D01*
X228614Y422373D01*
X228128Y422469D01*
X226265D01*
X224994Y423740D01*
Y431068D01*
X225317Y431626D01*
X225559Y432531D01*
Y433469D01*
X225317Y434374D01*
X224848Y435185D01*
X224185Y435848D01*
X223374Y436316D01*
X222469Y436559D01*
X221531D01*
X220626Y436316D01*
X219815Y435848D01*
X219152Y435185D01*
X218684Y434374D01*
X218441Y433469D01*
Y432531D01*
X218684Y431626D01*
X219006Y431068D01*
Y422500D01*
X219108Y421725D01*
X219407Y421003D01*
X219883Y420383D01*
X222428Y417837D01*
Y414801D01*
X222525Y414315D01*
X222801Y413903D01*
X223213Y413628D01*
X223699Y413531D01*
X228128D01*
X228614Y413628D01*
X229026Y413903D01*
X229302Y414315D01*
X229398Y414801D01*
Y415006D01*
X232260D01*
X236941Y410325D01*
Y410031D01*
X237183Y409126D01*
X237652Y408315D01*
X238315Y407652D01*
X239126Y407184D01*
X239749Y407017D01*
X244506Y402260D01*
Y398874D01*
X244180Y398548D01*
X243633Y397602D01*
X243350Y396546D01*
Y395454D01*
X243633Y394398D01*
X244180Y393452D01*
X244952Y392680D01*
X245898Y392133D01*
X246320Y392020D01*
X246564Y391702D01*
X248400Y389865D01*
X248167Y389392D01*
X247500Y389480D01*
X246211Y389310D01*
X245010Y388812D01*
X243979Y388021D01*
X243187Y386990D01*
X242690Y385789D01*
X242520Y384500D01*
Y381500D01*
X242520Y381500D01*
X242690Y380211D01*
X243010Y379439D01*
X242732Y379023D01*
X165523D01*
Y394000D01*
X165369Y394774D01*
X164931Y395431D01*
X145023Y415338D01*
Y417000D01*
X147250D01*
Y429000D01*
X138750D01*
Y417000D01*
X140977D01*
Y414500D01*
X141131Y413726D01*
X141569Y413069D01*
X161477Y393162D01*
Y378153D01*
X161631Y377379D01*
X162069Y376723D01*
X163223Y375569D01*
X163879Y375131D01*
X164653Y374977D01*
X242788D01*
X251011Y366754D01*
X250830Y366228D01*
X250348Y366099D01*
X247866Y368581D01*
X247370Y368913D01*
X246784Y369029D01*
X171000D01*
X170415Y368913D01*
X169919Y368581D01*
X163419Y362081D01*
X163087Y361585D01*
X162971Y361000D01*
Y335134D01*
X141919Y314081D01*
X141587Y313585D01*
X141471Y313000D01*
Y309034D01*
X140468Y308765D01*
X139563Y308243D01*
X138824Y307504D01*
X138302Y306599D01*
X138031Y305589D01*
Y304544D01*
X138302Y303535D01*
X138824Y302630D01*
X139563Y301891D01*
X140468Y301369D01*
X141478Y301098D01*
X142523D01*
X143532Y301369D01*
X144437Y301891D01*
X145176Y302630D01*
X145698Y303535D01*
X145968Y304544D01*
Y305589D01*
X145698Y306599D01*
X145176Y307504D01*
X144529Y308150D01*
Y312367D01*
X145361Y313198D01*
X145882Y313012D01*
X146067Y312321D01*
X146528Y311523D01*
X147179Y310871D01*
X147977Y310410D01*
X148868Y310172D01*
X149789D01*
X150679Y310410D01*
X151478Y310871D01*
X152129Y311523D01*
X152590Y312321D01*
X152828Y313211D01*
Y313229D01*
X153018Y313355D01*
X169581Y329919D01*
X169913Y330415D01*
X170029Y331000D01*
Y359366D01*
X170529Y359866D01*
X171087Y359717D01*
X171239Y359149D01*
X171699Y358351D01*
X172351Y357699D01*
X172472Y357629D01*
X172555Y357004D01*
X172199Y356649D01*
X171739Y355851D01*
X171500Y354961D01*
Y354039D01*
X171739Y353149D01*
X172199Y352351D01*
X172851Y351699D01*
X172878Y351683D01*
Y341000D01*
X173002Y340379D01*
X173353Y339853D01*
X210853Y302353D01*
X211379Y302002D01*
X212000Y301878D01*
X259828D01*
X266441Y295265D01*
Y288831D01*
X266203Y288733D01*
X265172Y287941D01*
X264380Y286910D01*
X263963Y285903D01*
X263422D01*
X263005Y286910D01*
X262214Y287941D01*
X261182Y288733D01*
X259981Y289230D01*
X258693Y289400D01*
X257404Y289230D01*
X256203Y288733D01*
X255172Y287941D01*
X254380Y286910D01*
X253963Y285903D01*
X253422D01*
X253005Y286910D01*
X252214Y287941D01*
X251183Y288733D01*
X249981Y289230D01*
X248693Y289400D01*
X247404Y289230D01*
X246203Y288733D01*
X245172Y287941D01*
X244380Y286910D01*
X243963Y285903D01*
X243422D01*
X243005Y286910D01*
X242214Y287941D01*
X241182Y288733D01*
X239982Y289230D01*
X238693Y289400D01*
X237404Y289230D01*
X236203Y288733D01*
X235172Y287941D01*
X234380Y286910D01*
X233963Y285903D01*
X233422D01*
X233005Y286910D01*
X232214Y287941D01*
X231183Y288733D01*
X229981Y289230D01*
X228693Y289400D01*
X227404Y289230D01*
X226203Y288733D01*
X225172Y287941D01*
X224380Y286910D01*
X223963Y285903D01*
X223422D01*
X223005Y286910D01*
X222214Y287941D01*
X221182Y288733D01*
X219982Y289230D01*
X218693Y289400D01*
X217404Y289230D01*
X216203Y288733D01*
X215172Y287941D01*
X214380Y286910D01*
X213963Y285903D01*
X213422D01*
X213005Y286910D01*
X212214Y287941D01*
X211182Y288733D01*
X209981Y289230D01*
X208693Y289400D01*
X207404Y289230D01*
X206203Y288733D01*
X205172Y287941D01*
X204380Y286910D01*
X203963Y285903D01*
X203422D01*
X203005Y286910D01*
X202214Y287941D01*
X201183Y288733D01*
X199981Y289230D01*
X198693Y289400D01*
X197404Y289230D01*
X196203Y288733D01*
X195172Y287941D01*
X194380Y286910D01*
X193883Y285709D01*
X193733Y284574D01*
X193312Y284372D01*
X193237Y284363D01*
X184023Y293577D01*
Y299127D01*
X184149Y299199D01*
X184801Y299851D01*
X185261Y300649D01*
X185500Y301539D01*
Y302461D01*
X185261Y303351D01*
X184801Y304149D01*
X184149Y304801D01*
X183351Y305261D01*
X182461Y305500D01*
X181539D01*
X180649Y305261D01*
X179851Y304801D01*
X179199Y304149D01*
X178858Y303557D01*
X178321Y303628D01*
X178261Y303851D01*
X177801Y304649D01*
X177149Y305301D01*
X176351Y305762D01*
X175461Y306000D01*
X174539D01*
X173649Y305762D01*
X172851Y305301D01*
X172199Y304649D01*
X171739Y303851D01*
X171500Y302961D01*
Y302039D01*
X171739Y301149D01*
X172199Y300351D01*
X172851Y299699D01*
X172977Y299627D01*
Y291000D01*
X173131Y290226D01*
X173569Y289569D01*
X208069Y255069D01*
X208726Y254631D01*
X209500Y254477D01*
X303413D01*
X304187Y254631D01*
X304844Y255069D01*
X309862Y260087D01*
X310123Y260262D01*
X310562Y260918D01*
X310716Y261693D01*
Y279914D01*
X311182Y280107D01*
X312214Y280899D01*
X313005Y281930D01*
X313422Y282937D01*
X313963D01*
X314380Y281930D01*
X315172Y280899D01*
X316203Y280107D01*
X317404Y279610D01*
X318693Y279440D01*
X319982Y279610D01*
X321182Y280107D01*
X322214Y280899D01*
X323005Y281930D01*
X323422Y282937D01*
X323963D01*
X324380Y281930D01*
X325172Y280899D01*
X326203Y280107D01*
X327404Y279610D01*
X328693Y279440D01*
X329981Y279610D01*
X331183Y280107D01*
X332214Y280899D01*
X333005Y281930D01*
X333422Y282937D01*
X333963D01*
X334380Y281930D01*
X335172Y280899D01*
X336203Y280107D01*
X337404Y279610D01*
X338693Y279440D01*
X339982Y279610D01*
X341182Y280107D01*
X342214Y280899D01*
X343005Y281930D01*
X343422Y282937D01*
X343963D01*
X344380Y281930D01*
X345172Y280899D01*
X346203Y280107D01*
X347404Y279610D01*
X348693Y279440D01*
X349981Y279610D01*
X351183Y280107D01*
X352214Y280899D01*
X353005Y281930D01*
X353422Y282937D01*
X353963D01*
X354380Y281930D01*
X355172Y280899D01*
X356203Y280107D01*
X357404Y279610D01*
X358693Y279440D01*
X359981Y279610D01*
X361182Y280107D01*
X362214Y280899D01*
X363005Y281930D01*
X363422Y282937D01*
X363963D01*
X364380Y281930D01*
X365172Y280899D01*
X366203Y280107D01*
X367404Y279610D01*
X368693Y279440D01*
X369982Y279610D01*
X371182Y280107D01*
X372214Y280899D01*
X373005Y281930D01*
X373422Y282937D01*
X373963D01*
X374380Y281930D01*
X375172Y280899D01*
X376203Y280107D01*
X377404Y279610D01*
X378693Y279440D01*
X379981Y279610D01*
X381183Y280107D01*
X382214Y280899D01*
X383005Y281930D01*
X383422Y282937D01*
X383963D01*
X384380Y281930D01*
X385172Y280899D01*
X386203Y280107D01*
X387404Y279610D01*
X388693Y279440D01*
X389982Y279610D01*
X391182Y280107D01*
X392214Y280899D01*
X393005Y281930D01*
X393503Y283131D01*
X393672Y284420D01*
X393503Y285709D01*
X393005Y286910D01*
X392214Y287941D01*
X391182Y288733D01*
X389982Y289230D01*
X388693Y289400D01*
X387404Y289230D01*
X386203Y288733D01*
X385172Y287941D01*
X384380Y286910D01*
X383963Y285903D01*
X383422D01*
X383005Y286910D01*
X382214Y287941D01*
X381183Y288733D01*
X379981Y289230D01*
X378693Y289400D01*
X377404Y289230D01*
X376203Y288733D01*
X375172Y287941D01*
X374380Y286910D01*
X373963Y285903D01*
X373422D01*
X373005Y286910D01*
X372214Y287941D01*
X371182Y288733D01*
X369982Y289230D01*
X368693Y289400D01*
X367404Y289230D01*
X366203Y288733D01*
X365172Y287941D01*
X364380Y286910D01*
X363963Y285903D01*
X363422D01*
X363005Y286910D01*
X362214Y287941D01*
X361182Y288733D01*
X359981Y289230D01*
X358693Y289400D01*
X357404Y289230D01*
X356203Y288733D01*
X355172Y287941D01*
X354380Y286910D01*
X353963Y285903D01*
X353422D01*
X353005Y286910D01*
X352214Y287941D01*
X351183Y288733D01*
X349981Y289230D01*
X348693Y289400D01*
X348594Y289387D01*
X348559Y289439D01*
X318738Y319260D01*
X318867Y319743D01*
X319103Y319806D01*
X320049Y320352D01*
X320821Y321125D01*
X321368Y322071D01*
X321651Y323126D01*
Y323173D01*
X317501D01*
X313351D01*
Y323126D01*
X313634Y322071D01*
X314180Y321125D01*
X314684Y320622D01*
X314476Y320122D01*
X310525D01*
X310318Y320622D01*
X310822Y321125D01*
X311368Y322071D01*
X311651Y323126D01*
Y324219D01*
X311368Y325274D01*
X310822Y326221D01*
X310049Y326993D01*
X309230Y327466D01*
Y328847D01*
X309076Y329621D01*
X308638Y330277D01*
X307485Y331431D01*
X306828Y331869D01*
X306054Y332023D01*
X251180D01*
X250973Y332523D01*
X251301Y332851D01*
X251373Y332977D01*
X307704D01*
X308478Y333131D01*
X309135Y333569D01*
X315828Y340263D01*
X316160Y340007D01*
X317361Y339510D01*
X318650Y339340D01*
X319939Y339510D01*
X321140Y340007D01*
X322171Y340799D01*
X322962Y341830D01*
X323379Y342837D01*
X323921D01*
X324338Y341830D01*
X325129Y340799D01*
X326160Y340007D01*
X327361Y339510D01*
X328650Y339340D01*
X329939Y339510D01*
X331140Y340007D01*
X332171Y340799D01*
X332962Y341830D01*
X333379Y342837D01*
X333921D01*
X334337Y341830D01*
X335129Y340799D01*
X336160Y340007D01*
X337361Y339510D01*
X338650Y339340D01*
X339939Y339510D01*
X341140Y340007D01*
X342171Y340799D01*
X342963Y341830D01*
X343379Y342837D01*
X343921D01*
X344338Y341830D01*
X345129Y340799D01*
X346160Y340007D01*
X347361Y339510D01*
X348650Y339340D01*
X349939Y339510D01*
X351140Y340007D01*
X352171Y340799D01*
X352962Y341830D01*
X353379Y342837D01*
X353921D01*
X354338Y341830D01*
X355129Y340799D01*
X356160Y340007D01*
X357361Y339510D01*
X358650Y339340D01*
X359939Y339510D01*
X361140Y340007D01*
X362171Y340799D01*
X362963Y341830D01*
X363379Y342837D01*
X363921D01*
X364337Y341830D01*
X365129Y340799D01*
X366160Y340007D01*
X367361Y339510D01*
X368650Y339340D01*
X369939Y339510D01*
X371140Y340007D01*
X372171Y340799D01*
X372962Y341830D01*
X373379Y342837D01*
X373921D01*
X374338Y341830D01*
X375129Y340799D01*
X376160Y340007D01*
X377361Y339510D01*
X378650Y339340D01*
X379939Y339510D01*
X381140Y340007D01*
X382171Y340799D01*
X382962Y341830D01*
X383442Y342987D01*
X383558Y343031D01*
X383842D01*
X383958Y342987D01*
X384437Y341830D01*
X385229Y340799D01*
X386260Y340007D01*
X387461Y339510D01*
X388750Y339340D01*
X390039Y339510D01*
X391240Y340007D01*
X392271Y340799D01*
X393062Y341830D01*
X393560Y343031D01*
X393730Y344320D01*
X393560Y345609D01*
X393062Y346810D01*
X392271Y347841D01*
X391240Y348633D01*
X390039Y349130D01*
X388750Y349300D01*
X387461Y349130D01*
X386260Y348633D01*
X385229Y347841D01*
X384437Y346810D01*
X383958Y345653D01*
X383842Y345609D01*
X383558D01*
X383442Y345653D01*
X382962Y346810D01*
X382171Y347841D01*
X381140Y348633D01*
X379939Y349130D01*
X378650Y349300D01*
X377361Y349130D01*
X376160Y348633D01*
X375129Y347841D01*
X374338Y346810D01*
X373921Y345803D01*
X373379D01*
X372962Y346810D01*
X372171Y347841D01*
X371140Y348633D01*
X371023Y348681D01*
Y350500D01*
X370869Y351274D01*
X370431Y351931D01*
X366803Y355558D01*
X366994Y356020D01*
X392000D01*
X392000Y356020D01*
X393289Y356190D01*
X394108Y356529D01*
X394608Y356195D01*
Y356130D01*
X394847Y355240D01*
X395307Y354441D01*
X395959Y353790D01*
X396486Y353485D01*
Y341280D01*
X395549Y340342D01*
X394961Y340500D01*
X394039D01*
X393149Y340262D01*
X392351Y339801D01*
X391699Y339149D01*
X391238Y338351D01*
X391000Y337461D01*
Y336539D01*
X391238Y335649D01*
X391600Y335023D01*
X391368Y334523D01*
X342873D01*
X342801Y334649D01*
X342149Y335301D01*
X341351Y335761D01*
X340461Y336000D01*
X339539D01*
X338649Y335761D01*
X337851Y335301D01*
X337199Y334649D01*
X336738Y333851D01*
X336500Y332961D01*
Y332039D01*
X336738Y331149D01*
X337199Y330351D01*
X337527Y330023D01*
X337320Y329523D01*
X328007D01*
X328000Y329530D01*
Y329961D01*
X327762Y330851D01*
X327301Y331649D01*
X326649Y332301D01*
X325851Y332762D01*
X324961Y333000D01*
X324039D01*
X323149Y332762D01*
X322351Y332301D01*
X321699Y331649D01*
X321238Y330851D01*
X321000Y329961D01*
Y329039D01*
X321238Y328149D01*
X321699Y327351D01*
X322351Y326699D01*
X323149Y326238D01*
X324039Y326000D01*
X324961D01*
X325629Y326179D01*
X325738Y326069D01*
X326395Y325631D01*
X327169Y325477D01*
X405000D01*
X405774Y325631D01*
X406431Y326069D01*
X411838Y331477D01*
X425712D01*
X426404Y330786D01*
X427339Y330246D01*
X428381Y329966D01*
X429461D01*
X430504Y330246D01*
X431439Y330786D01*
X432202Y331549D01*
X432742Y332484D01*
X433022Y333527D01*
Y334607D01*
X432742Y335650D01*
X432202Y336585D01*
X431439Y337348D01*
X430504Y337888D01*
X430172Y337977D01*
X430238Y338477D01*
X431662D01*
X434821Y335318D01*
Y329966D01*
X442327D01*
X442534Y329467D01*
X424617Y311549D01*
X424304Y311082D01*
X423720Y310959D01*
X423437Y311243D01*
X422532Y311765D01*
X421523Y312035D01*
X420477D01*
X419468Y311765D01*
X418563Y311243D01*
X417824Y310504D01*
X417354Y309689D01*
X402105D01*
X397842Y313951D01*
X398000Y314539D01*
Y315461D01*
X397762Y316351D01*
X397301Y317149D01*
X396649Y317801D01*
X395851Y318262D01*
X394961Y318500D01*
X394039D01*
X393149Y318262D01*
X392351Y317801D01*
X391699Y317149D01*
X391238Y316351D01*
X391000Y315461D01*
Y314539D01*
X391238Y313649D01*
X391699Y312851D01*
X392351Y312199D01*
X393149Y311738D01*
X394039Y311500D01*
X394961D01*
X395549Y311658D01*
X400286Y306920D01*
X400812Y306569D01*
X401433Y306445D01*
X417354D01*
X417824Y305630D01*
X418563Y304891D01*
X419468Y304369D01*
X420477Y304098D01*
X421523D01*
X422532Y304369D01*
X423437Y304891D01*
X423499Y304954D01*
X423961Y304771D01*
X424002Y304363D01*
X416662Y297023D01*
X405000D01*
X404226Y296869D01*
X403569Y296431D01*
X398069Y290931D01*
X397631Y290274D01*
X397477Y289500D01*
Y269873D01*
X397351Y269801D01*
X396699Y269149D01*
X396238Y268351D01*
X396000Y267461D01*
Y266539D01*
X396238Y265649D01*
X396699Y264851D01*
X397351Y264199D01*
X398149Y263738D01*
X399039Y263500D01*
X399961D01*
X400851Y263738D01*
X401649Y264199D01*
X402301Y264851D01*
X402762Y265649D01*
X403000Y266539D01*
Y267461D01*
X402762Y268351D01*
X402301Y269149D01*
X401649Y269801D01*
X401523Y269873D01*
Y288662D01*
X405838Y292977D01*
X417500D01*
X418274Y293131D01*
X418931Y293569D01*
X427478Y302117D01*
X427916Y302773D01*
X428070Y303547D01*
Y304731D01*
X428532Y304922D01*
X428563Y304891D01*
X429468Y304369D01*
X430478Y304098D01*
X431523D01*
X432532Y304369D01*
X433437Y304891D01*
X434176Y305630D01*
X434698Y306535D01*
X434969Y307544D01*
Y308589D01*
X434725Y309498D01*
X436961Y311735D01*
X437338Y311404D01*
X437321Y311383D01*
X436688Y310557D01*
X436190Y309356D01*
X436020Y308067D01*
Y269282D01*
X422454Y255716D01*
X421663Y254684D01*
X421165Y253484D01*
X420996Y252195D01*
X420996Y252195D01*
Y250025D01*
X421165Y248736D01*
X421663Y247535D01*
X422454Y246504D01*
X423485Y245712D01*
X424686Y245215D01*
X425975Y245045D01*
X427264Y245215D01*
X428465Y245712D01*
X429496Y246504D01*
X430288Y247535D01*
X430785Y248736D01*
X430955Y250025D01*
Y250132D01*
X442303Y261480D01*
X442718Y261202D01*
X442628Y260984D01*
X442067Y258646D01*
X441878Y256248D01*
X442067Y253850D01*
X442628Y251512D01*
X443548Y249290D01*
X444805Y247239D01*
X446367Y245410D01*
X448196Y243848D01*
X449374Y243126D01*
X449242Y242644D01*
X439000Y242500D01*
X439499Y100354D01*
X439146Y99999D01*
X132354Y99501D01*
X132000Y99854D01*
Y242000D01*
X117559D01*
X117462Y242490D01*
X117706Y242592D01*
X119757Y243848D01*
X121586Y245410D01*
X123148Y247239D01*
X124404Y249290D01*
X125325Y251512D01*
X125886Y253850D01*
X126075Y256248D01*
X125953Y257797D01*
X126440Y257984D01*
X126444Y257979D01*
X136520Y247902D01*
Y222765D01*
X135777Y222022D01*
X134914Y220729D01*
X134319Y219293D01*
X134016Y217769D01*
Y216215D01*
X134319Y214691D01*
X134914Y213255D01*
X135777Y211963D01*
X136876Y210864D01*
X138168Y210000D01*
X139604Y209406D01*
X141128Y209102D01*
X142683D01*
X144207Y209406D01*
X145643Y210000D01*
X146935Y210864D01*
X148034Y211963D01*
X148897Y213255D01*
X149492Y214691D01*
X149795Y216215D01*
Y217769D01*
X149492Y219293D01*
X148897Y220729D01*
X148034Y222022D01*
X146935Y223120D01*
X146480Y223425D01*
Y249965D01*
X146310Y251253D01*
X145812Y252454D01*
X145021Y253486D01*
X145021Y253486D01*
X134944Y263563D01*
Y280465D01*
X134927Y280598D01*
X134980Y281000D01*
X134810Y282289D01*
X134667Y282633D01*
X135091Y282916D01*
X137402Y280605D01*
Y267453D01*
X137402Y267453D01*
X137572Y266164D01*
X138069Y264963D01*
X138861Y263932D01*
X139916Y262877D01*
X139983Y262715D01*
X140774Y261684D01*
X177790Y224668D01*
X177554Y224227D01*
X177231Y224291D01*
X175793D01*
X174383Y224011D01*
X173054Y223461D01*
X171859Y222662D01*
X170842Y221645D01*
X170043Y220450D01*
X169493Y219121D01*
X169213Y217711D01*
Y216273D01*
X169493Y214863D01*
X170043Y213535D01*
X170842Y212339D01*
X171859Y211322D01*
X173054Y210524D01*
X174383Y209973D01*
X175793Y209693D01*
X177231D01*
X178641Y209973D01*
X179969Y210524D01*
X181165Y211322D01*
X182182Y212339D01*
X182980Y213535D01*
X183530Y214863D01*
X183811Y216273D01*
Y217711D01*
X183747Y218034D01*
X184188Y218270D01*
X185979Y216479D01*
X185979Y216479D01*
X187010Y215687D01*
X188211Y215190D01*
X189500Y215020D01*
X376500D01*
X376500Y215020D01*
X377789Y215190D01*
X378990Y215687D01*
X380021Y216479D01*
X423021Y259479D01*
X423021Y259479D01*
X423812Y260510D01*
X424310Y261711D01*
X424480Y263000D01*
Y286500D01*
X424310Y287789D01*
X423812Y288990D01*
X423021Y290021D01*
X421990Y290812D01*
X420789Y291310D01*
X420341Y291369D01*
X420151Y291448D01*
X418862Y291617D01*
X409287D01*
X407999Y291448D01*
X406798Y290950D01*
X405766Y290159D01*
X404975Y289128D01*
X404478Y287927D01*
X404308Y286638D01*
X404478Y285349D01*
X404975Y284148D01*
X405766Y283117D01*
X406798Y282325D01*
X407999Y281828D01*
X409287Y281658D01*
X414520D01*
Y265063D01*
X374437Y224980D01*
X191563D01*
X148675Y267867D01*
X148608Y268029D01*
X147816Y269060D01*
X147362Y269515D01*
Y282618D01*
X147192Y283907D01*
X146694Y285108D01*
X145903Y286139D01*
X145780Y286234D01*
X145521Y286571D01*
X131493Y300598D01*
X131701Y301098D01*
X132522D01*
X133532Y301369D01*
X134437Y301891D01*
X135176Y302630D01*
X135698Y303535D01*
X135968Y304544D01*
Y305589D01*
X135698Y306599D01*
X135176Y307504D01*
X134437Y308243D01*
X133532Y308765D01*
X132522Y309035D01*
X131477D01*
X130468Y308765D01*
X129563Y308243D01*
X128824Y307504D01*
X128302Y306599D01*
X128032Y305589D01*
Y304767D01*
X127532Y304560D01*
X124354Y307738D01*
Y332811D01*
X132063Y340520D01*
X141266D01*
X141342Y340500D01*
X142191D01*
X142257Y340000D01*
X141839Y339888D01*
X140904Y339348D01*
X140140Y338585D01*
X139600Y337650D01*
X139321Y336607D01*
Y335527D01*
X139600Y334484D01*
X140140Y333549D01*
X140904Y332786D01*
X141839Y332246D01*
X142881Y331966D01*
X143961D01*
X145004Y332246D01*
X145939Y332786D01*
X146702Y333549D01*
X147242Y334484D01*
X147522Y335527D01*
Y336607D01*
X147242Y337650D01*
X146702Y338585D01*
X145939Y339348D01*
X145004Y339888D01*
X143961Y340167D01*
X143349D01*
X143283Y340667D01*
X143930Y340841D01*
X145070Y341499D01*
X146001Y342430D01*
X146659Y343570D01*
X147000Y344842D01*
Y346158D01*
X146659Y347430D01*
X146001Y348570D01*
X145070Y349501D01*
X143930Y350159D01*
X142658Y350500D01*
X141342D01*
X141266Y350480D01*
X130233D01*
X129948Y350918D01*
X129941Y350974D01*
X130262Y351529D01*
X130400Y352045D01*
X138361Y360006D01*
X139488D01*
X140015Y359479D01*
X140961Y358932D01*
X142017Y358650D01*
X143109D01*
X144165Y358932D01*
X145111Y359479D01*
X145884Y360251D01*
X146430Y361197D01*
X146713Y362253D01*
Y363346D01*
X146430Y364401D01*
X145884Y365347D01*
X145111Y366120D01*
X144165Y366666D01*
X143109Y366949D01*
X142017D01*
X140961Y366666D01*
X140015Y366120D01*
X139890Y365994D01*
X137120D01*
X136346Y365892D01*
X135623Y365593D01*
X135003Y365117D01*
X126166Y356279D01*
X125649Y356141D01*
X124851Y355680D01*
X124199Y355029D01*
X123739Y354230D01*
X123500Y353340D01*
Y352419D01*
X123739Y351529D01*
X124199Y350730D01*
X124851Y350079D01*
X125649Y349618D01*
X126232Y349462D01*
X126312Y349320D01*
X126366Y348908D01*
X115853Y338395D01*
X115062Y337364D01*
X114564Y336163D01*
X114394Y334874D01*
X114394Y334874D01*
Y329205D01*
X113933Y329014D01*
X113531Y329415D01*
X112406Y330065D01*
X111150Y330402D01*
X109850D01*
X108594Y330065D01*
X107469Y329415D01*
X106549Y328496D01*
X106463Y328346D01*
X105980Y328475D01*
Y342409D01*
X106001Y342430D01*
X106659Y343570D01*
X107000Y344842D01*
Y346158D01*
X106659Y347430D01*
X106001Y348570D01*
X105070Y349501D01*
X103930Y350159D01*
X102658Y350500D01*
X101342D01*
X100070Y350159D01*
X98930Y349501D01*
X97999Y348570D01*
X97913Y348421D01*
X97479Y347987D01*
X96688Y346956D01*
X96190Y345755D01*
X96020Y344466D01*
X96020Y344466D01*
Y311500D01*
X96020Y311500D01*
X96190Y310211D01*
X96688Y309010D01*
X97479Y307979D01*
X106979Y298479D01*
X108010Y297688D01*
X109211Y297190D01*
X110500Y297020D01*
X111789Y297190D01*
X112990Y297688D01*
X114021Y298479D01*
X114813Y299510D01*
X115310Y300711D01*
X115460Y301848D01*
X115549Y301917D01*
X115838Y302029D01*
X115968Y302039D01*
X122727Y295280D01*
X122444Y294856D01*
X122100Y294999D01*
X120811Y295169D01*
X120811Y295169D01*
X110500D01*
X109211Y294999D01*
X108010Y294501D01*
X106979Y293710D01*
X106187Y292679D01*
X105690Y291478D01*
X105520Y290189D01*
X105690Y288900D01*
X106187Y287699D01*
X106979Y286668D01*
X108010Y285876D01*
X109211Y285379D01*
X110500Y285209D01*
X118748D01*
X124985Y278973D01*
Y263086D01*
X124495Y262988D01*
X124404Y263206D01*
X123148Y265257D01*
X121586Y267086D01*
X119757Y268648D01*
X117706Y269904D01*
X115484Y270825D01*
X113146Y271386D01*
X110748Y271575D01*
X108350Y271386D01*
X106012Y270825D01*
X103790Y269904D01*
X101739Y268648D01*
X99910Y267086D01*
X98348Y265257D01*
X97092Y263206D01*
X96171Y260984D01*
X96000Y260270D01*
X95500Y260330D01*
Y362903D01*
X96000Y362962D01*
X96171Y362248D01*
X97092Y360026D01*
X98348Y357975D01*
X99910Y356147D01*
X101739Y354585D01*
X103790Y353328D01*
X106012Y352408D01*
X108350Y351846D01*
X110748Y351658D01*
X113146Y351846D01*
X115484Y352408D01*
X117706Y353328D01*
X119757Y354585D01*
X121586Y356147D01*
X123148Y357975D01*
X124404Y360026D01*
X125325Y362248D01*
X125886Y364587D01*
X126075Y366984D01*
X125886Y369382D01*
X125325Y371721D01*
X124404Y373942D01*
X123148Y375993D01*
X121586Y377822D01*
X119757Y379384D01*
X117706Y380641D01*
X115484Y381561D01*
X113146Y382122D01*
X110748Y382311D01*
X108350Y382122D01*
X106012Y381561D01*
X103790Y380641D01*
X101739Y379384D01*
X99910Y377822D01*
X98348Y375993D01*
X97092Y373942D01*
X96171Y371721D01*
X96000Y371007D01*
X95500Y371066D01*
Y401667D01*
X172655Y453103D01*
X200647Y463036D01*
X201021Y462638D01*
X200750Y461625D01*
Y460375D01*
X201074Y459167D01*
X201699Y458083D01*
X202583Y457199D01*
X203667Y456574D01*
X204875Y456250D01*
X206125D01*
X207333Y456574D01*
X208417Y457199D01*
X209301Y458083D01*
X209926Y459167D01*
X210250Y460375D01*
Y461625D01*
X209926Y462833D01*
X209301Y463917D01*
X208417Y464801D01*
X207869Y465117D01*
X207915Y465615D01*
X224500Y471500D01*
X249875Y473739D01*
X249996Y473248D01*
X249231Y472931D01*
X248291Y472209D01*
X247569Y471269D01*
X247116Y470175D01*
X247027Y469500D01*
X253000D01*
X258973D01*
X258884Y470175D01*
X258431Y471269D01*
X257709Y472209D01*
X256769Y472931D01*
X255675Y473384D01*
X254500Y473539D01*
X253295D01*
X253273Y474039D01*
X292500Y477500D01*
X353000Y469500D01*
D02*
G37*
G36*
X306883Y408383D02*
X307503Y407907D01*
X308225Y407608D01*
X309000Y407506D01*
X325068D01*
X325626Y407184D01*
X326531Y406941D01*
X327469D01*
X328374Y407184D01*
X329185Y407652D01*
X329848Y408315D01*
X330316Y409126D01*
X330559Y410031D01*
Y410969D01*
X330426Y411466D01*
X330834Y411874D01*
X330897Y411858D01*
X331818D01*
X332406Y412015D01*
X335272Y409150D01*
X335065Y408650D01*
X334454D01*
X333398Y408367D01*
X332452Y407821D01*
X331680Y407048D01*
X331133Y406102D01*
X330850Y405046D01*
Y405000D01*
X335000D01*
Y404500D01*
X335500D01*
Y400350D01*
X335546D01*
X336602Y400633D01*
X337548Y401180D01*
X338320Y401952D01*
X338867Y402898D01*
X339150Y403954D01*
Y404565D01*
X339650Y404772D01*
X342378Y402043D01*
Y386268D01*
X342128Y386123D01*
X341476Y385472D01*
X341016Y384674D01*
X340777Y383783D01*
Y382862D01*
X341016Y381972D01*
X341476Y381174D01*
X341566Y381084D01*
X341375Y380622D01*
X337582D01*
X337448Y381122D01*
X337548Y381179D01*
X338320Y381952D01*
X338867Y382898D01*
X339150Y383954D01*
Y385046D01*
X338867Y386102D01*
X338320Y387048D01*
X337548Y387821D01*
X336602Y388367D01*
X335546Y388650D01*
X334454D01*
X333398Y388367D01*
X332452Y387821D01*
X331680Y387048D01*
X331133Y386102D01*
X330850Y385046D01*
Y384150D01*
X330358Y383935D01*
X321887Y392407D01*
X321361Y392758D01*
X320921Y392846D01*
X320716Y393348D01*
X320820Y393452D01*
X321367Y394398D01*
X321650Y395454D01*
Y396546D01*
X321367Y397602D01*
X320820Y398548D01*
X320048Y399321D01*
X319102Y399867D01*
X318046Y400150D01*
X316954D01*
X315898Y399867D01*
X314952Y399321D01*
X314179Y398548D01*
X313633Y397602D01*
X313350Y396546D01*
Y395454D01*
X313633Y394398D01*
X314179Y393452D01*
X314284Y393348D01*
X314079Y392846D01*
X313639Y392758D01*
X313113Y392407D01*
X309079Y388373D01*
X308046Y388650D01*
X306954D01*
X305898Y388367D01*
X304952Y387821D01*
X304180Y387048D01*
X303633Y386102D01*
X303350Y385046D01*
Y383954D01*
X303633Y382898D01*
X304180Y381952D01*
X304952Y381179D01*
X305898Y380633D01*
X306954Y380350D01*
X308046D01*
X309102Y380633D01*
X310048Y381179D01*
X310821Y381952D01*
X311367Y382898D01*
X311650Y383954D01*
Y385046D01*
X311373Y386079D01*
X314932Y389638D01*
X320068D01*
X331853Y377853D01*
X332379Y377502D01*
X332491Y377480D01*
X332441Y376980D01*
X322480D01*
Y384000D01*
X322310Y385289D01*
X321813Y386490D01*
X321021Y387521D01*
X319990Y388313D01*
X318789Y388810D01*
X317500Y388980D01*
X316211Y388810D01*
X315010Y388313D01*
X313979Y387521D01*
X313188Y386490D01*
X312690Y385289D01*
X312520Y384000D01*
Y376980D01*
X278063D01*
X272480Y382563D01*
Y384500D01*
X272310Y385789D01*
X271813Y386990D01*
X271021Y388021D01*
X269990Y388812D01*
X268789Y389310D01*
X267500Y389480D01*
X266211Y389310D01*
X265010Y388812D01*
X263979Y388021D01*
X263188Y386990D01*
X262690Y385789D01*
X262520Y384500D01*
Y380500D01*
X262520Y380500D01*
X262690Y379211D01*
X263188Y378010D01*
X263979Y376979D01*
X272479Y368479D01*
X272479Y368479D01*
X273510Y367688D01*
X274711Y367190D01*
X276000Y367020D01*
X276000Y367020D01*
X378950D01*
X378950Y367020D01*
X380239Y367190D01*
X381440Y367688D01*
X382471Y368479D01*
X403040Y389048D01*
X403520Y388821D01*
Y379563D01*
X389937Y365980D01*
X270063D01*
X255937Y380105D01*
X256196Y380554D01*
X256954Y380350D01*
X258046D01*
X259102Y380633D01*
X260048Y381179D01*
X260821Y381952D01*
X261367Y382898D01*
X261650Y383954D01*
Y385046D01*
X261367Y386102D01*
X260821Y387048D01*
X260048Y387821D01*
X259102Y388367D01*
X258099Y388635D01*
X251572Y395163D01*
X251650Y395454D01*
Y396546D01*
X251367Y397602D01*
X250820Y398548D01*
X250494Y398874D01*
Y403500D01*
X250392Y404275D01*
X250093Y404997D01*
X249617Y405617D01*
X244734Y410500D01*
X252609Y418375D01*
X296891D01*
X306883Y408383D01*
D02*
G37*
G36*
X459124Y379101D02*
X460995Y378651D01*
X462774Y377915D01*
X464415Y376909D01*
X465879Y375659D01*
X467129Y374195D01*
X468135Y372553D01*
X468872Y370775D01*
X469321Y368903D01*
X469472Y366984D01*
X469321Y365065D01*
X468872Y363193D01*
X468135Y361415D01*
X467129Y359774D01*
X465879Y358310D01*
X464415Y357060D01*
X462774Y356054D01*
X460995Y355317D01*
X459124Y354868D01*
X457205Y354717D01*
X455286Y354868D01*
X453414Y355317D01*
X451636Y356054D01*
X449994Y357060D01*
X448530Y358310D01*
X447280Y359774D01*
X446274Y361415D01*
X445538Y363193D01*
X445088Y365065D01*
X444937Y366984D01*
X445088Y368903D01*
X445538Y370775D01*
X446274Y372553D01*
X447280Y374195D01*
X448530Y375659D01*
X449994Y376909D01*
X451636Y377915D01*
X453414Y378651D01*
X455286Y379101D01*
X457205Y379252D01*
X459124Y379101D01*
D02*
G37*
G36*
X112667D02*
X114539Y378651D01*
X116317Y377915D01*
X117959Y376909D01*
X119422Y375659D01*
X120673Y374195D01*
X121678Y372553D01*
X122415Y370775D01*
X122864Y368903D01*
X123015Y366984D01*
X122864Y365065D01*
X122415Y363193D01*
X121678Y361415D01*
X120673Y359774D01*
X119422Y358310D01*
X117959Y357060D01*
X116317Y356054D01*
X114539Y355317D01*
X112667Y354868D01*
X110748Y354717D01*
X108829Y354868D01*
X106957Y355317D01*
X105179Y356054D01*
X103537Y357060D01*
X102074Y358310D01*
X100823Y359774D01*
X99818Y361415D01*
X99081Y363193D01*
X98632Y365065D01*
X98481Y366984D01*
X98632Y368903D01*
X99081Y370775D01*
X99818Y372553D01*
X100823Y374195D01*
X102074Y375659D01*
X103537Y376909D01*
X105179Y377915D01*
X106957Y378651D01*
X108829Y379101D01*
X110748Y379252D01*
X112667Y379101D01*
D02*
G37*
G36*
X249919Y354419D02*
X250415Y354087D01*
X251000Y353971D01*
X254842D01*
X255199Y353351D01*
X255851Y352699D01*
X256649Y352238D01*
X257539Y352000D01*
X258461D01*
X259351Y352238D01*
X260149Y352699D01*
X260801Y353351D01*
X261262Y354149D01*
X261500Y355039D01*
Y355558D01*
X262000Y355765D01*
X264117Y353648D01*
X264773Y353210D01*
X265547Y353056D01*
X363583D01*
X366977Y349662D01*
Y348971D01*
X366160Y348633D01*
X365129Y347841D01*
X364337Y346810D01*
X363921Y345803D01*
X363379D01*
X362963Y346810D01*
X362171Y347841D01*
X361140Y348633D01*
X359939Y349130D01*
X358650Y349300D01*
X357361Y349130D01*
X356160Y348633D01*
X355191Y347889D01*
X352086Y350994D01*
X351560Y351346D01*
X350940Y351469D01*
X195078D01*
X189493Y357054D01*
X188967Y357405D01*
X188346Y357529D01*
X180764D01*
X178000Y360293D01*
Y360961D01*
X177761Y361851D01*
X177404Y362471D01*
X177640Y362971D01*
X241367D01*
X249919Y354419D01*
D02*
G37*
G36*
X294338Y341830D02*
X295129Y340799D01*
X296160Y340007D01*
X297361Y339510D01*
X298650Y339340D01*
X299939Y339510D01*
X301140Y340007D01*
X302171Y340799D01*
X302962Y341830D01*
X303379Y342837D01*
X303921D01*
X304338Y341830D01*
X305129Y340799D01*
X306160Y340007D01*
X307361Y339510D01*
X308496Y339361D01*
X308725Y338882D01*
X306866Y337023D01*
X251373D01*
X251301Y337149D01*
X250649Y337801D01*
X249851Y338262D01*
X248961Y338500D01*
X248039D01*
X247149Y338262D01*
X246351Y337801D01*
X245699Y337149D01*
X245238Y336351D01*
X245000Y335461D01*
Y334539D01*
X245238Y333649D01*
X245699Y332851D01*
X246027Y332523D01*
X245820Y332023D01*
X240684D01*
X240673Y332034D01*
Y339814D01*
X241140Y340007D01*
X242171Y340799D01*
X242963Y341830D01*
X243379Y342837D01*
X243921D01*
X244338Y341830D01*
X245129Y340799D01*
X246160Y340007D01*
X247361Y339510D01*
X248650Y339340D01*
X249939Y339510D01*
X251140Y340007D01*
X252171Y340799D01*
X252962Y341830D01*
X253379Y342837D01*
X253921D01*
X254338Y341830D01*
X255129Y340799D01*
X256160Y340007D01*
X257361Y339510D01*
X258650Y339340D01*
X259939Y339510D01*
X261140Y340007D01*
X262171Y340799D01*
X262963Y341830D01*
X263379Y342837D01*
X263921D01*
X264337Y341830D01*
X265129Y340799D01*
X266160Y340007D01*
X267361Y339510D01*
X268650Y339340D01*
X269939Y339510D01*
X271140Y340007D01*
X272171Y340799D01*
X272962Y341830D01*
X273379Y342837D01*
X273921D01*
X274338Y341830D01*
X275129Y340799D01*
X276160Y340007D01*
X277361Y339510D01*
X278650Y339340D01*
X279939Y339510D01*
X281140Y340007D01*
X282171Y340799D01*
X282962Y341830D01*
X283379Y342837D01*
X283921D01*
X284337Y341830D01*
X285129Y340799D01*
X286160Y340007D01*
X287361Y339510D01*
X288650Y339340D01*
X289939Y339510D01*
X291140Y340007D01*
X292171Y340799D01*
X292963Y341830D01*
X293379Y342837D01*
X293921D01*
X294338Y341830D01*
D02*
G37*
G36*
X427671Y337977D02*
X427339Y337888D01*
X426404Y337348D01*
X425640Y336585D01*
X425100Y335650D01*
X425066Y335523D01*
X411000D01*
X410965Y335516D01*
X410719Y335977D01*
X413219Y338477D01*
X427605D01*
X427671Y337977D01*
D02*
G37*
G36*
X188023Y353937D02*
X187838Y353415D01*
X187149Y353230D01*
X186351Y352769D01*
X185699Y352118D01*
X185239Y351320D01*
X185000Y350429D01*
Y349508D01*
X185239Y348618D01*
X185699Y347819D01*
X186351Y347168D01*
X186477Y347095D01*
Y341500D01*
X186631Y340726D01*
X187069Y340069D01*
X191143Y335996D01*
X191000Y335461D01*
Y334539D01*
X191014Y334486D01*
X190566Y334228D01*
X180622Y344172D01*
Y348317D01*
X180827D01*
X181718Y348555D01*
X182516Y349016D01*
X183167Y349668D01*
X183628Y350466D01*
X183867Y351356D01*
Y352277D01*
X183628Y353168D01*
X183271Y353785D01*
X183509Y354286D01*
X187674D01*
X188023Y353937D01*
D02*
G37*
G36*
X193259Y348701D02*
X193785Y348349D01*
X194406Y348226D01*
X194871D01*
X195040Y347726D01*
X194337Y346810D01*
X193840Y345609D01*
X193670Y344320D01*
X193840Y343031D01*
X194337Y341830D01*
X195129Y340799D01*
X196160Y340007D01*
X197361Y339510D01*
X198650Y339340D01*
X199939Y339510D01*
X201140Y340007D01*
X202171Y340799D01*
X202962Y341830D01*
X203379Y342837D01*
X203921D01*
X204338Y341830D01*
X205129Y340799D01*
X206160Y340007D01*
X207361Y339510D01*
X208150Y339406D01*
Y344320D01*
X209150D01*
Y339406D01*
X209939Y339510D01*
X211140Y340007D01*
X212171Y340799D01*
X212963Y341830D01*
X213379Y342837D01*
X213921D01*
X214337Y341830D01*
X215129Y340799D01*
X216160Y340007D01*
X217361Y339510D01*
X218650Y339340D01*
X219939Y339510D01*
X221140Y340007D01*
X222171Y340799D01*
X222962Y341830D01*
X223379Y342837D01*
X223921D01*
X224338Y341830D01*
X225129Y340799D01*
X226160Y340007D01*
X227361Y339510D01*
X228650Y339340D01*
X229939Y339510D01*
X231140Y340007D01*
X232171Y340799D01*
X232962Y341830D01*
X233379Y342837D01*
X233921D01*
X234337Y341830D01*
X235129Y340799D01*
X236160Y340007D01*
X236627Y339814D01*
Y331196D01*
X236781Y330421D01*
X237219Y329765D01*
X238415Y328569D01*
X239071Y328131D01*
X239846Y327977D01*
X245682D01*
X245791Y327477D01*
X244953Y326993D01*
X244180Y326221D01*
X243634Y325274D01*
X243351Y324219D01*
Y323126D01*
X243634Y322071D01*
X244180Y321125D01*
X244953Y320352D01*
X245899Y319806D01*
X246955Y319523D01*
X248047D01*
X249103Y319806D01*
X250049Y320352D01*
X250821Y321125D01*
X251368Y322071D01*
X251651Y323126D01*
Y324219D01*
X251368Y325274D01*
X250821Y326221D01*
X250049Y326993D01*
X249211Y327477D01*
X249320Y327977D01*
X255682D01*
X255791Y327477D01*
X254953Y326993D01*
X254181Y326221D01*
X253634Y325274D01*
X253351Y324219D01*
Y323126D01*
X253634Y322071D01*
X254181Y321125D01*
X254953Y320352D01*
X255899Y319806D01*
X256955Y319523D01*
X258047D01*
X259080Y319800D01*
X270527Y308353D01*
X271053Y308002D01*
X271674Y307878D01*
X285221D01*
X285429Y307378D01*
X285199Y307149D01*
X284738Y306351D01*
X284500Y305461D01*
Y304539D01*
X284738Y303649D01*
X285199Y302851D01*
X285548Y302503D01*
Y288230D01*
X285172Y287941D01*
X284380Y286910D01*
X283963Y285903D01*
X283422D01*
X283005Y286910D01*
X282214Y287941D01*
X281183Y288733D01*
X280314Y289092D01*
Y292807D01*
X280191Y293428D01*
X279839Y293954D01*
X263147Y310647D01*
X262621Y310998D01*
X262000Y311122D01*
X213672D01*
X193728Y331066D01*
X193986Y331514D01*
X194039Y331500D01*
X194961D01*
X195851Y331738D01*
X196649Y332199D01*
X197301Y332851D01*
X197761Y333649D01*
X198000Y334539D01*
Y335461D01*
X197761Y336351D01*
X197301Y337149D01*
X196649Y337801D01*
X195851Y338262D01*
X194961Y338500D01*
X194361D01*
X190523Y342338D01*
Y347095D01*
X190649Y347168D01*
X191301Y347819D01*
X191762Y348618D01*
X191946Y349307D01*
X192468Y349492D01*
X193259Y348701D01*
D02*
G37*
G36*
X404662Y330023D02*
X404162Y329523D01*
X342680D01*
X342473Y330023D01*
X342801Y330351D01*
X342873Y330477D01*
X404381D01*
X404416Y330484D01*
X404662Y330023D01*
D02*
G37*
G36*
X285791Y327477D02*
X284953Y326993D01*
X284180Y326221D01*
X283634Y325274D01*
X283351Y324219D01*
Y323126D01*
X283634Y322071D01*
X284180Y321125D01*
X284953Y320352D01*
X285899Y319806D01*
X286955Y319523D01*
X288047D01*
X289103Y319806D01*
X289292Y319915D01*
X294123Y315084D01*
X293932Y314622D01*
X278845D01*
X271374Y322093D01*
X271651Y323126D01*
Y324219D01*
X271368Y325274D01*
X270821Y326221D01*
X270049Y326993D01*
X269211Y327477D01*
X269320Y327977D01*
X275682D01*
X275791Y327477D01*
X274953Y326993D01*
X274181Y326221D01*
X273634Y325274D01*
X273351Y324219D01*
Y323126D01*
X273634Y322071D01*
X274181Y321125D01*
X274953Y320352D01*
X275899Y319806D01*
X276955Y319523D01*
X278047D01*
X279103Y319806D01*
X280049Y320352D01*
X280821Y321125D01*
X281368Y322071D01*
X281651Y323126D01*
Y324219D01*
X281368Y325274D01*
X280821Y326221D01*
X280049Y326993D01*
X279211Y327477D01*
X279320Y327977D01*
X285682D01*
X285791Y327477D01*
D02*
G37*
G36*
X295791D02*
X294953Y326993D01*
X294180Y326221D01*
X293634Y325274D01*
X293351Y324219D01*
Y323126D01*
X293634Y322071D01*
X294180Y321125D01*
X294953Y320352D01*
X295899Y319806D01*
X296955Y319523D01*
X298047D01*
X299080Y319800D01*
X301258Y317622D01*
X301051Y317122D01*
X296672D01*
X291443Y322351D01*
X291651Y323126D01*
Y324219D01*
X291368Y325274D01*
X290822Y326221D01*
X290049Y326993D01*
X289211Y327477D01*
X289320Y327977D01*
X295682D01*
X295791Y327477D01*
D02*
G37*
G36*
X167352Y360982D02*
X167087Y360585D01*
X166971Y360000D01*
Y331633D01*
X151643Y316306D01*
X151478Y316472D01*
X150679Y316933D01*
X149988Y317118D01*
X149802Y317639D01*
X165581Y333419D01*
X165913Y333915D01*
X166029Y334500D01*
Y360367D01*
X166964Y361301D01*
X167352Y360982D01*
D02*
G37*
G36*
X106549Y322433D02*
X107469Y321514D01*
X108594Y320864D01*
X109850Y320528D01*
X111150D01*
X112406Y320864D01*
X113531Y321514D01*
X113933Y321915D01*
X114394Y321724D01*
Y316365D01*
X113894Y316231D01*
X113821Y316359D01*
X113048Y317131D01*
X112102Y317678D01*
X111046Y317961D01*
X109954D01*
X108898Y317678D01*
X107952Y317131D01*
X107179Y316359D01*
X106633Y315413D01*
X106480Y314840D01*
X105980Y314905D01*
Y322454D01*
X106463Y322584D01*
X106549Y322433D01*
D02*
G37*
G36*
X265791Y327477D02*
X264953Y326993D01*
X264180Y326221D01*
X263634Y325274D01*
X263351Y324219D01*
Y323126D01*
X263634Y322071D01*
X264180Y321125D01*
X264953Y320352D01*
X265899Y319806D01*
X266955Y319523D01*
X268047D01*
X269080Y319800D01*
X277027Y311853D01*
X277374Y311622D01*
X277222Y311122D01*
X272345D01*
X261374Y322093D01*
X261651Y323126D01*
Y324219D01*
X261368Y325274D01*
X260822Y326221D01*
X260049Y326993D01*
X259211Y327477D01*
X259320Y327977D01*
X265682D01*
X265791Y327477D01*
D02*
G37*
G36*
X345190Y288221D02*
X345172Y287941D01*
X344380Y286910D01*
X343963Y285903D01*
X343422D01*
X343005Y286910D01*
X342214Y287941D01*
X341182Y288733D01*
X340538Y288999D01*
Y290084D01*
X340415Y290704D01*
X340063Y291230D01*
X314915Y316378D01*
X315122Y316878D01*
X316532D01*
X345190Y288221D01*
D02*
G37*
G36*
X337073Y289634D02*
X336965Y289048D01*
X336203Y288733D01*
X335172Y287941D01*
X334380Y286910D01*
X333963Y285903D01*
X333422D01*
X333005Y286910D01*
X332214Y287941D01*
X331183Y288733D01*
X330314Y289092D01*
Y293307D01*
X330191Y293928D01*
X329839Y294454D01*
X310877Y313416D01*
X311068Y313878D01*
X312828D01*
X337073Y289634D01*
D02*
G37*
G36*
X176993Y350884D02*
X177105Y350466D01*
X177463Y349845D01*
X177378Y349417D01*
Y343500D01*
X177502Y342879D01*
X177853Y342353D01*
X211853Y308353D01*
X212379Y308002D01*
X213000Y307878D01*
X261328D01*
X277071Y292136D01*
Y289092D01*
X276203Y288733D01*
X275172Y287941D01*
X274380Y286910D01*
X273963Y285903D01*
X273422D01*
X273005Y286910D01*
X272214Y287941D01*
X271182Y288733D01*
X269982Y289230D01*
X269685Y289269D01*
Y295937D01*
X269562Y296557D01*
X269210Y297083D01*
X261647Y304647D01*
X261121Y304998D01*
X260500Y305122D01*
X212672D01*
X176122Y341672D01*
Y350871D01*
X176503Y351090D01*
X176993Y350884D01*
D02*
G37*
G36*
X327071Y292636D02*
Y289092D01*
X326203Y288733D01*
X325172Y287941D01*
X324380Y286910D01*
X323963Y285903D01*
X323422D01*
X323005Y286910D01*
X322214Y287941D01*
X321182Y288733D01*
X320314Y289092D01*
Y297307D01*
X320191Y297928D01*
X319839Y298454D01*
X307647Y310647D01*
X307300Y310878D01*
X307452Y311378D01*
X308328D01*
X327071Y292636D01*
D02*
G37*
G36*
X317071Y296636D02*
Y289092D01*
X316203Y288733D01*
X315172Y287941D01*
X314380Y286910D01*
X313963Y285903D01*
X313422D01*
X313005Y286910D01*
X312214Y287941D01*
X311182Y288733D01*
X309981Y289230D01*
X308693Y289400D01*
X307404Y289230D01*
X306203Y288733D01*
X305172Y287941D01*
X304380Y286910D01*
X303963Y285903D01*
X303422D01*
X303005Y286910D01*
X302214Y287941D01*
X301183Y288733D01*
X299981Y289230D01*
X298693Y289400D01*
X297404Y289230D01*
X296203Y288733D01*
X295172Y287941D01*
X294380Y286910D01*
X293963Y285903D01*
X293422D01*
X293005Y286910D01*
X292214Y287941D01*
X291182Y288733D01*
X289982Y289230D01*
X289594Y289281D01*
Y301879D01*
X290149Y302199D01*
X290801Y302851D01*
X291262Y303649D01*
X291500Y304539D01*
Y305461D01*
X291262Y306351D01*
X290801Y307149D01*
X290571Y307378D01*
X290779Y307878D01*
X305828D01*
X317071Y296636D01*
D02*
G37*
G36*
X294380Y281930D02*
X295172Y280899D01*
X296203Y280107D01*
X296670Y279914D01*
Y264610D01*
X212990D01*
X198618Y278982D01*
X198846Y279461D01*
X199981Y279610D01*
X201183Y280107D01*
X202214Y280899D01*
X203005Y281930D01*
X203422Y282937D01*
X203963D01*
X204380Y281930D01*
X205172Y280899D01*
X206203Y280107D01*
X207404Y279610D01*
X208693Y279440D01*
X209981Y279610D01*
X211182Y280107D01*
X212214Y280899D01*
X213005Y281930D01*
X213422Y282937D01*
X213963D01*
X214380Y281930D01*
X215172Y280899D01*
X216203Y280107D01*
X217404Y279610D01*
X218693Y279440D01*
X219982Y279610D01*
X221182Y280107D01*
X222214Y280899D01*
X223005Y281930D01*
X223422Y282937D01*
X223963D01*
X224380Y281930D01*
X225172Y280899D01*
X226203Y280107D01*
X227404Y279610D01*
X228693Y279440D01*
X229981Y279610D01*
X231183Y280107D01*
X232214Y280899D01*
X233005Y281930D01*
X233422Y282937D01*
X233963D01*
X234380Y281930D01*
X235172Y280899D01*
X236203Y280107D01*
X237404Y279610D01*
X238693Y279440D01*
X239982Y279610D01*
X241182Y280107D01*
X242214Y280899D01*
X243005Y281930D01*
X243422Y282937D01*
X243963D01*
X244380Y281930D01*
X245172Y280899D01*
X246203Y280107D01*
X247404Y279610D01*
X248693Y279440D01*
X249981Y279610D01*
X251183Y280107D01*
X252214Y280899D01*
X253005Y281930D01*
X253422Y282937D01*
X253963D01*
X254380Y281930D01*
X255172Y280899D01*
X256203Y280107D01*
X257404Y279610D01*
X258693Y279440D01*
X259981Y279610D01*
X261182Y280107D01*
X262214Y280899D01*
X263005Y281930D01*
X263422Y282937D01*
X263963D01*
X264380Y281930D01*
X265172Y280899D01*
X266203Y280107D01*
X267404Y279610D01*
X268693Y279440D01*
X269982Y279610D01*
X271182Y280107D01*
X272214Y280899D01*
X273005Y281930D01*
X273422Y282937D01*
X273963D01*
X274380Y281930D01*
X275172Y280899D01*
X276203Y280107D01*
X277404Y279610D01*
X278693Y279440D01*
X279981Y279610D01*
X281183Y280107D01*
X282214Y280899D01*
X283005Y281930D01*
X283422Y282937D01*
X283963D01*
X284380Y281930D01*
X285172Y280899D01*
X286203Y280107D01*
X287404Y279610D01*
X288693Y279440D01*
X289982Y279610D01*
X291182Y280107D01*
X292214Y280899D01*
X293005Y281930D01*
X293422Y282937D01*
X293963D01*
X294380Y281930D01*
D02*
G37*
G36*
X178679Y300872D02*
X178738Y300649D01*
X179199Y299851D01*
X179851Y299199D01*
X179977Y299127D01*
Y292739D01*
X180131Y291965D01*
X180569Y291308D01*
X210721Y261156D01*
X211378Y260718D01*
X212152Y260564D01*
X298693D01*
X299467Y260718D01*
X300123Y261156D01*
X300562Y261812D01*
X300716Y262587D01*
X300705Y262640D01*
X300716Y262693D01*
Y279914D01*
X301183Y280107D01*
X302214Y280899D01*
X303005Y281930D01*
X303422Y282937D01*
X303963D01*
X304380Y281930D01*
X305172Y280899D01*
X306203Y280107D01*
X306670Y279914D01*
Y262618D01*
X302575Y258523D01*
X210338D01*
X177023Y291838D01*
Y299627D01*
X177149Y299699D01*
X177801Y300351D01*
X178142Y300942D01*
X178679Y300872D01*
D02*
G37*
G36*
X459124Y268364D02*
X460995Y267915D01*
X462774Y267178D01*
X464415Y266173D01*
X465879Y264922D01*
X467129Y263459D01*
X468135Y261817D01*
X468872Y260039D01*
X469321Y258167D01*
X469472Y256248D01*
X469321Y254329D01*
X468872Y252457D01*
X468135Y250679D01*
X467129Y249038D01*
X465879Y247574D01*
X464415Y246323D01*
X462774Y245318D01*
X460995Y244581D01*
X459124Y244132D01*
X457205Y243981D01*
X455286Y244132D01*
X453414Y244581D01*
X451636Y245318D01*
X449994Y246323D01*
X448530Y247574D01*
X447280Y249038D01*
X446274Y250679D01*
X445538Y252457D01*
X445088Y254329D01*
X444937Y256248D01*
X445088Y258167D01*
X445538Y260039D01*
X446274Y261817D01*
X447280Y263459D01*
X448530Y264922D01*
X449994Y266173D01*
X451636Y267178D01*
X453414Y267915D01*
X455286Y268364D01*
X457205Y268515D01*
X459124Y268364D01*
D02*
G37*
G36*
X112667D02*
X114539Y267915D01*
X116317Y267178D01*
X117959Y266173D01*
X119422Y264922D01*
X120673Y263459D01*
X121678Y261817D01*
X122415Y260039D01*
X122864Y258167D01*
X123015Y256248D01*
X122864Y254329D01*
X122415Y252457D01*
X121678Y250679D01*
X120673Y249038D01*
X119422Y247574D01*
X117959Y246323D01*
X116317Y245318D01*
X114539Y244581D01*
X112667Y244132D01*
X110748Y243981D01*
X108829Y244132D01*
X106957Y244581D01*
X105179Y245318D01*
X103537Y246323D01*
X102074Y247574D01*
X100823Y249038D01*
X99818Y250679D01*
X99081Y252457D01*
X98632Y254329D01*
X98481Y256248D01*
X98632Y258167D01*
X99081Y260039D01*
X99818Y261817D01*
X100823Y263459D01*
X102074Y264922D01*
X103537Y266173D01*
X105179Y267178D01*
X106957Y267915D01*
X108829Y268364D01*
X110748Y268515D01*
X112667Y268364D01*
D02*
G37*
G36*
X96171Y251512D02*
X97092Y249290D01*
X98348Y247239D01*
X99910Y245410D01*
X101739Y243848D01*
X103790Y242592D01*
X104035Y242490D01*
X103937Y242000D01*
X96000D01*
X95962Y241962D01*
X95500Y242153D01*
Y252167D01*
X96000Y252226D01*
X96171Y251512D01*
D02*
G37*
%LPC*%
G36*
X316000Y473539D02*
X315000D01*
Y469500D01*
X320473D01*
X320384Y470175D01*
X319931Y471269D01*
X319209Y472209D01*
X318269Y472931D01*
X317175Y473384D01*
X316000Y473539D01*
D02*
G37*
G36*
X314000D02*
X313000D01*
X311825Y473384D01*
X310731Y472931D01*
X309791Y472209D01*
X309069Y471269D01*
X308616Y470175D01*
X308527Y469500D01*
X314000D01*
Y473539D01*
D02*
G37*
G36*
X285106Y470971D02*
Y465500D01*
X288893D01*
Y466750D01*
X288747Y467860D01*
X288319Y468893D01*
X287637Y469781D01*
X286750Y470462D01*
X285716Y470891D01*
X285106Y470971D01*
D02*
G37*
G36*
X284106D02*
X283497Y470891D01*
X282463Y470462D01*
X281575Y469781D01*
X280894Y468893D01*
X280466Y467860D01*
X280320Y466750D01*
Y465500D01*
X284106D01*
Y470971D01*
D02*
G37*
G36*
X320473Y468500D02*
X315000D01*
Y464461D01*
X316000D01*
X317175Y464616D01*
X318269Y465069D01*
X319209Y465791D01*
X319931Y466731D01*
X320384Y467825D01*
X320473Y468500D01*
D02*
G37*
G36*
X314000D02*
X308527D01*
X308616Y467825D01*
X309069Y466731D01*
X309791Y465791D01*
X310731Y465069D01*
X311825Y464616D01*
X313000Y464461D01*
X314000D01*
Y468500D01*
D02*
G37*
G36*
X258973D02*
X253500D01*
Y464461D01*
X254500D01*
X255675Y464616D01*
X256769Y465069D01*
X257709Y465791D01*
X258431Y466731D01*
X258884Y467825D01*
X258973Y468500D01*
D02*
G37*
G36*
X252500D02*
X247027D01*
X247116Y467825D01*
X247569Y466731D01*
X248291Y465791D01*
X249231Y465069D01*
X250325Y464616D01*
X251500Y464461D01*
X252500D01*
Y468500D01*
D02*
G37*
G36*
X230925Y465450D02*
X230800D01*
Y461200D01*
X235050D01*
Y461325D01*
X234726Y462533D01*
X234101Y463617D01*
X233217Y464501D01*
X232133Y465126D01*
X230925Y465450D01*
D02*
G37*
G36*
X229800D02*
X229675D01*
X228467Y465126D01*
X227383Y464501D01*
X226499Y463617D01*
X225874Y462533D01*
X225550Y461325D01*
Y461200D01*
X229800D01*
Y465450D01*
D02*
G37*
G36*
X294606Y471037D02*
X293497Y470891D01*
X292463Y470462D01*
X291575Y469781D01*
X290894Y468893D01*
X290466Y467860D01*
X290320Y466750D01*
Y463250D01*
X290409Y462572D01*
X288801Y460963D01*
X288377Y461247D01*
X288747Y462141D01*
X288893Y463250D01*
Y464500D01*
X280320D01*
Y463250D01*
X280466Y462141D01*
X280894Y461107D01*
X281575Y460219D01*
X282463Y459538D01*
X283497Y459109D01*
X284104Y459029D01*
X284072Y458529D01*
X278927D01*
X278856Y459000D01*
X278856Y459029D01*
Y471000D01*
X270356D01*
Y459029D01*
X270356Y459000D01*
X270285Y458529D01*
X267658D01*
X267301Y459149D01*
X266649Y459801D01*
X265851Y460261D01*
X264961Y460500D01*
X264039D01*
X263149Y460261D01*
X262351Y459801D01*
X261699Y459149D01*
X261239Y458351D01*
X261000Y457461D01*
Y456539D01*
X261239Y455649D01*
X261699Y454851D01*
X262351Y454199D01*
X263149Y453738D01*
X264039Y453500D01*
X264961D01*
X265851Y453738D01*
X266649Y454199D01*
X267301Y454851D01*
X267658Y455471D01*
X287000D01*
X287585Y455587D01*
X288081Y455919D01*
X292032Y459869D01*
X292463Y459538D01*
X293497Y459109D01*
X294606Y458963D01*
X295716Y459109D01*
X296750Y459538D01*
X297637Y460219D01*
X298319Y461107D01*
X298747Y462141D01*
X298893Y463250D01*
Y466750D01*
X298747Y467860D01*
X298319Y468893D01*
X297637Y469781D01*
X296750Y470462D01*
X295716Y470891D01*
X294606Y471037D01*
D02*
G37*
G36*
X341125Y465750D02*
X339875D01*
X338667Y465426D01*
X337583Y464801D01*
X336699Y463917D01*
X336074Y462833D01*
X335750Y461625D01*
Y460375D01*
X336074Y459167D01*
X336699Y458083D01*
X337583Y457199D01*
X338667Y456574D01*
X339875Y456250D01*
X341125D01*
X342333Y456574D01*
X343417Y457199D01*
X344301Y458083D01*
X344926Y459167D01*
X345250Y460375D01*
Y461625D01*
X344926Y462833D01*
X344301Y463917D01*
X343417Y464801D01*
X342333Y465426D01*
X341125Y465750D01*
D02*
G37*
G36*
X370050Y460200D02*
X365800D01*
Y455950D01*
X365925D01*
X367133Y456274D01*
X368217Y456899D01*
X369101Y457783D01*
X369726Y458867D01*
X370050Y460075D01*
Y460200D01*
D02*
G37*
G36*
X364800D02*
X360550D01*
Y460075D01*
X360874Y458867D01*
X361499Y457783D01*
X362383Y456899D01*
X363467Y456274D01*
X364675Y455950D01*
X364800D01*
Y460200D01*
D02*
G37*
G36*
X235050D02*
X230800D01*
Y455950D01*
X230925D01*
X232133Y456274D01*
X233217Y456899D01*
X234101Y457783D01*
X234726Y458867D01*
X235050Y460075D01*
Y460200D01*
D02*
G37*
G36*
X229800D02*
X225550D01*
Y460075D01*
X225874Y458867D01*
X226499Y457783D01*
X227383Y456899D01*
X228467Y456274D01*
X229675Y455950D01*
X229800D01*
Y460200D01*
D02*
G37*
G36*
X284523Y453402D02*
X284500D01*
Y449933D01*
X287968D01*
Y449956D01*
X287698Y450965D01*
X287176Y451870D01*
X286437Y452609D01*
X285532Y453131D01*
X284523Y453402D01*
D02*
G37*
G36*
X283500D02*
X283477D01*
X282468Y453131D01*
X281563Y452609D01*
X280824Y451870D01*
X280302Y450965D01*
X280031Y449956D01*
Y449933D01*
X283500D01*
Y453402D01*
D02*
G37*
G36*
X294523D02*
X293478D01*
X292468Y453131D01*
X291563Y452609D01*
X290824Y451870D01*
X290302Y450965D01*
X290032Y449956D01*
Y448911D01*
X290302Y447901D01*
X290824Y446996D01*
X291563Y446257D01*
X292468Y445735D01*
X293478Y445465D01*
X294523D01*
X295532Y445735D01*
X296437Y446257D01*
X297176Y446996D01*
X297698Y447901D01*
X297969Y448911D01*
Y449956D01*
X297698Y450965D01*
X297176Y451870D01*
X296437Y452609D01*
X295532Y453131D01*
X294523Y453402D01*
D02*
G37*
G36*
X287968Y448933D02*
X284500D01*
Y445465D01*
X284523D01*
X285532Y445735D01*
X286437Y446257D01*
X287176Y446996D01*
X287698Y447901D01*
X287968Y448911D01*
Y448933D01*
D02*
G37*
G36*
X283500D02*
X280031D01*
Y448911D01*
X280302Y447901D01*
X280824Y446996D01*
X281563Y446257D01*
X282468Y445735D01*
X283477Y445465D01*
X283500D01*
Y448933D01*
D02*
G37*
G36*
X320500Y463500D02*
X308500D01*
Y454500D01*
X312378D01*
Y444969D01*
X311872D01*
X311386Y444873D01*
X310974Y444597D01*
X310698Y444185D01*
X310602Y443699D01*
Y442622D01*
X283105D01*
X277969Y447758D01*
Y453402D01*
X270031D01*
Y451122D01*
X263172D01*
X259000Y455293D01*
Y463500D01*
X247000D01*
Y454500D01*
X255735D01*
X255823Y454058D01*
X256175Y453532D01*
X261353Y448353D01*
X261879Y448002D01*
X262500Y447878D01*
X270031D01*
Y445465D01*
X275675D01*
X281286Y439853D01*
X281813Y439502D01*
X282433Y439378D01*
X310602D01*
Y437301D01*
X310698Y436815D01*
X310974Y436403D01*
X311386Y436128D01*
X311872Y436031D01*
X316301D01*
X316788Y436128D01*
X317200Y436403D01*
X317475Y436815D01*
X317572Y437301D01*
Y443699D01*
X317475Y444185D01*
X317200Y444597D01*
X316788Y444873D01*
X316301Y444969D01*
X315622D01*
Y454500D01*
X320500D01*
Y463500D01*
D02*
G37*
G36*
X340525Y446650D02*
X339275D01*
X338067Y446326D01*
X336983Y445701D01*
X336099Y444817D01*
X335474Y443733D01*
X335150Y442525D01*
Y441275D01*
X335474Y440067D01*
X336099Y438983D01*
X336983Y438099D01*
X338067Y437474D01*
X339275Y437150D01*
X340525D01*
X341733Y437474D01*
X342817Y438099D01*
X343701Y438983D01*
X344326Y440067D01*
X344650Y441275D01*
Y442525D01*
X344326Y443733D01*
X343701Y444817D01*
X342817Y445701D01*
X341733Y446326D01*
X340525Y446650D01*
D02*
G37*
G36*
X365625Y446250D02*
X364375D01*
X363167Y445926D01*
X362083Y445301D01*
X361199Y444417D01*
X360574Y443333D01*
X360250Y442125D01*
Y440875D01*
X360574Y439667D01*
X361199Y438583D01*
X362083Y437699D01*
X363167Y437074D01*
X364375Y436750D01*
X365625D01*
X366833Y437074D01*
X367917Y437699D01*
X368712Y438494D01*
X373109Y434097D01*
X372941Y433469D01*
Y432531D01*
X373183Y431626D01*
X373652Y430815D01*
X374315Y430152D01*
X375126Y429683D01*
X376031Y429441D01*
X376969D01*
X377874Y429683D01*
X378685Y430152D01*
X379348Y430815D01*
X379817Y431626D01*
X380059Y432531D01*
Y433469D01*
X379817Y434374D01*
X379348Y435185D01*
X378685Y435848D01*
X377874Y436316D01*
X376969Y436559D01*
X376031D01*
X375403Y436391D01*
X370356Y441438D01*
X369830Y441789D01*
X369750Y441805D01*
Y442125D01*
X369426Y443333D01*
X368801Y444417D01*
X367917Y445301D01*
X366833Y445926D01*
X365625Y446250D01*
D02*
G37*
G36*
X220500Y450523D02*
X197500D01*
X196726Y450369D01*
X196069Y449931D01*
X182650Y436511D01*
X182469Y436559D01*
X181531D01*
X180626Y436316D01*
X179815Y435848D01*
X179152Y435185D01*
X178683Y434374D01*
X178441Y433469D01*
Y432531D01*
X178683Y431626D01*
X179152Y430815D01*
X179815Y430152D01*
X180626Y429683D01*
X181531Y429441D01*
X182469D01*
X183374Y429683D01*
X184185Y430152D01*
X184848Y430815D01*
X185317Y431626D01*
X185559Y432531D01*
Y433469D01*
X185511Y433649D01*
X198338Y446477D01*
X202327D01*
X202461Y445977D01*
X201983Y445701D01*
X201099Y444817D01*
X200474Y443733D01*
X200150Y442525D01*
Y441275D01*
X200474Y440067D01*
X201099Y438983D01*
X201983Y438099D01*
X203067Y437474D01*
X204275Y437150D01*
X205525D01*
X206733Y437474D01*
X207817Y438099D01*
X208701Y438983D01*
X209326Y440067D01*
X209650Y441275D01*
Y442525D01*
X209326Y443733D01*
X208701Y444817D01*
X207817Y445701D01*
X207339Y445977D01*
X207473Y446477D01*
X219662D01*
X225011Y441128D01*
X225250Y440968D01*
Y440875D01*
X225574Y439667D01*
X226199Y438583D01*
X227083Y437699D01*
X228167Y437074D01*
X229375Y436750D01*
X230625D01*
X231675Y437031D01*
X237524Y431182D01*
X238050Y430831D01*
X237967Y430338D01*
X237877D01*
X236987Y430099D01*
X236189Y429638D01*
X235537Y428987D01*
X235076Y428189D01*
X234848Y427338D01*
X241827D01*
X241599Y428189D01*
X241139Y428987D01*
X240487Y429638D01*
X239689Y430099D01*
X239285Y430207D01*
X239351Y430707D01*
X276281D01*
X276347Y430207D01*
X275943Y430099D01*
X275145Y429638D01*
X274493Y428987D01*
X274032Y428189D01*
X273804Y427338D01*
X280783D01*
X280555Y428189D01*
X280352Y428542D01*
X280681Y428971D01*
X281210Y428829D01*
X282132D01*
X283022Y429068D01*
X283820Y429529D01*
X284472Y430180D01*
X284932Y430978D01*
X285171Y431868D01*
Y432790D01*
X284932Y433680D01*
X284472Y434478D01*
X283820Y435130D01*
X283022Y435591D01*
X282132Y435829D01*
X281210D01*
X280320Y435591D01*
X279522Y435130D01*
X278870Y434478D01*
X278566Y433951D01*
X239343D01*
X234134Y439160D01*
X234426Y439667D01*
X234750Y440875D01*
Y442125D01*
X234426Y443333D01*
X233801Y444417D01*
X232917Y445301D01*
X231833Y445926D01*
X230625Y446250D01*
X229375D01*
X228167Y445926D01*
X227083Y445301D01*
X226822Y445039D01*
X221931Y449931D01*
X221274Y450369D01*
X220500Y450523D01*
D02*
G37*
G36*
X420000Y428971D02*
Y423500D01*
X423787D01*
Y424750D01*
X423641Y425859D01*
X423212Y426893D01*
X422531Y427781D01*
X421643Y428462D01*
X420610Y428891D01*
X420000Y428971D01*
D02*
G37*
G36*
X419000D02*
X418391Y428891D01*
X417357Y428462D01*
X416469Y427781D01*
X415788Y426893D01*
X415359Y425859D01*
X415213Y424750D01*
Y423500D01*
X419000D01*
Y428971D01*
D02*
G37*
G36*
X153500D02*
Y423500D01*
X157287D01*
Y424750D01*
X157141Y425859D01*
X156712Y426893D01*
X156031Y427781D01*
X155143Y428462D01*
X154110Y428891D01*
X153500Y428971D01*
D02*
G37*
G36*
X152500D02*
X151891Y428891D01*
X150857Y428462D01*
X149969Y427781D01*
X149288Y426893D01*
X148859Y425859D01*
X148713Y424750D01*
Y423500D01*
X152500D01*
Y428971D01*
D02*
G37*
G36*
X241827Y426338D02*
X238838D01*
Y423348D01*
X239689Y423576D01*
X240487Y424037D01*
X241139Y424689D01*
X241599Y425487D01*
X241827Y426338D01*
D02*
G37*
G36*
X237838D02*
X234848D01*
X235076Y425487D01*
X235537Y424689D01*
X236189Y424037D01*
X236987Y423576D01*
X237838Y423348D01*
Y426338D01*
D02*
G37*
G36*
X423787Y422500D02*
X420000D01*
Y417029D01*
X420610Y417109D01*
X421643Y417538D01*
X422531Y418219D01*
X423212Y419107D01*
X423641Y420141D01*
X423787Y421250D01*
Y422500D01*
D02*
G37*
G36*
X419000D02*
X415213D01*
Y421250D01*
X415359Y420141D01*
X415788Y419107D01*
X416469Y418219D01*
X417357Y417538D01*
X418391Y417109D01*
X419000Y417029D01*
Y422500D01*
D02*
G37*
G36*
X157287D02*
X153500D01*
Y417029D01*
X154110Y417109D01*
X155143Y417538D01*
X156031Y418219D01*
X156712Y419107D01*
X157141Y420141D01*
X157287Y421250D01*
Y422500D01*
D02*
G37*
G36*
X152500D02*
X148713D01*
Y421250D01*
X148859Y420141D01*
X149288Y419107D01*
X149969Y418219D01*
X150857Y417538D01*
X151891Y417109D01*
X152500Y417029D01*
Y422500D01*
D02*
G37*
G36*
X413750Y429000D02*
X405250D01*
Y417000D01*
X413750D01*
Y429000D01*
D02*
G37*
G36*
X429500Y429037D02*
X428391Y428891D01*
X427357Y428462D01*
X426469Y427781D01*
X425788Y426893D01*
X425359Y425859D01*
X425213Y424750D01*
Y421250D01*
X425359Y420141D01*
X425788Y419107D01*
X426469Y418219D01*
X427357Y417538D01*
X428391Y417109D01*
X429500Y416963D01*
X430610Y417109D01*
X431643Y417538D01*
X432531Y418219D01*
X433212Y419107D01*
X433641Y420141D01*
X433787Y421250D01*
Y424750D01*
X433641Y425859D01*
X433212Y426893D01*
X432531Y427781D01*
X431643Y428462D01*
X430610Y428891D01*
X429500Y429037D01*
D02*
G37*
G36*
X163000D02*
X161890Y428891D01*
X160857Y428462D01*
X159969Y427781D01*
X159288Y426893D01*
X158859Y425859D01*
X158713Y424750D01*
Y421250D01*
X158859Y420141D01*
X159288Y419107D01*
X159969Y418219D01*
X160857Y417538D01*
X161890Y417109D01*
X163000Y416963D01*
X164110Y417109D01*
X165143Y417538D01*
X166031Y418219D01*
X166712Y419107D01*
X167141Y420141D01*
X167287Y421250D01*
Y424750D01*
X167141Y425859D01*
X166712Y426893D01*
X166031Y427781D01*
X165143Y428462D01*
X164110Y428891D01*
X163000Y429037D01*
D02*
G37*
G36*
X217301Y422469D02*
X212872D01*
X212386Y422373D01*
X211974Y422097D01*
X211698Y421685D01*
X211660Y421494D01*
X204852D01*
X204077Y421392D01*
X203355Y421093D01*
X202735Y420617D01*
X195618Y413500D01*
X190000D01*
Y408005D01*
X188011D01*
X187236Y407903D01*
X186813Y407728D01*
X186514Y407604D01*
X185894Y407128D01*
X182387Y403621D01*
X182251Y403445D01*
X181835Y403723D01*
X181894Y403825D01*
X182265Y404468D01*
X182535Y405478D01*
Y406523D01*
X182265Y407532D01*
X181743Y408437D01*
X181004Y409176D01*
X180099Y409698D01*
X179089Y409969D01*
X178044D01*
X177035Y409698D01*
X176130Y409176D01*
X175391Y408437D01*
X174869Y407532D01*
X174598Y406523D01*
Y405478D01*
X174869Y404468D01*
X175391Y403563D01*
X176130Y402824D01*
X177035Y402302D01*
X178044Y402032D01*
X179089D01*
X180099Y402302D01*
X181004Y402824D01*
X181529Y403349D01*
X181612Y403433D01*
X181989Y403102D01*
X181911Y403001D01*
X181612Y402279D01*
X181510Y401504D01*
Y399323D01*
X181048Y399131D01*
X181004Y399176D01*
X180099Y399698D01*
X179089Y399969D01*
X179067D01*
Y396000D01*
X178567D01*
Y395500D01*
X174598D01*
Y395478D01*
X174869Y394468D01*
X175391Y393563D01*
X176130Y392824D01*
X177035Y392302D01*
X178044Y392032D01*
X178107D01*
X178298Y391570D01*
X177450Y390721D01*
X176974Y390101D01*
X176919Y389968D01*
X174598D01*
Y382031D01*
X182535D01*
Y383006D01*
X190000D01*
Y380000D01*
X199000D01*
Y392000D01*
X190000D01*
Y388994D01*
X184845D01*
X184653Y389456D01*
X186621Y391424D01*
X187097Y392044D01*
X187396Y392766D01*
X187498Y393541D01*
Y400264D01*
X189251Y402017D01*
X190000D01*
Y401500D01*
X199000D01*
Y408414D01*
X199001Y408414D01*
X199461Y408875D01*
X199961Y408668D01*
Y408000D01*
X209039D01*
Y409000D01*
X208884Y410175D01*
X208431Y411269D01*
X207709Y412209D01*
X206769Y412931D01*
X205675Y413384D01*
X204794Y413500D01*
X204615Y414028D01*
X206092Y415506D01*
X211602D01*
Y414801D01*
X211698Y414315D01*
X211974Y413903D01*
X212386Y413628D01*
X212872Y413531D01*
X217301D01*
X217788Y413628D01*
X218200Y413903D01*
X218475Y414315D01*
X218572Y414801D01*
Y421199D01*
X218475Y421685D01*
X218200Y422097D01*
X217788Y422373D01*
X217301Y422469D01*
D02*
G37*
G36*
X352000Y415473D02*
Y410000D01*
X356039D01*
Y411000D01*
X355884Y412175D01*
X355431Y413269D01*
X354709Y414209D01*
X353769Y414931D01*
X352675Y415384D01*
X352000Y415473D01*
D02*
G37*
G36*
X356039Y409000D02*
X352000D01*
Y403527D01*
X352675Y403616D01*
X353769Y404069D01*
X354709Y404791D01*
X355431Y405731D01*
X355884Y406825D01*
X356039Y408000D01*
Y409000D01*
D02*
G37*
G36*
X209039Y407000D02*
X205000D01*
Y401527D01*
X205675Y401616D01*
X206769Y402069D01*
X207709Y402791D01*
X208431Y403731D01*
X208884Y404825D01*
X209039Y406000D01*
Y407000D01*
D02*
G37*
G36*
X204000D02*
X199961D01*
Y406000D01*
X200116Y404825D01*
X200569Y403731D01*
X201291Y402791D01*
X202231Y402069D01*
X203325Y401616D01*
X204000Y401527D01*
Y407000D01*
D02*
G37*
G36*
X379956Y399969D02*
X379933D01*
Y396500D01*
X383402D01*
Y396522D01*
X383131Y397532D01*
X382609Y398437D01*
X381870Y399176D01*
X380965Y399698D01*
X379956Y399969D01*
D02*
G37*
G36*
X178067D02*
X178044D01*
X177035Y399698D01*
X176130Y399176D01*
X175391Y398437D01*
X174869Y397532D01*
X174598Y396522D01*
Y396500D01*
X178067D01*
Y399969D01*
D02*
G37*
G36*
X364128Y428969D02*
X359699D01*
X359212Y428872D01*
X358800Y428597D01*
X358525Y428185D01*
X358428Y427699D01*
Y421301D01*
X358506Y420911D01*
Y415500D01*
X357000D01*
Y403500D01*
X362837D01*
X363032Y403474D01*
X372087D01*
X372278Y403012D01*
X363291Y394026D01*
X363032D01*
X362837Y394000D01*
X357000D01*
Y382000D01*
X366000D01*
Y388427D01*
X366028Y388439D01*
X366649Y388914D01*
X375200Y397465D01*
X375648Y397206D01*
X375465Y396522D01*
Y396500D01*
X378933D01*
Y399969D01*
X378911D01*
X378227Y399785D01*
X377968Y400234D01*
X379766Y402032D01*
X383402D01*
Y409969D01*
X375465D01*
Y409463D01*
X366000D01*
Y415500D01*
X364494D01*
Y420103D01*
X364614Y420127D01*
X365026Y420403D01*
X365302Y420815D01*
X365398Y421301D01*
Y427699D01*
X365302Y428185D01*
X365026Y428597D01*
X364614Y428872D01*
X364128Y428969D01*
D02*
G37*
G36*
X383402Y395500D02*
X379933D01*
Y392032D01*
X379956D01*
X380965Y392302D01*
X381870Y392824D01*
X382609Y393563D01*
X383131Y394468D01*
X383402Y395478D01*
Y395500D01*
D02*
G37*
G36*
X378933D02*
X375465D01*
Y395478D01*
X375735Y394468D01*
X376257Y393563D01*
X376996Y392824D01*
X377901Y392302D01*
X378911Y392032D01*
X378933D01*
Y395500D01*
D02*
G37*
G36*
X352000Y393973D02*
Y388500D01*
X356039D01*
Y389500D01*
X355884Y390675D01*
X355431Y391769D01*
X354709Y392709D01*
X353769Y393431D01*
X352675Y393884D01*
X352000Y393973D01*
D02*
G37*
G36*
X351000D02*
X350325Y393884D01*
X349231Y393431D01*
X348291Y392709D01*
X347569Y391769D01*
X347116Y390675D01*
X346961Y389500D01*
Y388500D01*
X351000D01*
Y393973D01*
D02*
G37*
G36*
X205000Y391973D02*
Y386500D01*
X209039D01*
Y387500D01*
X208884Y388675D01*
X208431Y389769D01*
X207709Y390709D01*
X206769Y391431D01*
X205675Y391884D01*
X205000Y391973D01*
D02*
G37*
G36*
X204000D02*
X203325Y391884D01*
X202231Y391431D01*
X201291Y390709D01*
X200569Y389769D01*
X200116Y388675D01*
X199961Y387500D01*
Y386500D01*
X204000D01*
Y391973D01*
D02*
G37*
G36*
X463928Y393150D02*
X462836D01*
X461780Y392867D01*
X460834Y392320D01*
X460061Y391548D01*
X459515Y390602D01*
X459232Y389546D01*
Y388454D01*
X459515Y387398D01*
X460061Y386452D01*
X460834Y385680D01*
X461780Y385133D01*
X462836Y384850D01*
X463928D01*
X464984Y385133D01*
X465930Y385680D01*
X466702Y386452D01*
X467249Y387398D01*
X467531Y388454D01*
Y389546D01*
X467249Y390602D01*
X466702Y391548D01*
X465930Y392320D01*
X464984Y392867D01*
X463928Y393150D01*
D02*
G37*
G36*
X356039Y387500D02*
X352000D01*
Y382027D01*
X352675Y382116D01*
X353769Y382569D01*
X354709Y383291D01*
X355431Y384231D01*
X355884Y385325D01*
X356039Y386500D01*
Y387500D01*
D02*
G37*
G36*
X209039Y385500D02*
X205000D01*
Y380027D01*
X205675Y380116D01*
X206769Y380569D01*
X207709Y381291D01*
X208431Y382231D01*
X208884Y383325D01*
X209039Y384500D01*
Y385500D01*
D02*
G37*
G36*
X204000D02*
X199961D01*
Y384500D01*
X200116Y383325D01*
X200569Y382231D01*
X201291Y381291D01*
X202231Y380569D01*
X203325Y380116D01*
X204000Y380027D01*
Y385500D01*
D02*
G37*
G36*
X153109Y366949D02*
X153063D01*
Y363299D01*
X156713D01*
Y363346D01*
X156430Y364401D01*
X155884Y365347D01*
X155111Y366120D01*
X154165Y366666D01*
X153109Y366949D01*
D02*
G37*
G36*
X152063D02*
X152017D01*
X150961Y366666D01*
X150015Y366120D01*
X149242Y365347D01*
X148696Y364401D01*
X148413Y363346D01*
Y363299D01*
X152063D01*
Y366949D01*
D02*
G37*
G36*
X156713Y362299D02*
X153063D01*
Y358650D01*
X153109D01*
X154165Y358932D01*
X155111Y359479D01*
X155884Y360251D01*
X156430Y361197D01*
X156713Y362253D01*
Y362299D01*
D02*
G37*
G36*
X152063D02*
X148413D01*
Y362253D01*
X148696Y361197D01*
X149242Y360251D01*
X150015Y359479D01*
X150961Y358932D01*
X152017Y358650D01*
X152063D01*
Y362299D01*
D02*
G37*
G36*
X157522Y340167D02*
X149321D01*
Y331966D01*
X157522D01*
Y340167D01*
D02*
G37*
G36*
X318047Y327822D02*
X318001D01*
Y324173D01*
X321651D01*
Y324219D01*
X321368Y325274D01*
X320821Y326221D01*
X320049Y326993D01*
X319103Y327539D01*
X318047Y327822D01*
D02*
G37*
G36*
X317001D02*
X316955D01*
X315899Y327539D01*
X314953Y326993D01*
X314180Y326221D01*
X313634Y325274D01*
X313351Y324219D01*
Y324173D01*
X317001D01*
Y327822D01*
D02*
G37*
G36*
X454969Y312035D02*
X447031D01*
Y304098D01*
X454969D01*
Y312035D01*
D02*
G37*
G36*
X165969Y309035D02*
X158031D01*
Y301098D01*
X165969D01*
Y309035D01*
D02*
G37*
G36*
X464598Y290787D02*
X463505D01*
X462450Y290505D01*
X461503Y289958D01*
X460731Y289186D01*
X460184Y288240D01*
X459902Y287184D01*
Y286091D01*
X460184Y285036D01*
X460731Y284090D01*
X461503Y283317D01*
X462450Y282771D01*
X463505Y282488D01*
X464598D01*
X465653Y282771D01*
X466599Y283317D01*
X467372Y284090D01*
X467918Y285036D01*
X468201Y286091D01*
Y287184D01*
X467918Y288240D01*
X467372Y289186D01*
X466599Y289958D01*
X465653Y290505D01*
X464598Y290787D01*
D02*
G37*
G36*
X454598D02*
X453505D01*
X452450Y290505D01*
X451503Y289958D01*
X450731Y289186D01*
X450184Y288240D01*
X449902Y287184D01*
Y286091D01*
X450184Y285036D01*
X450731Y284090D01*
X451503Y283317D01*
X452450Y282771D01*
X453505Y282488D01*
X454598D01*
X455653Y282771D01*
X456599Y283317D01*
X457372Y284090D01*
X457918Y285036D01*
X458201Y286091D01*
Y287184D01*
X457918Y288240D01*
X457372Y289186D01*
X456599Y289958D01*
X455653Y290505D01*
X454598Y290787D01*
D02*
G37*
G36*
X111150Y283472D02*
X109850D01*
X108594Y283136D01*
X107469Y282486D01*
X106549Y281567D01*
X105899Y280441D01*
X105563Y279185D01*
Y277886D01*
X105899Y276630D01*
X106549Y275504D01*
X107469Y274585D01*
X108594Y273935D01*
X109850Y273598D01*
X111150D01*
X112406Y273935D01*
X113531Y274585D01*
X114451Y275504D01*
X115101Y276630D01*
X115437Y277886D01*
Y279185D01*
X115101Y280441D01*
X114451Y281567D01*
X113531Y282486D01*
X112406Y283136D01*
X111150Y283472D01*
D02*
G37*
G36*
X152928Y275429D02*
X151836D01*
X150780Y275146D01*
X149834Y274600D01*
X149061Y273827D01*
X148515Y272881D01*
X148232Y271826D01*
Y270733D01*
X148515Y269678D01*
X149061Y268732D01*
X149834Y267959D01*
X150780Y267413D01*
X151836Y267130D01*
X152928D01*
X153984Y267413D01*
X154930Y267959D01*
X155702Y268732D01*
X156249Y269678D01*
X156532Y270733D01*
Y271826D01*
X156249Y272881D01*
X155702Y273827D01*
X154930Y274600D01*
X153984Y275146D01*
X152928Y275429D01*
D02*
G37*
G36*
X152000Y310047D02*
X150711Y309877D01*
X149510Y309379D01*
X148479Y308588D01*
X147687Y307557D01*
X147190Y306356D01*
X147020Y305067D01*
Y294500D01*
X147020Y294500D01*
X147190Y293211D01*
X147687Y292010D01*
X148479Y290979D01*
X203479Y235979D01*
X203479Y235979D01*
X204510Y235188D01*
X205711Y234690D01*
X207000Y234520D01*
X207000Y234520D01*
X367500D01*
X367500Y234520D01*
X368789Y234690D01*
X369990Y235188D01*
X371021Y235979D01*
X380063Y245020D01*
X390500D01*
X391789Y245190D01*
X392990Y245688D01*
X394021Y246479D01*
X394812Y247510D01*
X395310Y248711D01*
X395480Y250000D01*
X395310Y251289D01*
X394812Y252490D01*
X394021Y253521D01*
X392990Y254312D01*
X391789Y254810D01*
X390500Y254980D01*
X378000D01*
X376711Y254810D01*
X375510Y254312D01*
X374479Y253521D01*
X374479Y253521D01*
X365437Y244480D01*
X209063D01*
X156980Y296563D01*
Y305067D01*
X156810Y306356D01*
X156313Y307557D01*
X155521Y308588D01*
X154490Y309379D01*
X153289Y309877D01*
X152000Y310047D01*
D02*
G37*
G36*
X396207Y224291D02*
X394769D01*
X393359Y224011D01*
X392031Y223461D01*
X390835Y222662D01*
X389819Y221645D01*
X389020Y220450D01*
X388470Y219121D01*
X388189Y217711D01*
Y216273D01*
X388470Y214863D01*
X389020Y213535D01*
X389819Y212339D01*
X390835Y211322D01*
X392031Y210524D01*
X393359Y209973D01*
X394769Y209693D01*
X396207D01*
X397617Y209973D01*
X398946Y210524D01*
X400141Y211322D01*
X401158Y212339D01*
X401957Y213535D01*
X402507Y214863D01*
X402787Y216273D01*
Y217711D01*
X402507Y219121D01*
X401957Y220450D01*
X401158Y221645D01*
X400141Y222662D01*
X398946Y223461D01*
X397617Y224011D01*
X396207Y224291D01*
D02*
G37*
G36*
X429691Y224882D02*
X428136D01*
X426612Y224579D01*
X425176Y223984D01*
X423884Y223120D01*
X422785Y222022D01*
X421922Y220729D01*
X421327Y219293D01*
X421024Y217769D01*
Y216566D01*
X339209Y134751D01*
X181148D01*
X181002Y135230D01*
X181165Y135338D01*
X182182Y136355D01*
X182980Y137550D01*
X183530Y138879D01*
X183811Y140289D01*
Y141727D01*
X183530Y143137D01*
X182980Y144465D01*
X182182Y145661D01*
X181165Y146677D01*
X179969Y147476D01*
X178641Y148027D01*
X177231Y148307D01*
X175793D01*
X174383Y148027D01*
X173054Y147476D01*
X171859Y146677D01*
X170842Y145661D01*
X170043Y144465D01*
X169493Y143137D01*
X169213Y141727D01*
Y140289D01*
X169493Y138879D01*
X170043Y137550D01*
X170842Y136355D01*
X171859Y135338D01*
X172021Y135230D01*
X171876Y134751D01*
X156802D01*
X149795Y141758D01*
Y141785D01*
X149492Y143309D01*
X148897Y144745D01*
X148034Y146037D01*
X146935Y147136D01*
X145643Y148000D01*
X144207Y148594D01*
X142683Y148898D01*
X141128D01*
X139604Y148594D01*
X138168Y148000D01*
X136876Y147136D01*
X135777Y146037D01*
X134914Y144745D01*
X134319Y143309D01*
X134016Y141785D01*
Y140231D01*
X134319Y138707D01*
X134914Y137271D01*
X135777Y135978D01*
X136876Y134880D01*
X138168Y134016D01*
X139604Y133421D01*
X141128Y133118D01*
X142683D01*
X144074Y133395D01*
X151219Y126251D01*
X152250Y125459D01*
X153451Y124962D01*
X154740Y124792D01*
X154740Y124792D01*
X341272D01*
X341272Y124792D01*
X342561Y124962D01*
X343761Y125459D01*
X344793Y126251D01*
X427726Y209184D01*
X428136Y209102D01*
X429691D01*
X431215Y209406D01*
X432651Y210000D01*
X433943Y210864D01*
X435042Y211963D01*
X435905Y213255D01*
X436500Y214691D01*
X436803Y216215D01*
Y217769D01*
X436500Y219293D01*
X435905Y220729D01*
X435042Y222022D01*
X433943Y223120D01*
X432651Y223984D01*
X431215Y224579D01*
X429691Y224882D01*
D02*
G37*
G36*
X396207Y148307D02*
X394769D01*
X393359Y148027D01*
X392031Y147476D01*
X390835Y146677D01*
X389819Y145661D01*
X389020Y144465D01*
X388470Y143137D01*
X388189Y141727D01*
Y140289D01*
X388470Y138879D01*
X389020Y137550D01*
X389819Y136355D01*
X390835Y135338D01*
X392031Y134539D01*
X393359Y133989D01*
X394769Y133709D01*
X396207D01*
X397617Y133989D01*
X398946Y134539D01*
X400141Y135338D01*
X401158Y136355D01*
X401957Y137550D01*
X402507Y138879D01*
X402787Y140289D01*
Y141727D01*
X402507Y143137D01*
X401957Y144465D01*
X401158Y145661D01*
X400141Y146677D01*
X398946Y147476D01*
X397617Y148027D01*
X396207Y148307D01*
D02*
G37*
G36*
X429691Y148898D02*
X428136D01*
X426612Y148594D01*
X425176Y148000D01*
X423884Y147136D01*
X422785Y146037D01*
X421922Y144745D01*
X421327Y143309D01*
X421024Y141785D01*
Y140231D01*
X421327Y138707D01*
X421922Y137271D01*
X422785Y135978D01*
X423884Y134880D01*
X425176Y134016D01*
X426612Y133421D01*
X428136Y133118D01*
X429691D01*
X431215Y133421D01*
X432651Y134016D01*
X433943Y134880D01*
X435042Y135978D01*
X435905Y137271D01*
X436500Y138707D01*
X436803Y140231D01*
Y141785D01*
X436500Y143309D01*
X435905Y144745D01*
X435042Y146037D01*
X433943Y147136D01*
X432651Y148000D01*
X431215Y148594D01*
X429691Y148898D01*
D02*
G37*
G36*
X287469Y414059D02*
X286531D01*
X285626Y413816D01*
X284815Y413348D01*
X284152Y412685D01*
X284000Y412422D01*
X283500D01*
X283348Y412685D01*
X282685Y413348D01*
X281874Y413816D01*
X280969Y414059D01*
X280031D01*
X279126Y413816D01*
X278315Y413348D01*
X277652Y412685D01*
X277184Y411874D01*
X276941Y410969D01*
Y410031D01*
X277184Y409126D01*
X277604Y408398D01*
X269079Y399873D01*
X268046Y400150D01*
X266954D01*
X265898Y399867D01*
X264952Y399321D01*
X264179Y398548D01*
X263633Y397602D01*
X263350Y396546D01*
Y395454D01*
X263633Y394398D01*
X264179Y393452D01*
X264952Y392680D01*
X265898Y392133D01*
X266954Y391850D01*
X268046D01*
X269102Y392133D01*
X270048Y392680D01*
X270820Y393452D01*
X271367Y394398D01*
X271650Y395454D01*
Y396546D01*
X271373Y397579D01*
X280734Y406941D01*
X280969D01*
X281874Y407184D01*
X282685Y407652D01*
X283348Y408315D01*
X283500Y408578D01*
X284000D01*
X284152Y408315D01*
X284815Y407652D01*
X285378Y407327D01*
Y406172D01*
X279079Y399873D01*
X278046Y400150D01*
X276954D01*
X275898Y399867D01*
X274952Y399321D01*
X274180Y398548D01*
X273633Y397602D01*
X273350Y396546D01*
Y395454D01*
X273633Y394398D01*
X274180Y393452D01*
X274952Y392680D01*
X275898Y392133D01*
X276954Y391850D01*
X278046D01*
X279102Y392133D01*
X280048Y392680D01*
X280820Y393452D01*
X281367Y394398D01*
X281650Y395454D01*
Y396546D01*
X281373Y397579D01*
X288147Y404353D01*
X288498Y404879D01*
X288622Y405500D01*
Y407327D01*
X289185Y407652D01*
X289848Y408315D01*
X290317Y409126D01*
X290559Y410031D01*
Y410969D01*
X290317Y411874D01*
X289848Y412685D01*
X289185Y413348D01*
X288374Y413816D01*
X287469Y414059D01*
D02*
G37*
G36*
X262500Y408139D02*
Y405150D01*
X265490D01*
X265262Y406001D01*
X264801Y406799D01*
X264149Y407450D01*
X263351Y407911D01*
X262500Y408139D01*
D02*
G37*
G36*
X261500D02*
X260649Y407911D01*
X259851Y407450D01*
X259199Y406799D01*
X258738Y406001D01*
X258510Y405150D01*
X261500D01*
Y408139D01*
D02*
G37*
G36*
X265490Y404150D02*
X262500D01*
Y401160D01*
X263351Y401388D01*
X264149Y401849D01*
X264801Y402501D01*
X265262Y403299D01*
X265490Y404150D01*
D02*
G37*
G36*
X261500D02*
X258510D01*
X258738Y403299D01*
X259199Y402501D01*
X259851Y401849D01*
X260649Y401388D01*
X261500Y401160D01*
Y404150D01*
D02*
G37*
G36*
X334500Y404000D02*
X330850D01*
Y403954D01*
X331133Y402898D01*
X331680Y401952D01*
X332452Y401180D01*
X333398Y400633D01*
X334454Y400350D01*
X334500D01*
Y404000D01*
D02*
G37*
G36*
X258046Y400150D02*
X258000D01*
Y396500D01*
X261650D01*
Y396546D01*
X261367Y397602D01*
X260821Y398548D01*
X260048Y399321D01*
X259102Y399867D01*
X258046Y400150D01*
D02*
G37*
G36*
X257000D02*
X256954D01*
X255898Y399867D01*
X254952Y399321D01*
X254180Y398548D01*
X253633Y397602D01*
X253350Y396546D01*
Y396500D01*
X257000D01*
Y400150D01*
D02*
G37*
G36*
X308046D02*
X306954D01*
X305898Y399867D01*
X304952Y399321D01*
X304180Y398548D01*
X303633Y397602D01*
X303350Y396546D01*
Y395454D01*
X303633Y394398D01*
X304180Y393452D01*
X304952Y392680D01*
X305898Y392133D01*
X306954Y391850D01*
X308046D01*
X309102Y392133D01*
X310048Y392680D01*
X310821Y393452D01*
X311367Y394398D01*
X311650Y395454D01*
Y396546D01*
X311367Y397602D01*
X310821Y398548D01*
X310048Y399321D01*
X309102Y399867D01*
X308046Y400150D01*
D02*
G37*
G36*
X298046D02*
X296954D01*
X295898Y399867D01*
X294952Y399321D01*
X294180Y398548D01*
X293633Y397602D01*
X293350Y396546D01*
Y395454D01*
X293633Y394398D01*
X294180Y393452D01*
X294952Y392680D01*
X295898Y392133D01*
X296954Y391850D01*
X298046D01*
X299102Y392133D01*
X300048Y392680D01*
X300820Y393452D01*
X301367Y394398D01*
X301650Y395454D01*
Y396546D01*
X301367Y397602D01*
X300820Y398548D01*
X300048Y399321D01*
X299102Y399867D01*
X298046Y400150D01*
D02*
G37*
G36*
X288046D02*
X286954D01*
X285898Y399867D01*
X284952Y399321D01*
X284179Y398548D01*
X283633Y397602D01*
X283350Y396546D01*
Y395454D01*
X283633Y394398D01*
X284179Y393452D01*
X284952Y392680D01*
X285898Y392133D01*
X286954Y391850D01*
X288046D01*
X289102Y392133D01*
X290048Y392680D01*
X290821Y393452D01*
X291367Y394398D01*
X291650Y395454D01*
Y396546D01*
X291367Y397602D01*
X290821Y398548D01*
X290048Y399321D01*
X289102Y399867D01*
X288046Y400150D01*
D02*
G37*
G36*
X261650Y395500D02*
X258000D01*
Y391850D01*
X258046D01*
X259102Y392133D01*
X260048Y392680D01*
X260821Y393452D01*
X261367Y394398D01*
X261650Y395454D01*
Y395500D01*
D02*
G37*
G36*
X257000D02*
X253350D01*
Y395454D01*
X253633Y394398D01*
X254180Y393452D01*
X254952Y392680D01*
X255898Y392133D01*
X256954Y391850D01*
X257000D01*
Y395500D01*
D02*
G37*
G36*
X335546Y398650D02*
X334454D01*
X333398Y398367D01*
X332452Y397820D01*
X331680Y397048D01*
X331133Y396102D01*
X330850Y395046D01*
Y393954D01*
X331133Y392898D01*
X331680Y391952D01*
X332452Y391179D01*
X333398Y390633D01*
X334454Y390350D01*
X335546D01*
X336602Y390633D01*
X337548Y391179D01*
X338320Y391952D01*
X338867Y392898D01*
X339150Y393954D01*
Y395046D01*
X338867Y396102D01*
X338320Y397048D01*
X337548Y397820D01*
X336602Y398367D01*
X335546Y398650D01*
D02*
G37*
G36*
X298046Y388650D02*
X296954D01*
X295898Y388367D01*
X294952Y387821D01*
X294180Y387048D01*
X293633Y386102D01*
X293350Y385046D01*
Y383954D01*
X293633Y382898D01*
X294180Y381952D01*
X294952Y381179D01*
X295898Y380633D01*
X296954Y380350D01*
X298046D01*
X299102Y380633D01*
X300048Y381179D01*
X300820Y381952D01*
X301367Y382898D01*
X301650Y383954D01*
Y385046D01*
X301367Y386102D01*
X300820Y387048D01*
X300048Y387821D01*
X299102Y388367D01*
X298046Y388650D01*
D02*
G37*
G36*
X288046D02*
X286954D01*
X285898Y388367D01*
X284952Y387821D01*
X284179Y387048D01*
X283633Y386102D01*
X283350Y385046D01*
Y383954D01*
X283633Y382898D01*
X284179Y381952D01*
X284952Y381179D01*
X285898Y380633D01*
X286954Y380350D01*
X288046D01*
X289102Y380633D01*
X290048Y381179D01*
X290821Y381952D01*
X291367Y382898D01*
X291650Y383954D01*
Y385046D01*
X291367Y386102D01*
X290821Y387048D01*
X290048Y387821D01*
X289102Y388367D01*
X288046Y388650D01*
D02*
G37*
G36*
X278046D02*
X276954D01*
X275898Y388367D01*
X274952Y387821D01*
X274180Y387048D01*
X273633Y386102D01*
X273350Y385046D01*
Y383954D01*
X273633Y382898D01*
X274180Y381952D01*
X274952Y381179D01*
X275898Y380633D01*
X276954Y380350D01*
X278046D01*
X279102Y380633D01*
X280048Y381179D01*
X280820Y381952D01*
X281367Y382898D01*
X281650Y383954D01*
Y385046D01*
X281367Y386102D01*
X280820Y387048D01*
X280048Y387821D01*
X279102Y388367D01*
X278046Y388650D01*
D02*
G37*
G36*
X457885Y373890D02*
X456525D01*
X455191Y373624D01*
X453934Y373104D01*
X452803Y372348D01*
X451841Y371386D01*
X451085Y370255D01*
X450565Y368999D01*
X450299Y367664D01*
Y366304D01*
X450565Y364970D01*
X451085Y363713D01*
X451841Y362582D01*
X452803Y361620D01*
X453934Y360865D01*
X455191Y360344D01*
X456525Y360079D01*
X457885D01*
X459219Y360344D01*
X460476Y360865D01*
X461607Y361620D01*
X462569Y362582D01*
X463324Y363713D01*
X463845Y364970D01*
X464110Y366304D01*
Y367664D01*
X463845Y368999D01*
X463324Y370255D01*
X462569Y371386D01*
X461607Y372348D01*
X460476Y373104D01*
X459219Y373624D01*
X457885Y373890D01*
D02*
G37*
G36*
X111428D02*
X110068D01*
X108734Y373624D01*
X107477Y373104D01*
X106346Y372348D01*
X105384Y371386D01*
X104628Y370255D01*
X104108Y368999D01*
X103842Y367664D01*
Y366304D01*
X104108Y364970D01*
X104628Y363713D01*
X105384Y362582D01*
X106346Y361620D01*
X107477Y360865D01*
X108734Y360344D01*
X110068Y360079D01*
X111428D01*
X112762Y360344D01*
X114019Y360865D01*
X115150Y361620D01*
X116112Y362582D01*
X116868Y363713D01*
X117388Y364970D01*
X117654Y366304D01*
Y367664D01*
X117388Y368999D01*
X116868Y370255D01*
X116112Y371386D01*
X115150Y372348D01*
X114019Y373104D01*
X112762Y373624D01*
X111428Y373890D01*
D02*
G37*
G36*
X231500Y329990D02*
Y327000D01*
X234489D01*
X234261Y327851D01*
X233801Y328649D01*
X233149Y329301D01*
X232351Y329762D01*
X231500Y329990D01*
D02*
G37*
G36*
X230500D02*
X229649Y329762D01*
X228851Y329301D01*
X228199Y328649D01*
X227738Y327851D01*
X227510Y327000D01*
X230500D01*
Y329990D01*
D02*
G37*
G36*
X234489Y326000D02*
X231500D01*
Y323010D01*
X232351Y323238D01*
X233149Y323699D01*
X233801Y324351D01*
X234261Y325149D01*
X234489Y326000D01*
D02*
G37*
G36*
X230500D02*
X227510D01*
X227738Y325149D01*
X228199Y324351D01*
X228851Y323699D01*
X229649Y323238D01*
X230500Y323010D01*
Y326000D01*
D02*
G37*
G36*
X457885Y263154D02*
X456525D01*
X455191Y262888D01*
X453934Y262368D01*
X452803Y261612D01*
X451841Y260650D01*
X451085Y259519D01*
X450565Y258262D01*
X450299Y256928D01*
Y255568D01*
X450565Y254234D01*
X451085Y252977D01*
X451841Y251846D01*
X452803Y250884D01*
X453934Y250129D01*
X455191Y249608D01*
X456525Y249342D01*
X457885D01*
X459219Y249608D01*
X460476Y250129D01*
X461607Y250884D01*
X462569Y251846D01*
X463324Y252977D01*
X463845Y254234D01*
X464110Y255568D01*
Y256928D01*
X463845Y258262D01*
X463324Y259519D01*
X462569Y260650D01*
X461607Y261612D01*
X460476Y262368D01*
X459219Y262888D01*
X457885Y263154D01*
D02*
G37*
G36*
X111428D02*
X110068D01*
X108734Y262888D01*
X107477Y262368D01*
X106346Y261612D01*
X105384Y260650D01*
X104628Y259519D01*
X104108Y258262D01*
X103842Y256928D01*
Y255568D01*
X104108Y254234D01*
X104628Y252977D01*
X105384Y251846D01*
X106346Y250884D01*
X107477Y250129D01*
X108734Y249608D01*
X110068Y249342D01*
X111428D01*
X112762Y249608D01*
X114019Y250129D01*
X115150Y250884D01*
X116112Y251846D01*
X116868Y252977D01*
X117388Y254234D01*
X117654Y255568D01*
Y256928D01*
X117388Y258262D01*
X116868Y259519D01*
X116112Y260650D01*
X115150Y261612D01*
X114019Y262368D01*
X112762Y262888D01*
X111428Y263154D01*
D02*
G37*
%LPD*%
D10*
X432000Y365000D02*
X455500Y341500D01*
X409000Y365000D02*
X432000D01*
X314260Y391260D02*
X320740D01*
X333000Y379000D01*
X374000D01*
X277500Y396000D02*
X287000Y405500D01*
Y410500D01*
X212000Y303500D02*
X260500D01*
X174500Y341000D02*
Y354000D01*
Y341000D02*
X212000Y303500D01*
X260500D02*
X268063Y295937D01*
X431000Y308067D02*
X455500Y332567D01*
Y341500D01*
X257501Y323673D02*
X271674Y309500D01*
X306500D02*
X318693Y297307D01*
X271674Y309500D02*
X306500D01*
X297501Y323673D02*
X302674Y318500D01*
X317204D02*
X347412Y288292D01*
X302674Y318500D02*
X317204D01*
X287500Y324000D02*
X296000Y315500D01*
X313500D02*
X338916Y290084D01*
X296000Y315500D02*
X313500D01*
X267501Y323673D02*
X278174Y313000D01*
X309000D02*
X328693Y293307D01*
X278174Y313000D02*
X309000D01*
X347412Y285701D02*
X348693Y284420D01*
X347412Y285701D02*
Y288292D01*
X338916Y284916D02*
Y290084D01*
X328693Y285227D02*
Y293307D01*
X318693Y284420D02*
Y297307D01*
X394500Y315000D02*
Y315500D01*
Y315000D02*
X401433Y308067D01*
X421000D01*
X398108Y340608D02*
Y356591D01*
X394500Y337000D02*
X398108Y340608D01*
X344000Y383600D02*
X344277Y383323D01*
X331358Y415357D02*
X344000Y402715D01*
Y383600D02*
Y402715D01*
X374000Y379000D02*
X374741Y379741D01*
Y379759D01*
X307500Y384500D02*
X314260Y391260D01*
X174500Y360500D02*
X175500D01*
X180093Y355907D01*
X188346D01*
X194406Y349848D01*
X350940D01*
X354703Y346084D01*
X355075D01*
X356839Y344320D01*
X358650D01*
X229500Y441500D02*
X238671Y432329D01*
X281671D01*
X331074Y421426D02*
X343500Y409000D01*
X331074Y421426D02*
Y424895D01*
X330968Y425000D02*
X331074Y424895D01*
X179000Y343500D02*
Y349417D01*
Y343500D02*
X213000Y309500D01*
X179000Y349417D02*
X180367Y350783D01*
Y351817D01*
X213000Y309500D02*
X262000D01*
X268063Y285050D02*
Y295937D01*
X278693Y284420D02*
Y292807D01*
X262000Y309500D02*
X278693Y292807D01*
X268063Y285050D02*
X268693Y284420D01*
X174500Y354000D02*
X175000Y354500D01*
X267500Y396000D02*
X279747Y408247D01*
Y409247D01*
X280500Y410000D01*
X314000Y441000D02*
X314500D01*
X282433D02*
X314000D01*
Y458500D01*
Y440500D02*
Y441000D01*
Y458500D02*
X314500Y459000D01*
X262500Y449500D02*
X274000D01*
Y449433D02*
X282433Y441000D01*
X253000Y459000D02*
X254412D01*
X257322Y456090D01*
Y454678D02*
Y456090D01*
Y454678D02*
X262500Y449500D01*
X365000Y441500D02*
X366209Y440291D01*
X369209D01*
X376500Y433000D01*
D13*
X399500Y267000D02*
Y289500D01*
X405000Y295000D01*
X417500D01*
X418409Y357000D02*
X418501Y356908D01*
X422092D01*
X430908Y348092D01*
X431000Y348000D02*
X440275D01*
X426047Y310118D02*
X446500Y330571D01*
X440275Y348000D02*
X446500Y341775D01*
Y330571D02*
Y341775D01*
X248500Y335000D02*
X307704D01*
X314934Y342230D01*
X327169Y327500D02*
X405000D01*
X411000Y333500D02*
X429000D01*
X405000Y327500D02*
X411000Y333500D01*
X143000Y414500D02*
Y423000D01*
X163500Y378153D02*
Y394000D01*
X143000Y414500D02*
X163500Y394000D01*
X426047Y303547D02*
Y310118D01*
X417500Y295000D02*
X426047Y303547D01*
X438488Y334500D02*
X438500D01*
X436805Y336183D02*
X438488Y334500D01*
X436805Y336183D02*
Y336195D01*
X432500Y340500D02*
X436805Y336195D01*
X412381Y340500D02*
X432500D01*
X404381Y332500D02*
X412381Y340500D01*
X340000Y332500D02*
X404381D01*
X325169Y329500D02*
X327169Y327500D01*
X324500Y329500D02*
X325169D01*
X247500Y324000D02*
X247664Y323836D01*
X238650Y331196D02*
X239846Y330000D01*
X307207Y323966D02*
Y328847D01*
X306054Y330000D02*
X307207Y328847D01*
X239846Y330000D02*
X306054D01*
X307207Y323966D02*
X307501Y323673D01*
X287571Y304571D02*
X288000Y305000D01*
X287571Y285542D02*
Y304571D01*
X328693Y284420D02*
X329500Y285227D01*
X212152Y262587D02*
X298693D01*
Y262693D02*
Y284420D01*
X303413Y256500D02*
X308649Y261736D01*
X308693Y261693D02*
Y284420D01*
X228942Y442558D02*
X229750Y441750D01*
X188500Y341500D02*
Y349969D01*
Y341500D02*
X194500Y335500D01*
X368500Y344000D02*
X369000Y344500D01*
Y350500D01*
X163500Y378153D02*
X164653Y377000D01*
X243626D01*
X265547Y355079D01*
X364421D01*
X369000Y350500D01*
X178567Y406000D02*
X179000D01*
X182000Y292739D02*
X212152Y262587D01*
X182000Y292739D02*
Y302000D01*
X298693Y284420D02*
X299823Y283290D01*
X175000Y291000D02*
X209500Y256500D01*
X303413D01*
X175000Y291000D02*
Y302500D01*
X316732Y344000D02*
X318500D01*
X314934Y342230D02*
X314962D01*
X316732Y344000D01*
X238650Y331196D02*
Y344320D01*
X307501Y323673D02*
X308330Y324501D01*
X153000Y422476D02*
Y423000D01*
X284000Y464394D02*
X284606Y465000D01*
X182000Y433000D02*
X197500Y448500D01*
X220500D01*
X226442Y442558D02*
X228942D01*
X220500Y448500D02*
X226442Y442558D01*
X287571Y285542D02*
X288693Y284420D01*
X285000Y465000D02*
X285500Y464500D01*
D14*
X124528Y256248D02*
G03*
X124528Y256248I-13780J0D01*
G01*
Y366984D02*
G03*
X124528Y366984I-13780J0D01*
G01*
X470984D02*
G03*
X470984Y366984I-13780J0D01*
G01*
Y256248D02*
G03*
X470984Y256248I-13780J0D01*
G01*
X172843Y364500D02*
X242000D01*
X251000Y355500D01*
X258000D01*
X143000Y313000D02*
X164500Y334500D01*
Y361000D02*
X171000Y367500D01*
X164500Y334500D02*
Y361000D01*
X151937Y314437D02*
X168500Y331000D01*
X150094Y314437D02*
X151937D01*
X149328Y313672D02*
X150094Y314437D01*
X168500Y331000D02*
Y360000D01*
X143000Y308121D02*
Y313000D01*
X142945Y308066D02*
X143000Y308121D01*
X142945Y306012D02*
Y308066D01*
X142000Y305067D02*
X142945Y306012D01*
X171000Y367500D02*
X246784D01*
X168500Y360000D02*
X170500Y362000D01*
Y362157D02*
X172843Y364500D01*
X170500Y362000D02*
Y362157D01*
X246784Y367500D02*
X251500Y362784D01*
X287000Y457000D02*
X295000Y465000D01*
X264500Y457000D02*
X287000D01*
D15*
X124528Y256248D02*
G03*
X124528Y256248I-13780J0D01*
G01*
Y366984D02*
G03*
X124528Y366984I-13780J0D01*
G01*
X470984D02*
G03*
X470984Y366984I-13780J0D01*
G01*
Y256248D02*
G03*
X470984Y256248I-13780J0D01*
G01*
D39*
X137120Y363000D02*
X143000D01*
X127000Y352880D02*
X137120Y363000D01*
X363032Y406468D02*
X378532D01*
X361500Y388000D02*
Y389500D01*
X363032Y391032D01*
X364531D01*
X378433Y404933D01*
X238338Y426838D02*
X277294D01*
X262000Y404500D02*
Y404650D01*
X257500Y396000D02*
X262000Y404500D01*
X325500Y439424D02*
X330076D01*
X309000Y410500D02*
X327000D01*
X325406Y437031D02*
Y439424D01*
X325500Y412320D02*
Y436936D01*
X325406Y437031D02*
X325500Y436936D01*
Y412320D02*
X327000Y410820D01*
Y410500D02*
Y410820D01*
X336500Y433000D02*
X342500D01*
X351000Y424500D02*
Y425571D01*
X350594Y425976D02*
X351000Y425571D01*
X349524Y425976D02*
X350594D01*
X342500Y433000D02*
X349524Y425976D01*
X330076Y439424D02*
X336500Y433000D01*
X248681Y393819D02*
X258000Y384500D01*
X361500Y408000D02*
Y409500D01*
Y408000D02*
X363032Y406468D01*
X361500Y409500D02*
Y424000D01*
X240500Y410500D02*
X251369Y421369D01*
X298131D01*
X240500Y410500D02*
X247500Y403500D01*
X298131Y421369D02*
X309000Y410500D01*
X233500Y418000D02*
X240274Y411226D01*
X247500Y396000D02*
Y403500D01*
X225914Y418000D02*
X233500D01*
X247500Y395361D02*
Y396000D01*
Y395361D02*
X248681Y394180D01*
Y393819D02*
Y394180D01*
X194500Y406543D02*
Y407500D01*
X192968Y405011D02*
X194500Y406543D01*
X184504Y401504D02*
X188011Y405011D01*
X178567Y386000D02*
X179567Y387000D01*
Y388604D01*
X188011Y405011D02*
X192968D01*
X179567Y388604D02*
X184504Y393541D01*
Y401504D01*
X222000Y422500D02*
Y433000D01*
Y422500D02*
X225024Y419477D01*
X204852Y418500D02*
X215500D01*
X196031Y410532D02*
X196884D01*
X204852Y418500D01*
X204500Y407500D02*
Y408000D01*
Y386000D02*
Y407500D01*
Y408000D02*
X205000Y408500D01*
X194000Y386000D02*
X194500Y386500D01*
X178567Y386000D02*
X194000D01*
X381281Y448218D02*
X392000Y437500D01*
X409501D02*
X419010Y427991D01*
X392000Y437500D02*
X409501D01*
X419010Y423490D02*
Y427991D01*
Y423490D02*
X419500Y423000D01*
X358281Y448218D02*
X381281D01*
X358281Y448500D02*
Y460218D01*
D40*
X378000Y250000D02*
X390500D01*
X207000Y239500D02*
X367500D01*
X378000Y250000D01*
X425975Y252195D02*
X441000Y267220D01*
X425975Y250025D02*
Y252195D01*
X441000Y267220D02*
Y308067D01*
X443000Y399500D02*
X453500Y389000D01*
X152000Y294500D02*
X207000Y239500D01*
X152000Y294500D02*
Y305067D01*
X406450Y399500D02*
X443000D01*
X317500Y372000D02*
X378950D01*
X406450Y399500D01*
X317500Y372000D02*
Y384000D01*
X142382Y267453D02*
X144295Y265539D01*
X142382Y267453D02*
Y282618D01*
X189500Y220000D02*
X376500D01*
X144295Y265205D02*
X189500Y220000D01*
X409287Y286638D02*
X418862D01*
X419500Y263000D02*
Y286500D01*
X376500Y220000D02*
X419500Y263000D01*
X119374Y334874D02*
X130000Y345500D01*
X119374Y305676D02*
Y334874D01*
Y305676D02*
X142000Y283050D01*
X130000Y345500D02*
X142000D01*
X101000Y311500D02*
X110500Y302000D01*
X102000Y345466D02*
Y345500D01*
X101000Y311500D02*
Y344466D01*
X102000Y345466D01*
X120811Y290189D02*
X130000Y281000D01*
X110500Y290189D02*
X120811D01*
X129965Y261500D02*
X141500Y249965D01*
X129965Y261500D02*
Y280465D01*
X141500Y216500D02*
Y249965D01*
X341272Y129772D02*
X428000Y216500D01*
X154740Y129772D02*
X341272D01*
X141905Y141008D02*
X143503D01*
X154740Y129772D01*
X276000Y372000D02*
X317500D01*
X408500Y377500D02*
Y389000D01*
X268000Y361000D02*
X392000D01*
X408500Y377500D01*
X267500Y380500D02*
X276000Y372000D01*
X267500Y380500D02*
Y384500D01*
X247500Y381500D02*
Y384500D01*
Y381500D02*
X268000Y361000D01*
X408500Y389000D02*
X418000D01*
D41*
X152563Y362799D02*
D03*
X142563D02*
D03*
X152382Y271280D02*
D03*
X142382D02*
D03*
X335000Y384500D02*
D03*
Y404500D02*
D03*
Y394500D02*
D03*
X464051Y286638D02*
D03*
X454051D02*
D03*
X110500Y290189D02*
D03*
X419287Y286638D02*
D03*
X409287D02*
D03*
X110500Y302000D02*
D03*
X247501Y323673D02*
D03*
X257501D02*
D03*
X267501D02*
D03*
X277501D02*
D03*
X287501D02*
D03*
X297501D02*
D03*
X307501D02*
D03*
X317501D02*
D03*
X317500Y384500D02*
D03*
X307500D02*
D03*
X297500D02*
D03*
X287500D02*
D03*
X277500D02*
D03*
X267500D02*
D03*
X257500D02*
D03*
X247500D02*
D03*
Y396000D02*
D03*
X257500D02*
D03*
X267500D02*
D03*
X277500D02*
D03*
X287500D02*
D03*
X297500D02*
D03*
X307500D02*
D03*
X317500D02*
D03*
X453382Y389000D02*
D03*
X463382D02*
D03*
X408500D02*
D03*
X418500D02*
D03*
X110500Y313811D02*
D03*
D42*
X428921Y334067D02*
D03*
X143421Y336067D02*
D03*
D43*
X438921Y334067D02*
D03*
X153421Y336067D02*
D03*
D44*
X102000Y345500D02*
D03*
X142000D02*
D03*
D45*
X178567Y406000D02*
D03*
Y396000D02*
D03*
X284000Y449433D02*
D03*
X294000D02*
D03*
X379433Y386000D02*
D03*
Y396000D02*
D03*
X152000Y305067D02*
D03*
X142000D02*
D03*
X132000D02*
D03*
X421000Y308067D02*
D03*
X431000D02*
D03*
X441000D02*
D03*
D46*
X178567Y386000D02*
D03*
X379433Y406000D02*
D03*
D47*
X274000Y449433D02*
D03*
X162000Y305067D02*
D03*
X451000Y308067D02*
D03*
D48*
X428913Y216992D02*
D03*
Y141008D02*
D03*
X141905D02*
D03*
Y216992D02*
D03*
D49*
X176512Y141008D02*
D03*
Y216992D02*
D03*
X395488Y141008D02*
D03*
Y216992D02*
D03*
D50*
X110500Y278535D02*
D03*
Y325465D02*
D03*
D51*
X361500Y409500D02*
D03*
X194500Y386000D02*
D03*
Y407500D02*
D03*
X361500Y388000D02*
D03*
D52*
X351500Y409500D02*
D03*
X204500Y386000D02*
D03*
Y407500D02*
D03*
X351500Y388000D02*
D03*
D53*
X339900Y441900D02*
D03*
X365300Y460700D02*
D03*
X365000Y441500D02*
D03*
X340500Y461000D02*
D03*
X205500D02*
D03*
X230000Y441500D02*
D03*
X230300Y460700D02*
D03*
X204900Y441900D02*
D03*
D54*
X314500Y469000D02*
D03*
X253000D02*
D03*
D55*
X314500Y459000D02*
D03*
X253000D02*
D03*
D56*
X294606Y465000D02*
D03*
X284606D02*
D03*
X153000Y423000D02*
D03*
X163000D02*
D03*
X419500D02*
D03*
X429500D02*
D03*
D57*
X274606Y465000D02*
D03*
X143000Y423000D02*
D03*
X409500D02*
D03*
D58*
X336500Y433000D02*
D03*
X376500D02*
D03*
X222000D02*
D03*
X182000D02*
D03*
X327000Y410500D02*
D03*
X287000D02*
D03*
X240500D02*
D03*
X280500D02*
D03*
D59*
X328650Y344320D02*
D03*
X318650D02*
D03*
X308650D02*
D03*
X298650D02*
D03*
X278650D02*
D03*
X268650D02*
D03*
X258650D02*
D03*
X288650D02*
D03*
X338650D02*
D03*
X378650D02*
D03*
X368650D02*
D03*
X358650D02*
D03*
X388750D02*
D03*
X348650D02*
D03*
X248693Y284420D02*
D03*
X238693D02*
D03*
X268693D02*
D03*
X228693D02*
D03*
X218693D02*
D03*
X208693D02*
D03*
X198693D02*
D03*
X258693D02*
D03*
X278693D02*
D03*
X318693D02*
D03*
X288693D02*
D03*
X298693D02*
D03*
X308693D02*
D03*
X328693D02*
D03*
X338693D02*
D03*
X378693D02*
D03*
X368693D02*
D03*
X358693D02*
D03*
X388693D02*
D03*
X348693D02*
D03*
X248650Y344320D02*
D03*
X208650D02*
D03*
X238650D02*
D03*
X198650D02*
D03*
X218650D02*
D03*
X228650D02*
D03*
D60*
X231000Y326500D02*
D03*
X418409Y357000D02*
D03*
X149328Y313672D02*
D03*
X425975Y250025D02*
D03*
X390500Y250000D02*
D03*
X127000Y352880D02*
D03*
X340000Y332500D02*
D03*
X248500Y335000D02*
D03*
X288000Y305000D02*
D03*
X238338Y426838D02*
D03*
X277294D02*
D03*
X262000Y404650D02*
D03*
X394500Y315000D02*
D03*
Y337000D02*
D03*
X398108Y356591D02*
D03*
X409000Y365000D02*
D03*
X344277Y383323D02*
D03*
X374741Y379759D02*
D03*
X331358Y415357D02*
D03*
X174500Y360500D02*
D03*
X251500Y362784D02*
D03*
X281671Y432329D02*
D03*
X330968Y425000D02*
D03*
X343500Y409000D02*
D03*
X264500Y457000D02*
D03*
X180367Y351817D02*
D03*
X175000Y354500D02*
D03*
X258000Y355500D02*
D03*
X194500Y335000D02*
D03*
X188500Y349969D02*
D03*
X431000Y348000D02*
D03*
X399500Y267000D02*
D03*
X324500Y329500D02*
D03*
X182000Y302000D02*
D03*
X175000Y302500D02*
D03*
D61*
X314087Y440500D02*
D03*
X324914D02*
D03*
X361913Y424500D02*
D03*
X351086D02*
D03*
X215087Y418000D02*
D03*
X225914D02*
D03*
D62*
X352300Y460700D02*
X365300D01*
X314500Y469000D02*
X344000D01*
X352300Y460700D01*
M02*
