M48
;Layer_Color=9474304
;FILE_FORMAT=2:4
INCH,LZ
;TYPE=PLATED
T1F00S00C0.0280
T2F00S00C0.0310
T3F00S00C0.0315
T4F00S00C0.0320
T5F00S00C0.0394
T6F00S00C0.0413
T7F00S00C0.0500
T8F00S00C0.0709
T9F00S00C0.0984
;TYPE=NON_PLATED
T10F00S00C0.1181
T11F00S00C0.1260
%
T01
X03905Y025
X03995Y0267
X042598Y025002
X0288Y0305
X0182Y0302
X0175Y03025
X014933Y031367
X0127Y035288
X0175Y03545
X01745Y03605
X018037Y035182
X01885Y034997
X01945Y0335
X0231Y03265
X02485Y0335
X0258Y03555
X02515Y036278
X0262Y040465
X027729Y042684
X028167Y043233
X02645Y0457
X023834Y042684
X033097Y0425
X033136Y041536
X03435Y0409
X034428Y038332
X037474Y037976
X039811Y035659
X0409Y0365
X041841Y0357
X0431Y0348
X03945Y0337
Y0315
X034Y03325
X03245Y03295
T02
X02049Y04419
X02055Y0461
X02303Y04607
X023Y04415
X03399Y04419
X03405Y0461
X03653Y04607
X0365Y04415
T03
X0182Y0433
X0222
X02405Y04105
X02805
X0287
X0327
X03365Y0433
X03765
T04
X0143Y0423
X0153
X0163
X01945Y04075
X02045
Y0386
X01945
X0253Y0459
X027461Y0465
X028461
X029461
X03145Y0459
X03515Y04095
X03615
Y0388
X03515
X04095Y0423
X04195
X04295
X03145Y0469
X0253
T05
X031869Y028442
X032869
X033869
X034869
X035869
X036869
X037869
X038869
X040929Y028664
X041929
X0421Y030807
X0431
X0441
X0451
X045405Y028664
X046405
X030869Y028442
X029869
X028869
X027869
X026869
X025869
X024869
X023869
X022869
X021869
X020869
X019869
X0162Y030507
X0152
X0142
X0132
X01105Y0302
Y029019
X014238Y027128
X015238
X01105Y031381
X014256Y03628
X015256
X017857Y0386
Y0396
Y0406
X02475Y0396
X02575
X02675
X02775
X02875
X02975
X03075
Y03845
X02975
X02875
X02775
X02675
X02575
X02475
X024865Y034432
X025865
X026865
X027865
X028865
X029865
X030865
X03075Y032367
X02975
X02875
X02775
X02675
X02575
X02475
X023865Y034432
X022865
X021865
X020865
X019865
X0274Y044943
X0284
X0294
X03175Y0396
Y03845
X0335
Y03945
Y04045
X037943Y0406
Y0396
Y0386
X04085Y0389
X04185
X045338
X046338
X038875Y034432
X037865
X036865
X035865
X034865
X033865
X032865
X031865
X03175Y032367
T06
X014342Y033607
X015342
X042892Y033407
X043892
T07
X0102Y03455
X0142
T08
X01105Y027854
Y032546
T09
X014191Y014101
X042891
Y021699
X014191
T10
X04572Y025625
X011075
Y036698
X04572
T11
X017651Y014101
X039549
Y021699
X017651
M30
