M48
;Layer_Color=9474304
;FILE_FORMAT=4:4
METRIC,LZ
;TYPE=PLATED
T1F00S00C0.7112
T2F00S00C0.7874
T3F00S00C0.8000
T4F00S00C0.8128
T5F00S00C1.0000
T6F00S00C1.0500
T7F00S00C1.6000
T8F00S00C1.8000
;TYPE=NON_PLATED
T9F00S00C3.0000
T10F00S00C3.2000
%
T01
X0101473Y0067818
Y007112
X0074803Y0077343
X0046228Y0076708
X004445Y0076835
Y0090043
X0044323Y0091567
X00458131Y00893614
X0047879Y0088892
X0049403Y008509
X0065532Y0090297
X0063881Y00921472
X0066548Y0102781
X00704326Y01084168
X00715444Y01098116
X0067183Y0116078
X00605378Y01084168
X0084066Y010795
X00841648Y01055008
X0087249Y0103886
X00874464Y0097364
X00951843Y00964587
X01011195Y0090574
X0103886Y009271
X0106195Y0091694
X0109474Y0088392
X01090094Y00863166
X0100203Y0085598
Y008001
X0082423Y0083693
X0080518Y0085217
T02
X00520446Y01122426
X0052197Y0117094
X00584962Y01170178
X005842Y0112141
X00863346Y01122426
X0086487Y0117094
X00927862Y01170178
X009271Y0112141
T03
X0046228Y0109982
X0056388
X0061087Y0104267
X0071247
X0072898
X0083058
X0085471Y0109982
X0095631
T04
X0036322Y0107442
X0038862
X0041402
X0049403Y0103505
X0051943
Y0098044
X0049403
X0064262Y0116586
X006975Y011811
X007229
X007483
X0079883Y0116586
X0089281Y0104013
X0091821
Y0098552
X0089281
X0104013Y0107442
X0106553
X0109093
X0079883Y0119126
X0064262
T05
X0080948Y00722427
X0083488
X00860279
X00885679
X00911079
X00936479
X0096188
X0098728
X0103959Y0072806
X0106499
X0106994Y0077868
X0109494
X0111994
X0114494
X0115329Y0072806
X0117869
X0078408Y00722427
X0075868
X00733279
X00707879
X00682479
X00657079
X00631679
X00606279
X0058088
X0055548
X00530079
X00504679
X0042358Y0076564
X0039858
X0037358
X0034858
X0027559Y0076708
Y0073708
X0036519Y006977
X0039059
X0038989Y009017
X0036449
X0027559Y0079708
X00504571Y00874573
X00529971
X00555371
X00580771
X00606171
X00631571
X00656971
X00682371
X00707771
X00733171
X00758571
X00783971
X00781052Y00822129
X00755652
X00730253
X00704853
X00679453
X00654053
X00628652
X0062865Y0097663
X0065405
X0067945
X0070485
X0073025
X0075565
X0078105
Y0100584
X0075565
X0073025
X0070485
X0067945
X0065405
X0062865
X0045356
Y0103124
Y0098044
X0069596Y0114156
X0072136
X0074676
X0080645Y0100584
Y0097663
X008509Y0098933
Y0101473
X0096376Y0100584
Y0103124
Y0098044
X0103759Y0098806
X0106299
X0115159
X0117699
X00987425Y00874573
X00961771
X00936371
X00910971
X00885571
X00860171
X00834771
X00809371
X00806452Y00822129
T06
X0036215Y0084599
X0038715
X0108478Y0083964
X0110978
T07
X0036044Y0035816
X0108944
Y0055116
X0036044
T08
X0027559Y0070748
Y0082668
T09
X011613Y0065087
X002813
Y0093214
X011613
T10
X0044834Y0035816
X0100454
Y0055116
X0044834
M30
