G04*
G04 #@! TF.GenerationSoftware,Altium Limited,Altium Designer,23.6.0 (18)*
G04*
G04 Layer_Color=16711935*
%FSLAX44Y44*%
%MOMM*%
G71*
G04*
G04 #@! TF.SameCoordinates,D83645A9-EAB1-4845-A107-50581717B435*
G04*
G04*
G04 #@! TF.FilePolarity,Positive*
G04*
G01*
G75*
%ADD15C,0.2000*%
%ADD16C,0.1270*%
D15*
X964760Y1063340D02*
G03*
X964760Y1063340I-1000J0D01*
G01*
X317080Y765640D02*
G03*
X317080Y765640I-1000J0D01*
G01*
X1142680Y839640D02*
G03*
X1142680Y839640I-1000J0D01*
G01*
X664860Y1141560D02*
G03*
X664860Y1141560I-1000J0D01*
G01*
X1178440Y778680D02*
G03*
X1178440Y778680I-1000J0D01*
G01*
X420050Y845990D02*
G03*
X420050Y845990I-1000J0D01*
G01*
X454560Y948340D02*
G03*
X454560Y948340I-1000J0D01*
G01*
D16*
X940260Y956340D02*
X997760D01*
X940260D02*
Y1055340D01*
X997760D01*
Y956340D02*
Y1055340D01*
X1126440Y454660D02*
X1146440D01*
X306440D02*
X326440D01*
X316440Y444660D02*
Y464660D01*
X337940Y253610D02*
Y655710D01*
Y253610D02*
X1114940D01*
Y655710D01*
X337940D02*
X1114940D01*
X448080Y742140D02*
Y799640D01*
X324080Y742140D02*
X448080D01*
X324080D02*
Y799640D01*
X448080D01*
X1060280Y805640D02*
X1134280D01*
X1060280D02*
Y863140D01*
X1134280D01*
Y805640D02*
Y863140D01*
X770860Y1118060D02*
Y1175560D01*
X671860Y1118060D02*
X770860D01*
X671860D02*
Y1175560D01*
X770860D01*
X1045440Y744680D02*
Y802180D01*
X1169440D01*
Y744680D02*
Y802180D01*
X1045440Y744680D02*
X1169440D01*
X337650Y811990D02*
X411650D01*
X337650D02*
Y869490D01*
X411650D01*
Y811990D02*
Y869490D01*
X419560Y956340D02*
Y1055340D01*
Y956340D02*
X477060D01*
Y1055340D01*
X419560D02*
X477060D01*
M02*
